<svg width="34" height="33" viewBox="0 0 34 33" fill="none" xmlns="http://www.w3.org/2000/svg">
<path opacity="0.1" fill-rule="evenodd" clip-rule="evenodd" d="M0.651367 16.2726C0.651367 7.28551 7.93688 0 16.924 0C25.9111 0 33.1967 7.28551 33.1967 16.2726C33.1967 25.2598 25.9111 32.5453 16.924 32.5453C7.93688 32.5453 0.651367 25.2598 0.651367 16.2726Z" fill="#FE2C2C"/>
<path fill-rule="evenodd" clip-rule="evenodd" d="M25.6031 16.2605C25.6031 16.8474 25.5433 17.4335 25.426 18.0048C25.3115 18.5626 25.142 19.1102 24.92 19.6336C24.703 20.1478 24.4339 20.6433 24.1194 21.1054C23.8097 21.5646 23.4528 21.9954 23.0608 22.3881C22.668 22.7791 22.2357 23.135 21.7767 23.446C21.3131 23.7583 20.8169 24.027 20.3024 24.245C19.7782 24.4659 19.2293 24.6352 18.6721 24.7494C18.1 24.8671 17.5117 24.9271 16.924 24.9271C16.3357 24.9271 15.7475 24.8671 15.1763 24.7494C14.6181 24.6352 14.0693 24.4659 13.5455 24.245C13.0311 24.027 12.5344 23.7583 12.0707 23.446C11.6118 23.135 11.1795 22.7791 10.7875 22.3881C10.3951 21.9954 10.0382 21.5646 9.72803 21.1054C9.41528 20.6433 9.14573 20.1478 8.92792 19.6336C8.70582 19.1102 8.53591 18.5625 8.42106 18.0048C8.30495 17.4335 8.24561 16.8474 8.24561 16.2605C8.24561 15.6731 8.30492 15.0857 8.42109 14.5157C8.53594 13.9579 8.70586 13.4095 8.92795 12.8869C9.14576 12.3723 9.41531 11.8763 9.72807 11.4142C10.0383 10.9547 10.3951 10.5247 10.7875 10.1315C11.1795 9.74051 11.6118 9.3855 12.0708 9.07489C12.5344 8.76129 13.0311 8.49261 13.5456 8.27423C14.0694 8.05286 14.6181 7.88319 15.1763 7.7698C15.7476 7.65301 16.3358 7.59375 16.924 7.59375C17.5118 7.59375 18.1 7.65301 18.6721 7.7698C19.2294 7.88323 19.7782 8.0529 20.3024 8.27423C20.8169 8.49257 21.3132 8.76129 21.7768 9.07489C22.2357 9.3855 22.668 9.74051 23.0609 10.1315C23.4529 10.5247 23.8097 10.9547 24.1195 11.4142C24.4339 11.8763 24.703 12.3723 24.92 12.8869C25.142 13.4095 25.3115 13.9579 25.426 14.5157C25.5433 15.0857 25.6031 15.6731 25.6031 16.2605ZM13.7616 9.56618C11.6948 10.5408 10.1522 12.4425 9.67118 14.7345C9.86657 14.7362 12.9551 14.7751 16.5137 13.831C15.2309 11.5551 13.8604 9.69782 13.7616 9.56618ZM17.1277 14.9706C13.3115 16.1115 9.64957 16.0294 9.51821 16.0243C9.51607 16.1039 9.51226 16.1809 9.51226 16.2605C9.51226 18.1618 10.2306 19.8951 11.4113 21.2057C11.4087 21.2019 13.437 17.6087 17.4367 16.3172C17.5333 16.285 17.6316 16.2562 17.7291 16.2283C17.5431 15.8077 17.3401 15.3862 17.1277 14.9706ZM21.8187 10.7058C20.5138 9.55686 18.8005 8.85993 16.9239 8.85993C16.3217 8.85993 15.7373 8.93272 15.1775 9.06728C15.2885 9.21626 16.6807 11.0604 17.9482 13.3845C20.7448 12.3376 21.8005 10.7329 21.8187 10.7058ZM18.2343 17.4547C18.2178 17.4601 18.2013 17.4648 18.1852 17.4707C13.8122 18.993 12.3841 22.0609 12.3686 22.0944C13.6269 23.0715 15.2051 23.661 16.924 23.661C17.9504 23.661 18.928 23.4523 19.8176 23.0745C19.7078 22.4278 19.2773 20.1613 18.2343 17.4547ZM21.0656 22.3982C22.7298 21.2768 23.9118 19.4961 24.2415 17.4335C24.0889 17.3844 22.0153 16.7289 19.623 17.1119C20.5952 19.7796 20.9902 21.9522 21.0656 22.3982ZM18.5187 14.4873C18.6907 14.8403 18.8573 15.1995 19.0111 15.5605C19.0658 15.69 19.1192 15.817 19.1713 15.9439C21.7174 15.624 24.2258 16.1623 24.3331 16.1842C24.3161 14.4298 23.6876 12.8196 22.6477 11.5589C22.6337 11.5788 21.445 13.2939 18.5187 14.4873Z" fill="#FE2C2C"/>
</svg>
