<svg width="33" height="50" viewBox="0 0 33 50" fill="none" xmlns="http://www.w3.org/2000/svg">
<g clip-path="url(#clip0_147_3800)">
<path d="M8.08482 0H16.1372V16.2041H8.08492C-2.53429 15.7864 -2.64153 0.438672 8.08482 0ZM8.08482 33.1013H16.1372V16.8972H8.08492C-2.64144 17.3358 -2.53428 32.6836 8.08482 33.1013ZM24.8786 0H16.826V16.2041H24.8786C35.6407 15.6246 35.5066 0.330762 24.8786 0ZM16.1372 41.8965V33.7943H8.08492C1.51384 33.7943 -2.64144 41.5459 1.92858 47.1135C6.28574 52.6319 16.1373 49.8807 16.1373 41.8965H16.1372ZM32.9475 24.9992C32.9475 18.7727 26.2021 14.8601 20.8351 17.9733C15.468 21.0866 15.4679 28.9119 20.8351 32.0252C26.2022 35.1385 32.9475 31.2258 32.9475 24.9992Z" fill="white"/>
</g>
<defs>
<clipPath id="clip0_147_3800">
<rect width="33" height="50" fill="white"/>
</clipPath>
</defs>
</svg>
