<svg width="33" height="33" viewBox="0 0 33 33" fill="none" xmlns="http://www.w3.org/2000/svg">
<path opacity="0.1" fill-rule="evenodd" clip-rule="evenodd" d="M0 16.2726C0 7.28551 7.28551 0 16.2726 0C25.2598 0 32.5453 7.28551 32.5453 16.2726C32.5453 25.2598 25.2598 32.5453 16.2726 32.5453C7.28551 32.5453 0 25.2598 0 16.2726Z" fill="#FE2C2C"/>
<path fill-rule="evenodd" clip-rule="evenodd" d="M16.2738 7.59375C13.9168 7.59375 13.621 7.60406 12.6952 7.64618C11.7713 7.68849 11.1406 7.83477 10.5888 8.04939C10.018 8.27106 9.53378 8.56759 9.05138 9.05017C8.56862 9.53257 8.27209 10.0168 8.0497 10.5874C7.83453 11.1394 7.68808 11.7703 7.64649 12.6938C7.60509 13.6196 7.59424 13.9156 7.59424 16.2726C7.59424 18.6296 7.60473 18.9245 7.64667 19.8503C7.68916 20.7742 7.83544 21.4048 8.04988 21.9567C8.27173 22.5275 8.56826 23.0117 9.05084 23.4941C9.53305 23.9769 10.0173 24.2741 10.5877 24.4958C11.1399 24.7104 11.7707 24.8567 12.6945 24.899C13.6202 24.9411 13.9159 24.9514 16.2727 24.9514C18.6299 24.9514 18.9248 24.9411 19.8506 24.899C20.7745 24.8567 21.4059 24.7104 21.9581 24.4958C22.5287 24.2741 23.0122 23.9769 23.4944 23.4941C23.9772 23.0117 24.2737 22.5275 24.4961 21.9569C24.7094 21.4048 24.8559 20.774 24.8993 19.8504C24.9409 18.9247 24.9517 18.6296 24.9517 16.2726C24.9517 13.9156 24.9409 13.6198 24.8993 12.694C24.8559 11.7701 24.7094 11.1394 24.4961 10.5876C24.2737 10.0168 23.9772 9.53257 23.4944 9.05017C23.0116 8.56741 22.5289 8.27088 21.9575 8.04939C21.4043 7.83477 20.7732 7.68849 19.8493 7.64618C18.9236 7.60406 18.6288 7.59375 16.2711 7.59375H16.2738ZM15.4952 9.15772C15.7263 9.15736 15.9841 9.15772 16.2738 9.15772C18.591 9.15772 18.8657 9.16604 19.7807 9.20763C20.6269 9.24632 21.0862 9.38771 21.3921 9.5065C21.7971 9.66381 22.0859 9.85185 22.3894 10.1556C22.6932 10.4594 22.8812 10.7487 23.0389 11.1537C23.1577 11.4592 23.2993 11.9185 23.3378 12.7647C23.3794 13.6796 23.3884 13.9544 23.3884 16.2706C23.3884 18.5867 23.3794 18.8616 23.3378 19.7765C23.2991 20.6226 23.1577 21.0819 23.0389 21.3875C22.8816 21.7925 22.6932 22.0809 22.3894 22.3845C22.0857 22.6882 21.7973 22.8763 21.3921 23.0336C21.0865 23.1529 20.6269 23.2939 19.7807 23.3326C18.8658 23.3742 18.591 23.3832 16.2738 23.3832C13.9563 23.3832 13.6817 23.3742 12.7668 23.3326C11.9206 23.2936 11.4613 23.1522 11.1552 23.0334C10.7502 22.8761 10.4609 22.688 10.1572 22.3843C9.85341 22.0805 9.66537 21.7919 9.5077 21.3867C9.38891 21.0812 9.24734 20.6219 9.20883 19.7757C9.16724 18.8608 9.15892 18.586 9.15892 16.2684C9.15892 13.9508 9.16724 13.6774 9.20883 12.7625C9.24752 11.9163 9.38891 11.4571 9.5077 11.1511C9.66501 10.7461 9.85341 10.4568 10.1572 10.1531C10.4609 9.84932 10.7502 9.66128 11.1552 9.50361C11.4612 9.38428 11.9206 9.24325 12.7668 9.20437C13.5674 9.16821 13.8777 9.15736 15.4952 9.15555V9.15772ZM20.9065 10.5988C20.3315 10.5988 19.865 11.0647 19.865 11.6399C19.865 12.2148 20.3315 12.6813 20.9065 12.6813C21.4814 12.6813 21.9479 12.2148 21.9479 11.6399C21.9479 11.0649 21.4814 10.5988 20.9065 10.5988ZM16.2738 11.8156C13.8125 11.8156 11.8169 13.8112 11.8169 16.2726C11.8169 18.7339 13.8125 20.7286 16.2738 20.7286C18.7352 20.7286 20.73 18.7339 20.73 16.2726C20.73 13.8112 18.7352 11.8156 16.2738 11.8156ZM16.2738 13.3796C17.8714 13.3796 19.1667 14.6748 19.1667 16.2726C19.1667 17.8702 17.8714 19.1655 16.2738 19.1655C14.676 19.1655 13.3808 17.8702 13.3808 16.2726C13.3808 14.6748 14.676 13.3796 16.2738 13.3796Z" fill="#FE2C2C"/>
</svg>
