<svg width="19" height="19" viewBox="0 0 19 19" fill="none" xmlns="http://www.w3.org/2000/svg">
<path d="M9.71759 2.05713C5.43196 2.05713 1.95703 5.53206 1.95703 9.81768C1.95703 14.1033 5.43196 17.5782 9.71759 17.5782C14.0032 17.5782 17.4781 14.1033 17.4781 9.81768C17.4781 5.53206 14.0032 2.05713 9.71759 2.05713ZM12.2138 9.93721L8.43051 12.6898C8.40977 12.7047 8.38532 12.7136 8.35985 12.7155C8.33438 12.7174 8.30888 12.7123 8.28614 12.7006C8.26341 12.689 8.24432 12.6713 8.23098 12.6495C8.21764 12.6278 8.21055 12.6027 8.21051 12.5772V7.07551C8.21043 7.04991 8.21743 7.0248 8.23075 7.00294C8.24407 6.98109 8.26317 6.96335 8.28596 6.95169C8.30874 6.94003 8.3343 6.9349 8.35982 6.93688C8.38533 6.93887 8.4098 6.94787 8.43051 6.96291L12.2138 9.71375C12.2317 9.72639 12.2462 9.74313 12.2563 9.76257C12.2664 9.78201 12.2716 9.80359 12.2716 9.82548C12.2716 9.84737 12.2664 9.86894 12.2563 9.88838C12.2462 9.90782 12.2317 9.92457 12.2138 9.93721V9.93721Z" fill="white"/>
</svg>
