<svg width="50" height="44" viewBox="0 0 50 44" fill="none" xmlns="http://www.w3.org/2000/svg">
<g id="logos:react" clip-path="url(#clip0_143_3337)">
<path id="Vector" d="M41.11 14.2467C40.5778 14.0663 40.0412 13.8992 39.5006 13.7455C39.5914 13.3789 39.675 13.0166 39.7492 12.6608C40.9676 6.81707 40.1711 2.10926 37.4506 0.55923C34.8422 -0.926735 30.5764 0.622721 26.2682 4.3274C25.8436 4.69317 25.4284 5.06948 25.023 5.45597C24.7517 5.19896 24.4755 4.94695 24.1947 4.70005C19.6795 0.738896 15.1537 -0.930595 12.4361 0.623879C9.83008 2.11448 9.0584 6.54014 10.1553 12.0784C10.2644 12.6269 10.3876 13.1725 10.5248 13.7148C9.88418 13.8947 9.26602 14.0861 8.67441 14.2899C3.38066 16.1136 0 18.9715 0 21.9359C0 24.9976 3.6293 28.0685 9.14297 29.9306C9.58997 30.0809 10.0407 30.2202 10.4947 30.3484C10.3473 30.9325 10.2164 31.5205 10.1021 32.1119C9.05645 37.554 9.87305 41.875 12.4721 43.3562C15.1564 44.8858 19.6619 43.3137 24.0488 39.5245C24.4046 39.2165 24.7525 38.8997 25.0922 38.5745C25.5312 38.993 25.9819 39.3993 26.4437 39.7929C30.6934 43.406 34.8902 44.8649 37.4867 43.3797C40.1686 41.8457 41.0402 37.2037 39.9086 31.5561C39.8194 31.1136 39.7195 30.6734 39.6088 30.2357C39.9252 30.1431 40.2357 30.0477 40.5385 29.9485C46.2705 28.0722 50 25.0385 50 21.9359C50 18.9607 46.5102 16.0835 41.11 14.2467ZM39.8668 27.9454C39.5934 28.0347 39.3129 28.121 39.027 28.2049C38.3941 26.2255 37.5402 24.1208 36.4951 21.9461C37.4924 19.8233 38.3135 17.7455 38.9285 15.779C39.44 15.9253 39.9363 16.0795 40.4148 16.2421C45.0418 17.8161 47.8641 20.1429 47.8641 21.9359C47.8641 23.8456 44.816 26.3249 39.8668 27.9454ZM37.8133 31.966C38.3137 34.4632 38.385 36.7211 38.0535 38.4863C37.7559 40.0724 37.157 41.1297 36.4164 41.5533C34.8408 42.4546 31.4711 41.2832 27.8369 38.1931C27.4073 37.8271 26.9881 37.4494 26.5797 37.0603C27.9887 35.5379 29.3967 33.768 30.7709 31.8023C33.1881 31.5904 35.4717 31.2438 37.5426 30.7708C37.6423 31.167 37.7326 31.5655 37.8133 31.966ZM17.0461 41.3976C15.5066 41.9347 14.2805 41.9501 13.5393 41.5279C11.9621 40.6291 11.3064 37.1595 12.2008 32.5055C12.3071 31.9556 12.4288 31.4087 12.5658 30.8654C14.6139 31.3131 16.8809 31.635 19.3037 31.8291C20.6873 33.7526 22.1359 35.5205 23.5959 37.0686C23.2856 37.3653 22.968 37.6543 22.6434 37.9355C20.7033 39.611 18.7594 40.7997 17.0461 41.3976ZM9.83398 27.9336C7.3959 27.1101 5.38242 26.0401 4.00234 24.8723C2.76211 23.8231 2.13613 22.7812 2.13613 21.9359C2.13613 20.1369 4.85039 17.8424 9.37754 16.2829C9.92695 16.0937 10.502 15.9152 11.0986 15.7477C11.7244 17.7586 12.5451 19.8611 13.5355 21.9872C12.5322 24.1448 11.6998 26.2809 11.068 28.3155C10.6535 28.1982 10.2421 28.0709 9.83398 27.9336ZM12.2516 11.6729C11.3119 6.92804 11.9359 3.34879 13.5064 2.45046C15.1791 1.49365 18.8779 2.85784 22.7766 6.27826C23.0308 6.50181 23.2809 6.72989 23.5268 6.96239C22.074 8.50374 20.6387 10.2585 19.2674 12.1706C16.9158 12.386 14.6648 12.7318 12.5953 13.1951C12.4678 12.6907 12.3532 12.183 12.2516 11.6729ZM33.8193 16.9351C33.3305 16.1009 32.8236 15.2771 32.2988 14.4644C33.8941 14.6637 35.4227 14.9283 36.858 15.2518C36.4271 16.6165 35.89 18.0432 35.2578 19.5061C34.7957 18.6397 34.3161 17.7826 33.8193 16.9351ZM25.024 8.47074C26.0092 9.52539 26.9959 10.7028 27.9664 11.9803C25.9977 11.8884 24.0256 11.8881 22.0568 11.9792C23.0283 10.7134 24.0234 9.53754 25.024 8.47074ZM16.1723 16.9496C15.6817 17.7902 15.2111 18.642 14.7607 19.5043C14.1389 18.0467 13.6066 16.6134 13.1721 15.2294C14.5986 14.914 16.1199 14.6562 17.7051 14.4605C17.1745 15.2782 16.6634 16.1082 16.1723 16.9496ZM17.7506 29.5614C16.1129 29.3808 14.5688 29.1363 13.1426 28.8294C13.584 27.4207 14.1279 25.9569 14.7633 24.468C15.2154 25.331 15.688 26.1833 16.1807 27.0243C16.6873 27.8888 17.2119 28.7356 17.7506 29.5614ZM25.083 35.5497C24.0705 34.4705 23.0607 33.2765 22.0746 31.9924C23.032 32.0295 24.008 32.0484 25 32.0484C26.0191 32.0484 27.0266 32.0258 28.0182 31.9822C27.0445 33.2894 26.0615 34.4852 25.083 35.5497ZM35.2779 24.392C35.9463 25.8972 36.5096 27.3533 36.9568 28.7379C35.5072 29.0649 33.942 29.3281 32.2928 29.5236C32.8212 28.6958 33.333 27.8577 33.8277 27.0098C34.3307 26.1479 34.8142 25.2751 35.2779 24.392ZM31.9775 25.9553C31.2202 27.2553 30.4202 28.5307 29.5789 29.7793C28.055 29.8859 26.5277 29.9389 25 29.9381C23.4439 29.9381 21.9305 29.8902 20.473 29.7968C19.6098 28.5511 18.7946 27.2736 18.0291 25.9669C17.2672 24.6672 16.5558 23.3394 15.8959 21.9863C16.5541 20.6329 17.2636 19.3044 18.0229 18.0037L18.0227 18.0039C18.7816 16.7028 19.5904 15.4307 20.4471 14.1904C21.934 14.0792 23.4588 14.0213 24.9998 14.0213C26.5479 14.0213 28.0748 14.0798 29.5613 14.1917C30.4094 15.4302 31.2129 16.698 31.9705 17.9925C32.7323 19.2903 33.4512 20.6123 34.126 21.9564C33.4581 23.3141 32.7415 24.648 31.9775 25.9553ZM36.3838 2.38755C38.058 3.34165 38.7092 7.18914 37.6572 12.2347C37.59 12.5566 37.5146 12.8844 37.4326 13.2169C35.358 12.7438 33.1055 12.3919 30.7471 12.1733C29.3732 10.2402 27.9496 8.4827 26.5205 6.96123C26.895 6.6045 27.2785 6.25703 27.6705 5.91912C31.3619 2.74514 34.8119 1.49191 36.3838 2.38755ZM25 17.5243C27.4658 17.5243 29.4648 19.4995 29.4648 21.9359C29.4648 24.3723 27.4658 26.3475 25 26.3475C22.5342 26.3475 20.5352 24.3723 20.5352 21.9359C20.5352 19.4995 22.5342 17.5243 25 17.5243Z" fill="white"/>
</g>
<defs>
<clipPath id="clip0_143_3337">
<rect width="50" height="44" fill="white"/>
</clipPath>
</defs>
</svg>
