<svg width="50" height="50" viewBox="0 0 50 50" fill="none" xmlns="http://www.w3.org/2000/svg">
<path d="M35.4167 16.667V33.3337H43.75M27.0833 31.2503L29.1667 33.3337M6.25 31.2503C6.25 31.8029 6.46949 32.3328 6.86019 32.7235C7.25089 33.1142 7.7808 33.3337 8.33333 33.3337H12.5C13.0525 33.3337 13.5824 33.1142 13.9731 32.7235C14.3638 32.3328 14.5833 31.8029 14.5833 31.2503V27.0837C14.5833 26.5311 14.3638 26.0012 13.9731 25.6105C13.5824 25.2198 13.0525 25.0003 12.5 25.0003H8.33333C7.7808 25.0003 7.25089 24.7808 6.86019 24.3901C6.46949 23.9994 6.25 23.4695 6.25 22.917V18.7503C6.25 18.1978 6.46949 17.6679 6.86019 17.2772C7.25089 16.8865 7.7808 16.667 8.33333 16.667H12.5C13.0525 16.667 13.5824 16.8865 13.9731 17.2772C14.3638 17.6679 14.5833 18.1978 14.5833 18.7503M25 16.667C26.1051 16.667 27.1649 17.106 27.9463 17.8874C28.7277 18.6688 29.1667 19.7286 29.1667 20.8337V29.167C29.1667 30.2721 28.7277 31.3319 27.9463 32.1133C27.1649 32.8947 26.1051 33.3337 25 33.3337C23.8949 33.3337 22.8351 32.8947 22.0537 32.1133C21.2723 31.3319 20.8333 30.2721 20.8333 29.167V20.8337C20.8333 19.7286 21.2723 18.6688 22.0537 17.8874C22.8351 17.106 23.8949 16.667 25 16.667Z" stroke="white" stroke-width="2" stroke-linecap="round" stroke-linejoin="round"/>
</svg>
