<svg width="33" height="33" viewBox="0 0 33 33" fill="none" xmlns="http://www.w3.org/2000/svg">
<path opacity="0.1" fill-rule="evenodd" clip-rule="evenodd" d="M0.303223 16.2726C0.303223 7.28551 7.58873 0 16.5759 0C25.563 0 32.8485 7.28551 32.8485 16.2726C32.8485 25.2598 25.563 32.5453 16.5759 32.5453C7.58873 32.5453 0.303223 25.2598 0.303223 16.2726Z" fill="#FE2C2C"/>
<path fill-rule="evenodd" clip-rule="evenodd" d="M16.0884 13.2267L16.1226 13.7898L15.5534 13.7208C13.4818 13.4565 11.672 12.5602 10.1354 11.0549L9.38419 10.3079L9.19069 10.8595C8.78092 12.0891 9.04272 13.3876 9.8964 14.2609C10.3517 14.7435 10.2493 14.8125 9.46387 14.5252C9.19069 14.4333 8.95166 14.3643 8.9289 14.3988C8.84922 14.4792 9.1224 15.5249 9.33866 15.9386C9.6346 16.5132 10.2379 17.0763 10.898 17.4095L11.4558 17.6738L10.7956 17.6853C10.1582 17.6853 10.1354 17.6968 10.2037 17.9381C10.4314 18.685 11.3306 19.4779 12.3322 19.8227L13.0379 20.064L12.4233 20.4317C11.5127 20.9603 10.4428 21.2591 9.37281 21.282C8.8606 21.2935 8.43945 21.3395 8.43945 21.374C8.43945 21.4889 9.8281 22.1324 10.6363 22.3852C13.0607 23.1321 15.9404 22.8104 18.1031 21.5349C19.6397 20.627 21.1763 18.8229 21.8934 17.0763C22.2804 16.1455 22.6674 14.4448 22.6674 13.6289C22.6674 13.1003 22.7016 13.0313 23.339 12.3993C23.7146 12.0316 24.0675 11.6294 24.1358 11.5145C24.2496 11.2962 24.2382 11.2962 23.6577 11.4915C22.6902 11.8363 22.5536 11.7903 23.0317 11.2732C23.3845 10.9055 23.8057 10.239 23.8057 10.0436C23.8057 10.0092 23.6349 10.0666 23.4414 10.17C23.2365 10.2849 22.7813 10.4573 22.4398 10.5607L21.8251 10.7561L21.2674 10.3769C20.9601 10.17 20.5275 9.9402 20.2999 9.87126C19.7194 9.71038 18.8316 9.73336 18.308 9.91722C16.8852 10.4343 15.986 11.7673 16.0884 13.2267Z" fill="#FE2C2C"/>
</svg>
