<svg width="48" height="17" viewBox="0 0 48 17" fill="none" xmlns="http://www.w3.org/2000/svg">
<path d="M4.37689 0.824219C4.4726 1.15234 4.48627 1.49414 4.41791 1.84961C4.41791 1.95898 4.40424 2.03418 4.37689 2.0752C4.37689 2.11621 4.38373 2.15723 4.3974 2.19824C4.41107 2.23926 4.41791 2.27344 4.41791 2.30078C4.39057 2.41016 4.37689 2.47168 4.37689 2.48535C4.39057 2.49902 4.3974 2.51953 4.3974 2.54688C4.37006 2.61523 4.35639 2.67676 4.35639 2.73145C4.37006 2.77246 4.37689 2.82715 4.37689 2.89551C4.37689 2.96387 4.37006 3.02539 4.35639 3.08008C4.34271 3.13477 4.32904 3.19629 4.31537 3.26465C4.3017 3.36035 4.29486 3.45605 4.29486 3.55176C4.30853 3.63379 4.29486 3.71582 4.25385 3.79785C4.26752 3.93457 4.27435 4.05078 4.27435 4.14648C4.28803 4.22852 4.28803 4.31055 4.27435 4.39258C4.26068 4.48828 4.25385 4.56348 4.25385 4.61816C4.25385 4.64551 4.24701 4.67969 4.23334 4.7207C4.21967 4.76172 4.2265 4.80273 4.25385 4.84375C4.21283 4.99414 4.19232 5.09668 4.19232 5.15137C4.19232 5.19238 4.18549 5.25391 4.17182 5.33594C4.18549 5.4043 4.19232 5.5 4.19232 5.62305C4.19232 5.74609 4.18549 5.8418 4.17182 5.91016C4.15814 5.96484 4.15131 6.01953 4.15131 6.07422C4.15131 6.12891 4.15131 6.18359 4.15131 6.23828C4.12396 6.41602 4.11713 6.53223 4.1308 6.58691C4.14447 6.6416 4.15131 6.69629 4.15131 6.75098C4.15131 6.87402 4.14447 6.94238 4.1308 6.95605C4.1308 6.95605 4.1308 6.96973 4.1308 6.99707C4.1308 7.13379 4.12396 7.22266 4.11029 7.26367C4.11029 7.29102 4.11029 7.3252 4.11029 7.36621C4.11029 7.40723 4.11713 7.45508 4.1308 7.50977C4.14447 7.55078 4.15131 7.59863 4.15131 7.65332C4.11029 7.94043 4.11029 8.16602 4.15131 8.33008C4.12396 8.49414 4.11713 8.61719 4.1308 8.69922C4.15814 8.76758 4.17182 8.82227 4.17182 8.86328C4.17182 8.93164 4.16498 8.98633 4.15131 9.02734C4.15131 9.06836 4.15814 9.12305 4.17182 9.19141C4.17182 9.3418 4.17865 9.45117 4.19232 9.51953C4.206 9.58789 4.21283 9.64258 4.21283 9.68359C4.21283 9.73828 4.206 9.79297 4.19232 9.84766C4.19232 9.88867 4.206 9.93652 4.23334 9.99121C4.19232 10.0596 4.18549 10.1621 4.21283 10.2988C4.21283 10.3262 4.21283 10.3672 4.21283 10.4219C4.2265 10.4629 4.24018 10.4971 4.25385 10.5244C4.25385 10.6885 4.25385 10.7705 4.25385 10.7705C4.25385 10.8799 4.24701 10.9414 4.23334 10.9551C4.23334 10.9551 4.23334 10.9688 4.23334 10.9961C4.21967 11.1055 4.21283 11.167 4.21283 11.1807C4.2265 11.1943 4.23334 11.208 4.23334 11.2217C4.206 11.3721 4.19916 11.4541 4.21283 11.4678C4.2265 11.4678 4.23334 11.4746 4.23334 11.4883C4.21967 11.6797 4.21967 11.7959 4.23334 11.8369C4.27435 12.0283 4.29486 12.124 4.29486 12.124C4.30853 12.1787 4.30853 12.2334 4.29486 12.2881C4.29486 12.3428 4.30853 12.3975 4.33588 12.4521C4.39057 12.5752 4.50678 12.6572 4.68451 12.6982C4.80756 12.7256 4.91693 12.7393 5.01264 12.7393C5.10834 12.7256 5.20404 12.7324 5.29975 12.7598L5.60736 12.8213C5.73041 12.8486 5.8056 12.8691 5.83295 12.8828C5.86029 12.8828 5.88764 12.8828 5.91498 12.8828C5.99701 12.8828 6.0517 12.8828 6.07904 12.8828C6.12006 12.8691 6.15424 12.8691 6.18158 12.8828C6.29096 12.8828 6.3935 12.8965 6.4892 12.9238C6.5849 12.9375 6.68744 12.917 6.79682 12.8623C6.8515 12.8896 6.89935 12.8896 6.94037 12.8623C6.99506 12.835 7.04975 12.8213 7.10443 12.8213C7.18646 12.8213 7.24799 12.8213 7.289 12.8213C7.34369 12.8076 7.40521 12.7939 7.47357 12.7803C7.63764 12.7529 7.71967 12.7393 7.71967 12.7393C7.82904 12.6982 7.91107 12.6846 7.96576 12.6982C8.02045 12.6982 8.0683 12.6777 8.10932 12.6367C8.12299 12.4863 8.12982 12.3154 8.12982 12.124C8.1435 11.9326 8.13666 11.748 8.10932 11.5703C8.08197 11.4062 8.0683 11.2559 8.0683 11.1191C8.05463 10.9961 8.04779 10.8799 8.04779 10.7705C8.06146 10.6611 8.06146 10.5449 8.04779 10.4219C8.04779 10.3125 8.04096 10.2373 8.02728 10.1963C8.02728 10.1416 8.02728 10.0869 8.02728 10.0322C8.02728 9.99121 8.02045 9.9502 8.00678 9.90918C8.00678 9.86816 8.01361 9.83398 8.02728 9.80664C8.02728 9.65625 8.02045 9.5332 8.00678 9.4375C7.9931 9.3418 7.98627 9.25293 7.98627 9.1709C7.98627 9.04785 7.97943 8.93164 7.96576 8.82227C7.96576 8.69922 7.95893 8.58301 7.94525 8.47363C7.94525 8.32324 7.93842 8.19336 7.92475 8.08398C7.8974 8.04297 7.89057 7.98828 7.90424 7.91992C7.91791 7.85156 7.92475 7.7832 7.92475 7.71484C7.8974 7.53711 7.87689 7.40039 7.86322 7.30469C7.84955 7.23633 7.83588 7.14746 7.82221 7.03809C7.82221 6.91504 7.82904 6.79883 7.84271 6.68945C7.8017 6.62109 7.78119 6.5459 7.78119 6.46387C7.78119 6.36816 7.77435 6.26562 7.76068 6.15625C7.74701 5.96484 7.73334 5.82812 7.71967 5.74609C7.706 5.66406 7.69916 5.58887 7.69916 5.52051C7.71283 5.43848 7.706 5.37695 7.67865 5.33594C7.66498 5.28125 7.65814 5.24023 7.65814 5.21289C7.64447 5.10352 7.64447 5.03516 7.65814 5.00781C7.67182 4.9668 7.67182 4.93262 7.65814 4.90527L7.57611 4.49512C7.58978 4.29004 7.58978 4.16699 7.57611 4.12598C7.57611 4.07129 7.57611 4.00977 7.57611 3.94141C7.56244 3.81836 7.56244 3.72949 7.57611 3.6748C7.60346 3.60645 7.61029 3.53809 7.59662 3.46973C7.59662 3.42871 7.58978 3.39453 7.57611 3.36719C7.56244 3.32617 7.54877 3.27832 7.5351 3.22363C7.57611 3.15527 7.58295 3.08691 7.5556 3.01855C7.54193 2.9502 7.5351 2.86816 7.5351 2.77246C7.54877 2.69043 7.54193 2.63574 7.51459 2.6084C7.50092 2.58105 7.49408 2.55371 7.49408 2.52637C7.49408 2.44434 7.50092 2.37598 7.51459 2.32129C7.52826 2.2666 7.52143 2.20508 7.49408 2.13672L7.47357 1.84961C7.48725 1.80859 7.50092 1.77441 7.51459 1.74707C7.54193 1.70605 7.5556 1.66504 7.5556 1.62402C7.5556 1.56934 7.54877 1.52148 7.5351 1.48047C7.5351 1.42578 7.54193 1.37109 7.5556 1.31641L7.67865 1.0498C7.76068 0.94043 7.82221 0.885742 7.86322 0.885742C7.90424 0.87207 7.93842 0.851562 7.96576 0.824219C7.9931 0.851562 8.02728 0.858398 8.0683 0.844727C8.10932 0.817383 8.15033 0.796875 8.19135 0.783203C8.21869 0.783203 8.25287 0.790039 8.29389 0.803711C8.3349 0.803711 8.37592 0.803711 8.41693 0.803711C8.55365 0.817383 8.62885 0.824219 8.64252 0.824219C8.66986 0.824219 8.69721 0.817383 8.72455 0.803711C8.77924 0.803711 8.82709 0.810547 8.8681 0.824219C8.92279 0.824219 8.98432 0.824219 9.05268 0.824219C9.10736 0.824219 9.16205 0.824219 9.21674 0.824219C9.2851 0.810547 9.33978 0.810547 9.3808 0.824219C9.59955 0.865234 9.77045 0.885742 9.8935 0.885742C10.0302 0.885742 10.1396 0.913086 10.2216 0.967773C10.2763 0.954102 10.3173 0.94043 10.3447 0.926758C10.3857 0.913086 10.4267 0.899414 10.4677 0.885742C10.5497 0.885742 10.6044 0.892578 10.6318 0.90625C10.6728 0.919922 10.707 0.926758 10.7343 0.926758C10.9531 0.885742 11.0966 0.865234 11.165 0.865234C11.247 0.851562 11.329 0.858398 11.4111 0.885742C11.3974 1.03613 11.3906 1.17285 11.3906 1.2959C11.4042 1.40527 11.4042 1.53516 11.3906 1.68555C11.3769 1.84961 11.3701 1.93848 11.3701 1.95215C11.3837 1.95215 11.3837 1.97266 11.3701 2.01367C11.3564 2.05469 11.3496 2.10938 11.3496 2.17773C11.3496 2.23242 11.3427 2.28027 11.329 2.32129C11.288 2.48535 11.2675 2.60156 11.2675 2.66992C11.2675 2.73828 11.2675 2.81348 11.2675 2.89551C11.2402 3.03223 11.2265 3.13477 11.2265 3.20312C11.2265 3.27148 11.2265 3.32617 11.2265 3.36719C11.2402 3.4082 11.247 3.45605 11.247 3.51074C11.2197 3.63379 11.206 3.70215 11.206 3.71582C11.2197 3.72949 11.2197 3.75684 11.206 3.79785C11.206 3.85254 11.1992 3.90039 11.1855 3.94141C11.1718 3.98242 11.165 4.02344 11.165 4.06445C11.165 4.0918 11.165 4.12598 11.165 4.16699C11.1787 4.20801 11.1855 4.24902 11.1855 4.29004C11.1581 4.39941 11.1445 4.48828 11.1445 4.55664C11.1445 4.625 11.1376 4.68652 11.124 4.74121C11.124 4.78223 11.124 4.83008 11.124 4.88477C11.124 5.02148 11.124 5.15137 11.124 5.27441C11.1376 5.39746 11.1376 5.51367 11.124 5.62305C11.124 5.69141 11.1035 5.7666 11.0624 5.84863C11.0761 5.90332 11.0761 5.95801 11.0624 6.0127C11.0624 6.05371 11.0693 6.09473 11.0829 6.13574C11.1103 6.39551 11.1103 6.59375 11.0829 6.73047C11.0693 6.86719 11.0761 6.99707 11.1035 7.12012C11.1035 7.31152 11.1103 7.42773 11.124 7.46875C11.1376 7.50977 11.1445 7.55762 11.1445 7.6123C11.1445 7.74902 11.1445 7.83105 11.1445 7.8584C11.1581 7.87207 11.1718 7.89258 11.1855 7.91992C11.1718 8.01562 11.165 8.09082 11.165 8.14551C11.1787 8.18652 11.1855 8.2207 11.1855 8.24805C11.1992 8.33008 11.1992 8.41211 11.1855 8.49414C11.1855 8.61719 11.1992 8.7334 11.2265 8.84277C11.2538 9.00684 11.2675 9.19824 11.2675 9.41699C11.2675 9.62207 11.2607 9.81348 11.247 9.99121C11.2333 10.0596 11.2402 10.1621 11.2675 10.2988V10.6064C11.2949 10.7842 11.3085 10.9004 11.3085 10.9551C11.3085 11.0234 11.3017 11.0986 11.288 11.1807C11.2744 11.249 11.2675 11.3105 11.2675 11.3652C11.2949 11.5156 11.3017 11.6318 11.288 11.7139C11.288 11.7822 11.288 11.8643 11.288 11.96C11.288 12.0557 11.2949 12.1445 11.3085 12.2266C11.3222 12.2949 11.329 12.3633 11.329 12.4316C11.3154 12.5137 11.3222 12.6025 11.3496 12.6982V13.0059C11.3632 13.0742 11.3701 13.1494 11.3701 13.2314C11.3701 13.2998 11.3769 13.3818 11.3906 13.4775C11.3906 13.6963 11.4111 13.8535 11.4521 13.9492C11.4931 14.0449 11.5136 14.1543 11.5136 14.2773C11.4999 14.3594 11.4863 14.4688 11.4726 14.6055C11.4726 14.7285 11.4863 14.8447 11.5136 14.9541C11.541 15.1182 11.5546 15.2412 11.5546 15.3232C11.5546 15.3916 11.5546 15.46 11.5546 15.5283C11.5683 15.5693 11.582 15.6104 11.5956 15.6514C11.6093 15.6924 11.6162 15.7334 11.6162 15.7744C11.5204 15.8564 11.4589 15.9043 11.4316 15.918C11.4042 15.918 11.3769 15.9316 11.3496 15.959C11.2128 16 11.124 16.0273 11.0829 16.041C11.0419 16.0684 10.9941 16.0889 10.9394 16.1025C10.83 16.1299 10.7685 16.1436 10.7548 16.1436C10.7412 16.1572 10.7206 16.1709 10.6933 16.1846C10.5429 16.2119 10.4472 16.2188 10.4062 16.2051C10.3652 16.2051 10.3242 16.2119 10.2831 16.2256C10.1874 16.2529 10.0986 16.2734 10.0165 16.2871C9.93451 16.3145 9.85248 16.3418 9.77045 16.3691C9.70209 16.3828 9.63373 16.3896 9.56537 16.3896C9.51068 16.3896 9.44916 16.3965 9.3808 16.4102C9.20307 16.4648 9.07318 16.4922 8.99115 16.4922C8.84076 16.4648 8.75873 16.4512 8.74506 16.4512C8.74506 16.4648 8.73822 16.4717 8.72455 16.4717C8.64252 16.4443 8.59467 16.4102 8.581 16.3691C8.581 16.3418 8.57416 16.3145 8.56049 16.2871C8.49213 16.1504 8.45111 16.0752 8.43744 16.0615C8.43744 16.0615 8.43744 16.0547 8.43744 16.041C8.38275 16.0137 8.35541 15.9795 8.35541 15.9385C8.36908 15.8975 8.36225 15.8633 8.3349 15.8359C8.26654 15.6855 8.23236 15.6035 8.23236 15.5898C8.20502 15.4941 8.19135 15.4053 8.19135 15.3232C8.19135 15.2412 8.18451 15.1592 8.17084 15.0771C8.00678 15.1182 7.92475 15.1523 7.92475 15.1797C7.92475 15.1934 7.91107 15.2002 7.88373 15.2002C7.77435 15.2686 7.706 15.3164 7.67865 15.3438C7.66498 15.3574 7.64447 15.3779 7.61713 15.4053C7.57611 15.4326 7.50092 15.4736 7.39154 15.5283C7.28217 15.6104 7.22064 15.6514 7.20697 15.6514C7.1933 15.6377 7.17279 15.6309 7.14545 15.6309C7.03607 15.6992 6.97455 15.7334 6.96088 15.7334C6.94721 15.7334 6.93353 15.7402 6.91986 15.7539C6.81049 15.8086 6.72846 15.8428 6.67377 15.8564C6.61908 15.8564 6.57123 15.8633 6.53021 15.877C6.43451 15.9453 6.37982 15.9795 6.36615 15.9795C6.35248 15.9795 6.33881 15.9863 6.32514 16C6.22943 16.041 6.15424 16.0615 6.09955 16.0615C6.04486 16.0615 6.00385 16.082 5.9765 16.123C5.81244 16.1367 5.70307 16.1436 5.64838 16.1436C5.59369 16.1572 5.55268 16.1777 5.52533 16.2051C5.49799 16.1914 5.45697 16.1914 5.40228 16.2051C5.36127 16.2188 5.31342 16.2188 5.25873 16.2051C5.13568 16.2051 5.02631 16.1846 4.9306 16.1436C4.76654 16.1025 4.67084 16.0752 4.6435 16.0615C4.61615 16.0615 4.58881 16.0547 4.56146 16.041C4.4931 16 4.43158 15.9863 4.37689 16C4.33588 16 4.29486 15.9932 4.25385 15.9795C4.18549 15.9658 4.11713 15.9453 4.04877 15.918C3.99408 15.877 3.93939 15.8701 3.88471 15.8975C3.73432 15.8291 3.63861 15.7949 3.5976 15.7949C3.55658 15.7949 3.51557 15.7881 3.47455 15.7744C3.26947 15.6924 3.12592 15.6514 3.04389 15.6514C2.97553 15.6514 2.8935 15.6377 2.79779 15.6104C2.6474 15.5557 2.56537 15.5283 2.5517 15.5283C2.5517 15.5146 2.54486 15.5078 2.53119 15.5078C2.44916 15.4531 2.37396 15.4189 2.3056 15.4053C2.25092 15.3916 2.19623 15.3779 2.14154 15.3643C1.99115 15.3232 1.90912 15.2959 1.89545 15.2822C1.89545 15.2686 1.88178 15.2549 1.85443 15.2412C1.74506 15.1865 1.6767 15.1523 1.64935 15.1387C1.48529 15.043 1.38275 14.9883 1.34174 14.9746C1.31439 14.9473 1.28705 14.9199 1.25971 14.8926C1.164 14.8516 1.08881 14.8174 1.03412 14.79C0.897402 14.6396 0.801699 14.5371 0.747011 14.4824C0.692324 14.4141 0.651308 14.3457 0.623964 14.2773C0.623964 14.168 0.623964 14.0996 0.623964 14.0723C0.637636 14.0312 0.637636 13.9902 0.623964 13.9492C0.623964 13.7715 0.610292 13.6416 0.582949 13.5596L0.603456 13.2314C0.589785 12.9854 0.596621 12.7393 0.623964 12.4932C0.623964 12.4521 0.623964 12.4111 0.623964 12.3701C0.623964 12.3291 0.623964 12.2949 0.623964 12.2676C0.623964 12.1309 0.6308 12.042 0.644472 12.001C0.658144 11.9463 0.66498 11.8848 0.66498 11.8164C0.66498 11.6523 0.678652 11.5156 0.705996 11.4062C0.719667 11.3652 0.719667 11.2969 0.705996 11.2012C0.705996 11.0918 0.712831 11.0098 0.726503 10.9551C0.740175 10.7773 0.753847 10.668 0.767519 10.627C0.781191 10.5859 0.788027 10.5449 0.788027 10.5039C0.788027 10.3535 0.781191 10.2646 0.767519 10.2373C0.767519 10.1963 0.781191 10.1621 0.808535 10.1348C0.781191 10.1074 0.767519 10.0596 0.767519 9.99121C0.781191 9.90918 0.774355 9.84082 0.747011 9.78613C0.774355 9.63574 0.781191 9.5332 0.767519 9.47852C0.767519 9.41016 0.760683 9.3623 0.747011 9.33496C0.733339 9.23926 0.726503 9.17773 0.726503 9.15039C0.740175 9.10938 0.747011 9.06836 0.747011 9.02734L0.726503 8.57617C0.685488 8.35742 0.66498 8.20703 0.66498 8.125C0.678652 8.0293 0.678652 7.93359 0.66498 7.83789C0.66498 7.76953 0.658144 7.70801 0.644472 7.65332C0.644472 7.58496 0.644472 7.5166 0.644472 7.44824V7.18164C0.6308 7.12695 0.623964 7.0791 0.623964 7.03809C0.623964 6.99707 0.610292 6.95605 0.582949 6.91504L0.603456 6.50488C0.617128 6.40918 0.623964 6.32715 0.623964 6.25879C0.637636 6.19043 0.644472 6.12207 0.644472 6.05371C0.644472 6.0127 0.6308 5.96484 0.603456 5.91016C0.589785 5.8418 0.582949 5.78027 0.582949 5.72559C0.582949 5.68457 0.582949 5.62305 0.582949 5.54102C0.596621 5.44531 0.596621 5.36328 0.582949 5.29492C0.582949 5.24023 0.576113 5.19238 0.562441 5.15137C0.548769 5.11035 0.541933 5.05566 0.541933 4.9873C0.514589 4.91895 0.507753 4.84375 0.521425 4.76172C0.548769 4.67969 0.562441 4.59766 0.562441 4.51562C0.521425 4.40625 0.507753 4.34473 0.521425 4.33105C0.535097 4.31738 0.541933 4.30371 0.541933 4.29004C0.541933 4.12598 0.535097 4.00293 0.521425 3.9209C0.521425 3.8252 0.500917 3.74316 0.459902 3.6748C0.459902 3.52441 0.453066 3.44922 0.439394 3.44922C0.439394 3.44922 0.439394 3.44238 0.439394 3.42871C0.439394 3.26465 0.432558 3.16211 0.418886 3.12109C0.418886 3.06641 0.41205 3.01855 0.398378 2.97754C0.384706 2.89551 0.377871 2.82031 0.377871 2.75195C0.377871 2.66992 0.377871 2.59473 0.377871 2.52637L0.357363 2.23926C0.343691 2.1709 0.336855 2.11621 0.336855 2.0752C0.336855 2.02051 0.323183 1.97266 0.295839 1.93164C0.268496 1.76758 0.268496 1.61035 0.295839 1.45996C0.323183 1.30957 0.309511 1.17969 0.254824 1.07031C0.295839 0.960938 0.323183 0.892578 0.336855 0.865234C0.364199 0.837891 0.391542 0.810547 0.418886 0.783203C0.500917 0.701172 0.555605 0.639648 0.582949 0.598633C0.692324 0.598633 0.781191 0.591797 0.84955 0.578125C0.91791 0.550781 0.986269 0.564453 1.05463 0.619141C1.21869 0.619141 1.30756 0.619141 1.32123 0.619141C1.3349 0.605469 1.34857 0.598633 1.36225 0.598633C1.51264 0.612305 1.6015 0.619141 1.62885 0.619141C1.65619 0.619141 1.68353 0.632812 1.71088 0.660156C1.79291 0.646484 1.86127 0.65332 1.91596 0.680664C1.98432 0.694336 2.06635 0.701172 2.16205 0.701172C2.32611 0.6875 2.456 0.6875 2.5517 0.701172C2.66107 0.714844 2.75678 0.714844 2.83881 0.701172C3.03021 0.728516 3.15326 0.742188 3.20795 0.742188C3.26264 0.728516 3.31732 0.714844 3.37201 0.701172C3.41303 0.701172 3.45404 0.708008 3.49506 0.72168C3.54975 0.735352 3.5976 0.728516 3.63861 0.701172C3.81635 0.714844 3.93939 0.728516 4.00775 0.742188C4.08978 0.755859 4.16498 0.755859 4.23334 0.742188L4.37689 0.824219ZM15.5266 9.35547C15.5949 9.25977 15.6018 9.14355 15.5471 9.00684C15.5197 8.91113 15.5129 8.85645 15.5266 8.84277C15.5403 8.8291 15.5403 8.80859 15.5266 8.78125C15.5129 8.67188 15.5129 8.59668 15.5266 8.55566C15.5403 8.50098 15.5403 8.44629 15.5266 8.3916C15.5266 8.28223 15.5266 8.22754 15.5266 8.22754C15.5403 8.21387 15.5471 8.19336 15.5471 8.16602C15.5471 8.08398 15.5403 8.03613 15.5266 8.02246C15.5266 7.99512 15.5266 7.96777 15.5266 7.94043C15.5403 7.83105 15.5403 7.76953 15.5266 7.75586C15.5266 7.74219 15.5266 7.72852 15.5266 7.71484V7.36621C15.5266 7.21582 15.5266 7.09961 15.5266 7.01758C15.5403 6.83984 15.5403 6.72363 15.5266 6.66895C15.5129 6.60059 15.5129 6.53906 15.5266 6.48438C15.5129 6.33398 15.5061 6.21777 15.5061 6.13574C15.5061 6.04004 15.5061 5.96484 15.5061 5.91016C15.5197 5.67773 15.5197 5.50684 15.5061 5.39746C15.5061 5.28809 15.5129 5.19922 15.5266 5.13086C15.5539 5.00781 15.5539 4.87109 15.5266 4.7207C15.5266 4.65234 15.5266 4.58398 15.5266 4.51562C15.5403 4.44727 15.5403 4.37891 15.5266 4.31055C15.5129 4.16016 15.5129 4.07129 15.5266 4.04395C15.5129 3.96191 15.4992 3.90723 15.4856 3.87988C15.4719 3.85254 15.4651 3.8252 15.4651 3.79785C15.4651 3.72949 15.4651 3.6748 15.4651 3.63379C15.4787 3.5791 15.4787 3.53125 15.4651 3.49023C15.4651 3.39453 15.4582 3.33301 15.4446 3.30566C15.4309 3.27832 15.424 3.25098 15.424 3.22363C15.3967 3.07324 15.383 2.9707 15.383 2.91602C15.3694 2.69727 15.3625 2.51953 15.3625 2.38281C15.3762 2.24609 15.3694 2.12305 15.342 2.01367C15.342 1.97266 15.3352 1.93164 15.3215 1.89062C15.3078 1.84961 15.301 1.80859 15.301 1.76758C15.301 1.71289 15.301 1.6582 15.301 1.60352C15.3147 1.53516 15.3283 1.4668 15.342 1.39844C15.3694 1.33008 15.383 1.26855 15.383 1.21387C15.3967 1.14551 15.4172 1.09766 15.4446 1.07031C15.5676 1.00195 15.6223 0.960938 15.6086 0.947266C15.6086 0.919922 15.6223 0.899414 15.6496 0.885742C15.6906 0.87207 15.7248 0.851562 15.7522 0.824219C15.7795 0.796875 15.8137 0.769531 15.8547 0.742188C15.9914 0.728516 16.0598 0.72168 16.0598 0.72168C16.0735 0.708008 16.094 0.701172 16.1213 0.701172C16.2033 0.714844 16.2717 0.72168 16.3264 0.72168C16.3947 0.708008 16.4563 0.714844 16.511 0.742188C16.5383 0.714844 16.5725 0.708008 16.6135 0.72168C16.6545 0.72168 16.7024 0.72168 16.7571 0.72168H17.0237C17.0783 0.776367 17.133 0.803711 17.1877 0.803711C17.2424 0.803711 17.3039 0.803711 17.3723 0.803711C17.5227 0.817383 17.6457 0.810547 17.7414 0.783203C17.8371 0.755859 17.9328 0.742188 18.0285 0.742188C18.0969 0.742188 18.1584 0.749023 18.2131 0.762695C18.2678 0.776367 18.3156 0.769531 18.3567 0.742188C18.4113 0.769531 18.4729 0.783203 18.5412 0.783203C18.6233 0.783203 18.6985 0.790039 18.7668 0.803711C18.9035 0.831055 19.0334 0.831055 19.1565 0.803711H19.3821C19.4504 0.803711 19.5119 0.810547 19.5666 0.824219C19.635 0.824219 19.7033 0.824219 19.7717 0.824219C19.9358 0.810547 20.0178 0.803711 20.0178 0.803711C20.0725 0.803711 20.1272 0.803711 20.1819 0.803711C20.2502 0.803711 20.3254 0.810547 20.4074 0.824219C20.5715 0.837891 20.6535 0.851562 20.6535 0.865234C20.6672 0.865234 20.6809 0.865234 20.6946 0.865234C20.7356 0.865234 20.7834 0.865234 20.8381 0.865234C20.8928 0.851562 20.9338 0.858398 20.9612 0.885742C21.1252 0.87207 21.2141 0.87207 21.2278 0.885742C21.2551 0.885742 21.2824 0.885742 21.3098 0.885742L21.6584 0.947266C21.7815 0.947266 21.8498 0.954102 21.8635 0.967773C21.8772 0.981445 21.8977 0.981445 21.925 0.967773C22.0344 1.03613 22.1028 1.07031 22.1301 1.07031C22.1574 1.05664 22.1848 1.05664 22.2121 1.07031C22.2668 1.09766 22.3078 1.13184 22.3352 1.17285C22.3762 1.2002 22.4172 1.20703 22.4582 1.19336C22.5539 1.28906 22.6018 1.33008 22.6018 1.31641C22.6018 1.30273 22.6154 1.30957 22.6428 1.33691C22.6838 1.3916 22.718 1.42578 22.7453 1.43945C22.7727 1.45312 22.8 1.4668 22.8274 1.48047C22.9094 1.57617 22.9572 1.63086 22.9709 1.64453C22.9846 1.64453 22.9914 1.6582 22.9914 1.68555C23.1281 1.79492 23.1965 1.84961 23.1965 1.84961C23.2785 1.9043 23.3332 1.95215 23.3606 1.99316C23.3879 2.03418 23.4358 2.05469 23.5041 2.05469C23.5725 2.17773 23.634 2.23926 23.6887 2.23926C23.6887 2.28027 23.7024 2.31445 23.7297 2.3418C23.7707 2.35547 23.7912 2.39648 23.7912 2.46484C23.8733 2.51953 23.9348 2.56738 23.9758 2.6084C24.0305 2.67676 24.0852 2.73828 24.1399 2.79297L24.2834 2.97754C24.3654 3.07324 24.4133 3.13477 24.427 3.16211C24.468 3.2168 24.5022 3.27832 24.5295 3.34668C24.5705 3.40137 24.591 3.45605 24.591 3.51074C24.6594 3.5791 24.7004 3.64746 24.7141 3.71582C24.7961 3.85254 24.844 3.92773 24.8576 3.94141C24.8713 3.94141 24.885 3.95508 24.8987 3.98242C24.9397 4.07812 24.967 4.13281 24.9807 4.14648C24.9944 4.16016 25.0149 4.18066 25.0422 4.20801C25.1516 4.31738 25.2063 4.37891 25.2063 4.39258C25.2199 4.40625 25.2404 4.40625 25.2678 4.39258C25.2815 4.44727 25.2951 4.50195 25.3088 4.55664C25.3362 4.59766 25.3635 4.64551 25.3908 4.7002C25.4592 4.83691 25.5002 4.93262 25.5139 4.9873C25.5412 5.02832 25.5822 5.0625 25.6369 5.08984C25.6643 5.21289 25.7121 5.31543 25.7805 5.39746C25.8625 5.46582 25.9172 5.5752 25.9446 5.72559C25.9719 5.7666 25.9924 5.81445 26.0061 5.86914C26.0334 5.91016 26.0608 5.95801 26.0881 6.0127C26.1565 6.12207 26.1838 6.18359 26.1701 6.19727C26.1701 6.21094 26.177 6.22461 26.1906 6.23828L26.3137 6.48438C26.3821 6.58008 26.4162 6.64844 26.4162 6.68945C26.4162 6.73047 26.4299 6.77832 26.4572 6.83301C26.4983 6.92871 26.5256 6.99707 26.5393 7.03809C26.5529 7.0791 26.5666 7.12695 26.5803 7.18164C26.6076 7.23633 26.6213 7.29102 26.6213 7.3457C26.635 7.38672 26.6487 7.42773 26.6623 7.46875C26.717 7.63281 26.758 7.72852 26.7854 7.75586C26.799 7.79688 26.7922 7.83789 26.7649 7.87891C26.7375 7.90625 26.7375 7.94043 26.7649 7.98145C26.7922 8.06348 26.8059 8.11816 26.8059 8.14551C26.8196 8.15918 26.8264 8.17969 26.8264 8.20703C26.8401 8.24805 26.8537 8.2959 26.8674 8.35059C26.8947 8.40527 26.9084 8.45312 26.9084 8.49414C26.8811 8.6582 26.8742 8.76758 26.8879 8.82227C26.9016 8.87695 26.8811 8.91797 26.8264 8.94531C26.8537 9.04102 26.8674 9.12305 26.8674 9.19141C26.8811 9.24609 26.8742 9.32129 26.8469 9.41699C26.8059 9.54004 26.7717 9.6084 26.7444 9.62207C26.7307 9.62207 26.717 9.63574 26.7033 9.66309C26.6623 9.77246 26.635 9.84082 26.6213 9.86816C26.6213 9.88184 26.6145 9.89551 26.6008 9.90918C26.5598 9.96387 26.5256 10.0459 26.4983 10.1553C26.4709 10.1826 26.4436 10.2168 26.4162 10.2578C26.3889 10.2988 26.3821 10.3535 26.3957 10.4219C26.3274 10.5996 26.259 10.7432 26.1906 10.8525C26.0949 11.0029 26.0403 11.1123 26.0266 11.1807C26.0266 11.2354 26.0129 11.2832 25.9856 11.3242L25.8625 11.5293C25.7668 11.666 25.7053 11.7686 25.6779 11.8369C25.6643 11.8916 25.6438 11.9531 25.6164 12.0215C25.5617 12.1445 25.5276 12.2266 25.5139 12.2676C25.5002 12.3086 25.4797 12.3564 25.4524 12.4111C25.425 12.4795 25.3977 12.541 25.3703 12.5957C25.343 12.6504 25.3156 12.7119 25.2883 12.7803C25.2199 12.8076 25.1721 12.876 25.1447 12.9854C25.0627 13.0264 25.0012 13.1084 24.9602 13.2314C24.9055 13.2588 24.8645 13.2998 24.8371 13.3545C24.8235 13.3955 24.7961 13.4434 24.7551 13.498C24.6594 13.6074 24.6047 13.6689 24.591 13.6826C24.591 13.6826 24.5842 13.6826 24.5705 13.6826C24.5432 13.71 24.5158 13.751 24.4885 13.8057C24.4748 13.8467 24.4475 13.8809 24.4065 13.9082C24.3244 14.0176 24.2834 14.0859 24.2834 14.1133C24.133 14.25 24.0442 14.3389 24.0168 14.3799C23.9621 14.4346 23.9143 14.4824 23.8733 14.5234C23.8322 14.5508 23.7981 14.5986 23.7707 14.667C23.6613 14.749 23.593 14.8242 23.5656 14.8926C23.4699 14.9746 23.4016 15.0293 23.3606 15.0566C23.3196 15.0703 23.2854 15.1045 23.258 15.1592C23.2033 15.1592 23.1623 15.1729 23.135 15.2002C23.1076 15.2275 23.0803 15.2549 23.0529 15.2822C22.9299 15.3643 22.8479 15.3984 22.8069 15.3848L22.6838 15.5898C22.6154 15.6445 22.5608 15.6719 22.5197 15.6719C22.4924 15.6719 22.4651 15.6855 22.4377 15.7129C22.383 15.7676 22.3283 15.8223 22.2737 15.877L22.0891 16.0205C21.966 16.0615 21.8567 16.082 21.761 16.082C21.6379 16.1094 21.5627 16.1162 21.5354 16.1025C21.508 16.0889 21.4807 16.082 21.4533 16.082C21.3029 16.0957 21.2072 16.0957 21.1662 16.082C21.1389 16.0684 21.1047 16.0547 21.0637 16.041C21.0227 16.041 20.9475 16.0547 20.8381 16.082C20.7561 16.0547 20.674 16.0479 20.592 16.0615C20.51 16.0752 20.4211 16.0684 20.3254 16.041C20.1887 16.0273 20.0656 16.0205 19.9563 16.0205C19.8606 16.0342 19.7854 16.0273 19.7307 16C19.676 16.0137 19.6213 16.0205 19.5666 16.0205C19.5256 16.0342 19.4709 16.041 19.4026 16.041C19.3069 16.0273 19.2453 16.0273 19.218 16.041C19.2043 16.0547 19.1838 16.0615 19.1565 16.0615C19.0061 16.0615 18.924 16.0684 18.9104 16.082C18.8967 16.0957 18.8762 16.1025 18.8488 16.1025C18.6985 16.1025 18.5959 16.1162 18.5412 16.1436C18.4865 16.1299 18.425 16.123 18.3567 16.123C18.2883 16.123 18.2199 16.1299 18.1516 16.1436C17.9875 16.1709 17.8781 16.1777 17.8235 16.1641C17.7688 16.1641 17.7072 16.1641 17.6389 16.1641C17.5022 16.1777 17.4133 16.1777 17.3723 16.1641C17.3449 16.1641 17.3176 16.1777 17.2903 16.2051C17.2082 16.1504 17.1057 16.1504 16.9826 16.2051C16.8596 16.2598 16.7639 16.2529 16.6955 16.1846C16.6545 16.2119 16.593 16.2188 16.511 16.2051C16.4426 16.1914 16.3742 16.1846 16.3059 16.1846C16.1965 16.1982 16.1145 16.1914 16.0598 16.1641C15.8684 16.0684 15.7727 16.0137 15.7727 16C15.7727 15.9727 15.7658 15.9248 15.7522 15.8564C15.7248 15.7334 15.718 15.665 15.7317 15.6514C15.7453 15.6377 15.7522 15.6172 15.7522 15.5898V15.3438C15.7522 15.2891 15.7522 15.2275 15.7522 15.1592C15.7658 15.0908 15.7795 15.0156 15.7932 14.9336C15.8342 14.7148 15.8479 14.5645 15.8342 14.4824C15.8342 14.4004 15.841 14.3184 15.8547 14.2363C15.8821 14.0586 15.8889 13.9492 15.8752 13.9082C15.8615 13.7852 15.8547 13.7168 15.8547 13.7031C15.8684 13.6895 15.8752 13.6689 15.8752 13.6416C15.8752 13.5322 15.8684 13.4707 15.8547 13.457C15.841 13.4297 15.8342 13.4023 15.8342 13.375C15.8615 13.2246 15.8684 13.1494 15.8547 13.1494C15.841 13.1357 15.8342 13.1152 15.8342 13.0879C15.8342 13.0059 15.8205 12.9238 15.7932 12.8418V12.5957C15.7795 12.4043 15.7658 12.2812 15.7522 12.2266C15.7112 12.0762 15.6906 11.9668 15.6906 11.8984C15.7043 11.8164 15.7112 11.748 15.7112 11.6934C15.6975 11.584 15.6975 11.4678 15.7112 11.3447C15.7112 11.3037 15.7043 11.2422 15.6906 11.1602C15.677 11.0781 15.6701 11.0029 15.6701 10.9346C15.6565 10.7705 15.6428 10.6816 15.6291 10.668C15.6291 10.6543 15.6291 10.6338 15.6291 10.6064V10.2578C15.6018 10.1484 15.5881 10.0869 15.5881 10.0732C15.6018 10.0459 15.6086 10.0186 15.6086 9.99121C15.5949 9.81348 15.5949 9.68359 15.6086 9.60156C15.6223 9.50586 15.5949 9.42383 15.5266 9.35547ZM19.8742 13.9902C19.9836 14.0039 20.0588 13.9971 20.0998 13.9697C20.1545 13.9424 20.2024 13.915 20.2434 13.8877C20.3664 13.7783 20.4143 13.7168 20.3869 13.7031C20.3733 13.6895 20.3801 13.6826 20.4074 13.6826C20.5578 13.5459 20.6467 13.4639 20.674 13.4365C20.7151 13.3955 20.7492 13.3613 20.7766 13.334C20.886 13.1973 20.9543 13.1152 20.9817 13.0879C21.0227 13.0469 21.0569 13.0059 21.0842 12.9648C21.1389 12.8828 21.1799 12.8076 21.2072 12.7393C21.2483 12.6572 21.3029 12.5889 21.3713 12.5342C21.3713 12.4658 21.3781 12.4111 21.3918 12.3701C21.4192 12.3291 21.4465 12.2949 21.4738 12.2676C21.5149 12.1582 21.5422 12.1035 21.5559 12.1035C21.5832 12.1035 21.6037 12.0967 21.6174 12.083C21.6174 12.0146 21.6584 11.9395 21.7404 11.8574C21.7815 11.7891 21.8156 11.7275 21.843 11.6729C21.884 11.6045 21.9182 11.543 21.9455 11.4883C21.9865 11.4062 22.0276 11.3242 22.0686 11.2422C22.1233 11.1465 22.1643 11.0645 22.1916 10.9961L22.2942 10.791C22.3625 10.627 22.4172 10.5244 22.4582 10.4834C22.5266 10.2783 22.5881 10.1143 22.6428 9.99121C22.6975 9.86816 22.7522 9.75195 22.8069 9.64258L22.9709 9.47852C22.9983 9.41016 23.0051 9.3418 22.9914 9.27344C22.9914 9.20508 22.9983 9.15723 23.0119 9.12988C23.0393 9.03418 23.0598 8.97949 23.0735 8.96582C23.0871 8.95215 23.094 8.93164 23.094 8.9043C23.1213 8.83594 23.1281 8.78125 23.1145 8.74023C23.1145 8.69922 23.1145 8.6582 23.1145 8.61719C23.1008 8.53516 23.0871 8.45996 23.0735 8.3916C23.0735 8.32324 23.0803 8.25488 23.094 8.18652C23.0393 8.06348 23.0119 7.98145 23.0119 7.94043C23.0119 7.89941 23.0051 7.86523 22.9914 7.83789C22.9778 7.81055 22.9572 7.77637 22.9299 7.73535C22.9162 7.68066 22.9026 7.63965 22.8889 7.6123C22.8342 7.48926 22.8 7.4209 22.7863 7.40723C22.7043 7.29785 22.6565 7.22266 22.6428 7.18164C22.6428 7.14062 22.636 7.10645 22.6223 7.0791C22.5539 6.9834 22.5129 6.92188 22.4992 6.89453C22.4856 6.85352 22.4719 6.81934 22.4582 6.79199C22.3899 6.62793 22.3557 6.53223 22.3557 6.50488C22.2873 6.36816 22.2463 6.29297 22.2326 6.2793C22.2326 6.25195 22.2258 6.22461 22.2121 6.19727C22.1301 6.06055 22.0822 5.99219 22.0686 5.99219C22.0549 5.97852 22.0412 5.96484 22.0276 5.95117C21.9865 5.8418 21.9524 5.77344 21.925 5.74609C21.843 5.58203 21.7951 5.49316 21.7815 5.47949C21.6584 5.34277 21.5832 5.2334 21.5559 5.15137C21.4738 5.01465 21.4055 4.91211 21.3508 4.84375C21.3098 4.77539 21.2756 4.7002 21.2483 4.61816L21.0842 4.43359C21.0158 4.33789 20.968 4.2627 20.9406 4.20801C20.8586 4.07129 20.8039 3.98242 20.7766 3.94141C20.6672 3.80469 20.592 3.72266 20.551 3.69531C20.5237 3.6543 20.4963 3.62012 20.469 3.59277C20.2092 3.37402 20.0178 3.20312 19.8947 3.08008C19.7717 3.03906 19.6965 3.01855 19.6692 3.01855C19.6418 3.00488 19.6281 2.99121 19.6281 2.97754C19.5188 2.92285 19.4299 2.89551 19.3615 2.89551C19.3069 2.96387 19.2658 2.99805 19.2385 2.99805C19.2112 2.99805 19.1906 3.01855 19.177 3.05957C19.177 3.22363 19.1701 3.31934 19.1565 3.34668C19.1565 3.36035 19.1565 3.38086 19.1565 3.4082C19.1565 3.54492 19.1565 3.63379 19.1565 3.6748C19.1701 3.70215 19.1633 3.72949 19.136 3.75684C19.136 3.87988 19.136 3.97559 19.136 4.04395C19.1496 4.1123 19.1496 4.18066 19.136 4.24902V4.57715C19.1223 4.65918 19.1154 4.73438 19.1154 4.80273C19.1291 4.85742 19.136 4.91895 19.136 4.9873C19.136 5.04199 19.136 5.10352 19.136 5.17188C19.1496 5.22656 19.1496 5.27441 19.136 5.31543C19.1223 5.47949 19.1223 5.5752 19.136 5.60254C19.1086 5.7666 19.1018 5.90332 19.1154 6.0127C19.1428 6.1084 19.1633 6.21094 19.177 6.32031C19.1633 6.58008 19.1565 6.77148 19.1565 6.89453C19.1701 7.01758 19.1701 7.13379 19.1565 7.24316C19.1154 7.54395 19.1086 7.77637 19.136 7.94043C19.136 8.09082 19.136 8.17285 19.136 8.18652C19.1496 8.18652 19.1496 8.2002 19.136 8.22754C19.1086 8.37793 19.0949 8.50781 19.0949 8.61719C19.1086 8.72656 19.1154 8.8291 19.1154 8.9248C19.1154 8.96582 19.1086 9.00684 19.0949 9.04785C19.0949 9.08887 19.0949 9.12988 19.0949 9.1709C19.0949 9.2666 19.1018 9.37598 19.1154 9.49902C19.1428 9.62207 19.1565 9.73145 19.1565 9.82715C19.1565 9.93652 19.1565 10.0117 19.1565 10.0527C19.1701 10.0938 19.1838 10.1416 19.1975 10.1963L19.177 10.4629C19.177 10.5039 19.177 10.5449 19.177 10.5859C19.1906 10.6133 19.2043 10.6475 19.218 10.6885C19.218 10.7295 19.218 10.7705 19.218 10.8115C19.218 10.8525 19.2317 10.8867 19.259 10.9141C19.2317 11.0098 19.218 11.0645 19.218 11.0781C19.2317 11.0918 19.2385 11.1123 19.2385 11.1396C19.2522 11.3721 19.259 11.5156 19.259 11.5703C19.2727 11.6387 19.2727 11.7139 19.259 11.7959C19.259 11.8779 19.2658 11.9531 19.2795 12.0215C19.2795 12.0762 19.2863 12.1309 19.3 12.1855C19.3137 12.2266 19.3205 12.2607 19.3205 12.2881C19.3205 12.3701 19.3137 12.4453 19.3 12.5137C19.2863 12.582 19.3 12.6504 19.341 12.7188C19.3274 12.8965 19.3205 13.0127 19.3205 13.0674C19.3205 13.1084 19.3342 13.1426 19.3615 13.1699C19.3205 13.2109 19.3137 13.2725 19.341 13.3545C19.3684 13.4365 19.3821 13.5049 19.3821 13.5596C19.4094 13.71 19.4231 13.8262 19.4231 13.9082C19.4914 13.9355 19.5598 13.9561 19.6281 13.9697C19.7102 13.9834 19.7922 13.9902 19.8742 13.9902ZM30.1216 0.783203C30.2856 0.755859 30.4292 0.728516 30.5522 0.701172C30.6616 0.660156 30.7231 0.646484 30.7368 0.660156C30.7505 0.660156 30.7642 0.660156 30.7778 0.660156C30.9419 0.632812 31.0444 0.625977 31.0854 0.639648C31.1401 0.65332 31.188 0.660156 31.229 0.660156C31.27 0.6875 31.311 0.694336 31.3521 0.680664C31.4067 0.666992 31.4546 0.65332 31.4956 0.639648C31.5503 0.65332 31.6255 0.660156 31.7212 0.660156C31.8169 0.646484 31.8853 0.639648 31.9263 0.639648C32.1177 0.639648 32.2612 0.632812 32.3569 0.619141C32.4526 0.591797 32.5483 0.591797 32.644 0.619141C32.8354 0.591797 32.9448 0.584961 32.9722 0.598633C33.0132 0.612305 33.0474 0.625977 33.0747 0.639648C33.2114 0.639648 33.3003 0.660156 33.3413 0.701172C33.437 0.673828 33.5054 0.660156 33.5464 0.660156C33.5874 0.660156 33.6284 0.673828 33.6694 0.701172C33.8608 0.728516 34.0044 0.755859 34.1001 0.783203C34.2231 0.90625 34.2915 1.01562 34.3052 1.11133C34.3188 1.20703 34.3257 1.30957 34.3257 1.41895C34.3257 1.58301 34.312 1.67871 34.2847 1.70605V2.01367C34.271 2.06836 34.2573 2.12305 34.2437 2.17773C34.23 2.21875 34.2163 2.2666 34.2026 2.32129C34.2026 2.3623 34.2095 2.40332 34.2231 2.44434C34.2368 2.47168 34.2368 2.50586 34.2231 2.54688C34.2231 2.65625 34.2095 2.75195 34.1821 2.83398C34.1685 2.90234 34.1616 2.9707 34.1616 3.03906C34.1616 3.09375 34.1616 3.1416 34.1616 3.18262C34.1753 3.20996 34.1616 3.25781 34.1206 3.32617C34.1206 3.43555 34.1138 3.52441 34.1001 3.59277C34.0864 3.64746 34.0659 3.72266 34.0386 3.81836C34.0112 3.92773 33.9976 4.0166 33.9976 4.08496C34.0112 4.15332 34.0112 4.22168 33.9976 4.29004C33.9565 4.39941 33.936 4.49512 33.936 4.57715C33.9497 4.64551 33.9497 4.71387 33.936 4.78223C33.936 4.83691 33.9292 4.8916 33.9155 4.94629C33.9155 5.00098 33.9087 5.0625 33.895 5.13086C33.8813 5.26758 33.8677 5.34277 33.854 5.35645C33.854 5.35645 33.854 5.36328 33.854 5.37695C33.854 5.5 33.8608 5.5957 33.8745 5.66406C33.8882 5.71875 33.8813 5.78027 33.854 5.84863C33.8813 5.98535 33.8813 6.09473 33.854 6.17676C33.854 6.27246 33.8472 6.36133 33.8335 6.44336C33.8335 6.51172 33.8335 6.58008 33.8335 6.64844C33.8198 6.92188 33.8062 7.14746 33.7925 7.3252C33.8062 7.4209 33.8062 7.49609 33.7925 7.55078C33.7925 7.5918 33.8062 7.62598 33.8335 7.65332C33.7788 7.80371 33.7583 7.89258 33.772 7.91992C33.7856 7.94727 33.7856 7.97461 33.772 8.00195C33.7583 8.15234 33.7515 8.27539 33.7515 8.37109C33.7515 8.41211 33.7446 8.45312 33.731 8.49414C33.7173 8.53516 33.7104 8.57617 33.7104 8.61719C33.7651 8.94531 33.7856 9.20508 33.772 9.39648C33.772 9.57422 33.772 9.75879 33.772 9.9502C33.7856 9.99121 33.7856 10.0391 33.772 10.0938C33.772 10.1484 33.772 10.1963 33.772 10.2373C33.7856 10.3193 33.7925 10.4014 33.7925 10.4834C33.8062 10.5518 33.813 10.6338 33.813 10.7295C33.7993 10.7842 33.7993 10.832 33.813 10.873C33.8267 10.9141 33.8335 10.9482 33.8335 10.9756C33.8198 11.126 33.813 11.2217 33.813 11.2627C33.8267 11.3037 33.8403 11.3516 33.854 11.4062C33.854 11.5566 33.8608 11.6318 33.8745 11.6318C33.8608 11.7822 33.854 11.8779 33.854 11.9189C33.8677 11.96 33.8745 11.9941 33.8745 12.0215C33.8882 12.1719 33.8882 12.2471 33.8745 12.2471C33.8745 12.2471 33.8745 12.2539 33.8745 12.2676C33.8745 12.377 33.8813 12.4863 33.895 12.5957C33.9087 12.6914 33.9224 12.7871 33.936 12.8828C33.9497 13.0605 33.9565 13.1973 33.9565 13.293C33.9702 13.334 33.9839 13.3818 33.9976 13.4365C34.0112 13.4775 34.0249 13.5186 34.0386 13.5596C34.0386 13.6143 34.0454 13.6621 34.0591 13.7031C34.0728 13.7441 34.0796 13.7852 34.0796 13.8262V14.0928C34.0796 14.1611 34.0864 14.2295 34.1001 14.2979C34.1138 14.3525 34.1274 14.4141 34.1411 14.4824C34.1548 14.5508 34.1616 14.6123 34.1616 14.667C34.1616 14.7217 34.1753 14.7764 34.2026 14.8311C34.2026 15.0498 34.23 15.2139 34.2847 15.3232C34.271 15.501 34.271 15.624 34.2847 15.6924C34.312 15.7471 34.312 15.8018 34.2847 15.8564C34.23 15.9385 34.189 15.9932 34.1616 16.0205C34.1343 16.0615 34.1069 16.1025 34.0796 16.1436C33.9839 16.1572 33.9292 16.1709 33.9155 16.1846C33.9019 16.2119 33.8813 16.2256 33.854 16.2256C33.772 16.2256 33.6763 16.2529 33.5669 16.3076C33.4438 16.2939 33.3687 16.2871 33.3413 16.2871C33.3276 16.3008 33.314 16.2939 33.3003 16.2666C33.2046 16.3076 33.1226 16.3076 33.0542 16.2666C32.9858 16.3076 32.9106 16.3145 32.8286 16.2871C32.7603 16.2734 32.6919 16.2666 32.6235 16.2666C32.5825 16.2666 32.5415 16.2734 32.5005 16.2871C32.4731 16.3008 32.439 16.3145 32.3979 16.3281C32.2886 16.3145 32.2271 16.3076 32.2134 16.3076C32.1997 16.3213 32.1792 16.3281 32.1519 16.3281C31.9741 16.3008 31.8647 16.2803 31.8237 16.2666C31.7827 16.2529 31.7417 16.2393 31.7007 16.2256C31.6733 16.2119 31.6323 16.2119 31.5776 16.2256C31.5093 16.2393 31.4272 16.2393 31.3315 16.2256C31.2358 16.2119 31.1401 16.2119 31.0444 16.2256C30.9351 16.1846 30.8667 16.1572 30.8394 16.1436C30.8257 16.1436 30.8052 16.1504 30.7778 16.1641C30.6821 16.1504 30.6138 16.1504 30.5728 16.1641C30.5317 16.1777 30.4976 16.1777 30.4702 16.1641C30.3608 16.0957 30.2925 16.0547 30.2651 16.041C30.2515 16.041 30.2241 16.0273 30.1831 16C30.1147 15.8359 30.0806 15.7266 30.0806 15.6719C30.0942 15.6035 30.0874 15.5352 30.0601 15.4668C30.0874 15.4258 30.0874 15.3848 30.0601 15.3438C30.0464 15.2891 30.0464 15.2412 30.0601 15.2002C30.1011 15.0498 30.1147 14.9678 30.1011 14.9541C30.1011 14.9404 30.1079 14.9199 30.1216 14.8926C30.1489 14.7832 30.1558 14.7012 30.1421 14.6465C30.1421 14.5781 30.1558 14.5166 30.1831 14.4619C30.1968 14.3115 30.2104 14.2158 30.2241 14.1748C30.2378 14.1338 30.2515 14.0996 30.2651 14.0723V13.6621C30.2788 13.5117 30.2925 13.4229 30.3062 13.3955C30.3198 13.3545 30.3267 13.3135 30.3267 13.2725C30.3267 13.1084 30.3198 13.0059 30.3062 12.9648C30.2925 12.9102 30.2925 12.8691 30.3062 12.8418C30.3198 12.7734 30.3198 12.7051 30.3062 12.6367C30.3062 12.5547 30.3062 12.4795 30.3062 12.4111C30.3062 12.3428 30.313 12.2812 30.3267 12.2266C30.3403 12.1582 30.3335 12.0898 30.3062 12.0215C30.3335 11.8574 30.3472 11.6729 30.3472 11.4678C30.3608 11.249 30.3608 11.0371 30.3472 10.832C30.3472 10.791 30.3403 10.75 30.3267 10.709C30.3267 10.668 30.3267 10.6201 30.3267 10.5654C30.3267 10.3877 30.3198 10.2783 30.3062 10.2373C30.3062 10.1826 30.3198 10.1348 30.3472 10.0938C30.3198 10.0664 30.313 10.0322 30.3267 9.99121C30.354 9.93652 30.354 9.89551 30.3267 9.86816C30.354 9.84082 30.3608 9.80664 30.3472 9.76562C30.3472 9.72461 30.3472 9.68359 30.3472 9.64258C30.3472 9.61523 30.3472 9.58105 30.3472 9.54004C30.3608 9.49902 30.3608 9.45117 30.3472 9.39648C30.3198 9.23242 30.3062 9.12988 30.3062 9.08887C30.3198 9.04785 30.3335 9.00684 30.3472 8.96582C30.3472 8.88379 30.3403 8.8291 30.3267 8.80176C30.3267 8.77441 30.3267 8.74707 30.3267 8.71973V8.33008C30.313 8.19336 30.2993 8.125 30.2856 8.125C30.2856 8.11133 30.2856 8.09082 30.2856 8.06348C30.2993 7.96777 30.2993 7.89941 30.2856 7.8584C30.272 7.80371 30.2651 7.75586 30.2651 7.71484C30.2651 7.66016 30.272 7.6123 30.2856 7.57129C30.2993 7.53027 30.3062 7.48926 30.3062 7.44824C30.3062 7.37988 30.2993 7.31152 30.2856 7.24316C30.2856 7.16113 30.2788 7.08594 30.2651 7.01758C30.2515 6.89453 30.2446 6.83301 30.2446 6.83301C30.2583 6.83301 30.2651 6.81934 30.2651 6.79199C30.2515 6.6416 30.2446 6.5459 30.2446 6.50488C30.2583 6.46387 30.2651 6.41602 30.2651 6.36133C30.2515 6.26562 30.2378 6.21094 30.2241 6.19727C30.2104 6.16992 30.2036 6.14258 30.2036 6.11523C30.2036 6.07422 30.2104 6.02637 30.2241 5.97168C30.2378 5.91699 30.2446 5.85547 30.2446 5.78711C30.2173 5.66406 30.2036 5.58203 30.2036 5.54102C30.2036 5.5 30.1968 5.45898 30.1831 5.41797C30.1831 5.30859 30.1763 5.24023 30.1626 5.21289C30.1626 5.17188 30.1626 5.1377 30.1626 5.11035C30.1626 5.00098 30.1626 4.85742 30.1626 4.67969C30.1489 4.58398 30.1421 4.51562 30.1421 4.47461C30.1558 4.43359 30.1626 4.39258 30.1626 4.35156C30.1353 4.1875 30.1353 4.06445 30.1626 3.98242C30.1626 3.85938 30.1489 3.75 30.1216 3.6543C30.1079 3.55859 30.1011 3.46289 30.1011 3.36719C30.1011 3.3125 30.1011 3.26465 30.1011 3.22363C30.1147 3.16895 30.1216 3.12793 30.1216 3.10059C30.1489 2.93652 30.1489 2.79297 30.1216 2.66992C30.0942 2.54688 30.0737 2.39648 30.0601 2.21875C29.9644 1.84961 29.937 1.56934 29.978 1.37793C30.0054 1.24121 30.019 1.17969 30.019 1.19336C30.0327 1.19336 30.0327 1.17969 30.019 1.15234C30.0464 0.988281 30.0669 0.892578 30.0806 0.865234L30.1216 0.783203ZM46.9314 0.762695C47.0271 0.858398 47.075 0.919922 47.075 0.947266C47.075 0.974609 47.0818 1.00195 47.0955 1.0293C47.1228 1.125 47.1297 1.2207 47.116 1.31641C47.116 1.41211 47.1092 1.52832 47.0955 1.66504C47.0818 1.7334 47.075 1.79492 47.075 1.84961C47.0887 1.9043 47.0887 1.95215 47.075 1.99316C47.0613 2.03418 47.0408 2.0752 47.0135 2.11621C46.9998 2.14355 46.9861 2.1709 46.9724 2.19824C46.9588 2.29395 46.9519 2.3623 46.9519 2.40332C46.9656 2.44434 46.9656 2.47852 46.9519 2.50586C46.9109 2.62891 46.8972 2.71777 46.9109 2.77246C46.9246 2.81348 46.9314 2.86133 46.9314 2.91602C46.9314 3.08008 46.9109 3.17578 46.8699 3.20312C46.8426 3.2168 46.8289 3.2373 46.8289 3.26465C46.8562 3.33301 46.8631 3.3877 46.8494 3.42871C46.8357 3.46973 46.8221 3.52441 46.8084 3.59277C46.781 3.74316 46.7537 3.8457 46.7263 3.90039C46.7127 3.94141 46.699 3.98926 46.6853 4.04395C46.6306 4.13965 46.5896 4.19434 46.5623 4.20801C46.5486 4.22168 46.5349 4.24219 46.5213 4.26953C46.3846 4.29688 46.2957 4.31055 46.2547 4.31055C46.2137 4.29688 46.1726 4.29004 46.1316 4.29004C45.9676 4.29004 45.865 4.2832 45.824 4.26953C45.7967 4.24219 45.7625 4.22168 45.7215 4.20801C45.6805 4.18066 45.6326 4.17383 45.5779 4.1875C45.5369 4.20117 45.489 4.19434 45.4344 4.16699C45.3113 4.13965 45.2088 4.13281 45.1267 4.14648C45.0584 4.14648 44.9832 4.14648 44.9012 4.14648C44.8328 4.14648 44.7644 4.14648 44.6961 4.14648C44.6414 4.13281 44.5799 4.1123 44.5115 4.08496C44.4705 4.1123 44.4226 4.11914 44.368 4.10547C44.3133 4.0918 44.2517 4.08496 44.1834 4.08496C44.1424 4.07129 44.0945 4.07129 44.0398 4.08496C43.9988 4.09863 43.951 4.09863 43.8963 4.08496C43.8689 4.16699 43.8553 4.24902 43.8553 4.33105C43.8689 4.39941 43.8758 4.47461 43.8758 4.55664C43.8621 4.70703 43.8553 4.78223 43.8553 4.78223L43.8963 5.04883C43.8963 5.08984 43.8963 5.13086 43.8963 5.17188C43.9099 5.21289 43.9168 5.25391 43.9168 5.29492C43.9168 5.36328 43.9099 5.43848 43.8963 5.52051C43.8826 5.60254 43.8758 5.67773 43.8758 5.74609L43.9373 6.11523C43.9373 6.22461 43.9236 6.32715 43.8963 6.42285C43.8826 6.50488 43.8894 6.58691 43.9168 6.66895C43.9031 6.81934 43.9099 6.93555 43.9373 7.01758C43.9373 7.08594 43.9305 7.14746 43.9168 7.20215C43.9168 7.25684 43.9236 7.30469 43.9373 7.3457C43.9099 7.50977 43.9031 7.61914 43.9168 7.67383C43.9305 7.72852 43.9373 7.76953 43.9373 7.79688C43.9373 7.83789 43.9305 7.87891 43.9168 7.91992C43.9031 7.96094 43.8963 8.00195 43.8963 8.04297C43.8963 8.17969 43.9031 8.26855 43.9168 8.30957C43.9305 8.33691 43.9236 8.36426 43.8963 8.3916C43.9236 8.4873 43.9373 8.57617 43.9373 8.6582C43.9373 8.74023 43.9441 8.8291 43.9578 8.9248C43.9715 9.03418 43.9851 9.0957 43.9988 9.10938C44.0125 9.12305 44.0193 9.13672 44.0193 9.15039C44.0056 9.23242 44.0125 9.31445 44.0398 9.39648V9.66309C44.0398 9.77246 44.033 9.88184 44.0193 9.99121C44.0193 10.1006 44.0262 10.2168 44.0398 10.3398C44.0398 10.4082 44.033 10.4697 44.0193 10.5244C44.0193 10.5654 44.033 10.6064 44.0603 10.6475C44.0603 10.7842 44.0535 10.8594 44.0398 10.873C44.0398 10.8867 44.0398 10.9072 44.0398 10.9346C44.0672 11.1123 44.0672 11.3311 44.0398 11.5908L44.0603 11.9805V12.2061C44.0603 12.3018 44.0603 12.3975 44.0603 12.4932C44.074 12.5752 44.0808 12.6641 44.0808 12.7598C44.0945 12.9785 44.1082 13.1084 44.1219 13.1494C44.1355 13.3135 44.1355 13.416 44.1219 13.457C44.1219 13.498 44.1219 13.5322 44.1219 13.5596C44.1355 13.6279 44.1424 13.6963 44.1424 13.7646C44.1424 13.8193 44.1492 13.874 44.1629 13.9287C44.1765 14.0928 44.1834 14.1953 44.1834 14.2363C44.1971 14.2637 44.2039 14.3047 44.2039 14.3594L44.2244 14.6465C44.2381 14.8516 44.2517 14.9814 44.2654 15.0361C44.3201 15.2139 44.3338 15.3301 44.3064 15.3848C44.3064 15.4531 44.3133 15.501 44.3269 15.5283C44.3406 15.5557 44.3543 15.583 44.368 15.6104C44.3406 15.7334 44.3269 15.8086 44.3269 15.8359C44.3406 15.8633 44.3474 15.8975 44.3474 15.9385C44.2381 16.0342 44.1629 16.082 44.1219 16.082C44.0945 16.0957 44.0672 16.1025 44.0398 16.1025H43.7117C43.616 16.1162 43.4793 16.1162 43.3015 16.1025H42.9324C42.7957 16.1162 42.7205 16.1162 42.7068 16.1025C42.6931 16.1025 42.6726 16.1025 42.6453 16.1025C42.5359 16.1025 42.4607 16.1025 42.4197 16.1025C42.3787 16.1162 42.3377 16.123 42.2967 16.123C42.1189 16.1367 42.0096 16.1436 41.9685 16.1436C41.9412 16.1572 41.907 16.1709 41.866 16.1846C41.7293 16.1846 41.6472 16.1846 41.6199 16.1846C41.6062 16.1982 41.5789 16.1982 41.5379 16.1846C41.4695 16.1709 41.4217 16.1641 41.3943 16.1641C41.367 16.1641 41.3396 16.1641 41.3123 16.1641C41.2439 16.1641 41.1824 16.1641 41.1277 16.1641C41.0867 16.1777 41.032 16.1846 40.9637 16.1846C40.8133 16.1709 40.7107 16.1641 40.656 16.1641C40.615 16.1777 40.5672 16.1709 40.5125 16.1436C40.4168 16.1162 40.3484 16.082 40.3074 16.041C40.2527 15.9453 40.2117 15.8906 40.1844 15.877C40.1707 15.8496 40.1502 15.8154 40.1228 15.7744C40.1365 15.7471 40.1365 15.7129 40.1228 15.6719C40.1092 15.6309 40.1023 15.583 40.1023 15.5283C40.1023 15.46 40.1092 15.3848 40.1228 15.3027C40.1365 15.2207 40.1433 15.1387 40.1433 15.0566C40.157 14.9746 40.157 14.9268 40.1433 14.9131C40.1433 14.8857 40.1502 14.8584 40.1638 14.8311C40.1502 14.7764 40.1502 14.7354 40.1638 14.708C40.1775 14.667 40.1844 14.6328 40.1844 14.6055C40.198 14.5234 40.2049 14.4414 40.2049 14.3594C40.2049 14.2773 40.2117 14.1953 40.2254 14.1133C40.2664 13.9492 40.2801 13.8398 40.2664 13.7852C40.2527 13.7305 40.2527 13.6758 40.2664 13.6211C40.2937 13.4844 40.3006 13.416 40.2869 13.416C40.2869 13.4023 40.2869 13.3887 40.2869 13.375C40.2869 13.2246 40.2937 13.1426 40.3074 13.1289C40.3211 13.1152 40.3279 13.1016 40.3279 13.0879C40.3279 13.0605 40.3279 13.0195 40.3279 12.9648C40.3416 12.9102 40.3484 12.8486 40.3484 12.7803C40.3758 12.5889 40.3894 12.4727 40.3894 12.4316C40.3758 12.2949 40.3689 12.2266 40.3689 12.2266C40.3826 12.2266 40.3894 12.2197 40.3894 12.2061C40.3894 12.1377 40.3894 12.0898 40.3894 12.0625C40.3894 12.0352 40.3963 12.0078 40.4099 11.9805C40.4099 11.8848 40.4099 11.8301 40.4099 11.8164C40.4236 11.7891 40.4305 11.7617 40.4305 11.7344C40.4031 11.5703 40.3894 11.4746 40.3894 11.4473C40.4031 11.4062 40.4099 11.3584 40.4099 11.3037C40.3826 11.085 40.3826 10.9209 40.4099 10.8115C40.3963 10.7295 40.3894 10.6748 40.3894 10.6475C40.4031 10.6201 40.4099 10.5928 40.4099 10.5654C40.4099 10.5244 40.4031 10.4834 40.3894 10.4424C40.3894 10.4014 40.3963 10.3467 40.4099 10.2783C40.4099 10.1279 40.4099 10.0186 40.4099 9.9502C40.4236 9.86816 40.4305 9.7793 40.4305 9.68359C40.4031 9.49219 40.3826 9.37598 40.3689 9.33496C40.3689 9.29395 40.3758 9.25293 40.3894 9.21191C40.3894 9.00684 40.3894 8.87012 40.3894 8.80176C40.4031 8.7334 40.4099 8.66504 40.4099 8.59668C40.4099 8.4873 40.4031 8.3916 40.3894 8.30957C40.3894 8.21387 40.3963 8.11133 40.4099 8.00195C40.4099 7.94727 40.4168 7.90625 40.4305 7.87891C40.4578 7.85156 40.4646 7.80371 40.451 7.73535C40.4646 7.69434 40.4646 7.6123 40.451 7.48926C40.451 7.35254 40.451 7.25 40.451 7.18164C40.4646 7.11328 40.4783 7.05859 40.492 7.01758C40.5056 6.97656 40.5056 6.91504 40.492 6.83301C40.492 6.75098 40.492 6.69629 40.492 6.66895C40.492 6.62793 40.492 6.58691 40.492 6.5459C40.5056 6.36816 40.5056 6.24512 40.492 6.17676C40.4783 6.1084 40.4715 6.04004 40.4715 5.97168C40.4715 5.90332 40.4715 5.84863 40.4715 5.80762C40.4851 5.75293 40.492 5.70508 40.492 5.66406C40.492 5.55469 40.492 5.44531 40.492 5.33594C40.492 5.21289 40.4783 5.09668 40.451 4.9873C40.451 4.85059 40.451 4.76855 40.451 4.74121C40.4646 4.7002 40.4646 4.64551 40.451 4.57715C40.451 4.50879 40.4441 4.44727 40.4305 4.39258C40.4305 4.32422 40.4305 4.24902 40.4305 4.16699C40.2801 4.19434 40.1707 4.20801 40.1023 4.20801C40.034 4.22168 39.9656 4.23535 39.8972 4.24902C39.8426 4.24902 39.781 4.25586 39.7127 4.26953C39.5623 4.2832 39.4871 4.29004 39.4871 4.29004C39.4871 4.27637 39.4803 4.26953 39.4666 4.26953C39.3572 4.31055 39.2888 4.33105 39.2615 4.33105C39.2342 4.33105 39.2 4.33789 39.159 4.35156C39.0359 4.36523 38.9539 4.37891 38.9129 4.39258C38.8855 4.40625 38.8582 4.41309 38.8308 4.41309C38.7625 4.42676 38.6941 4.43359 38.6258 4.43359C38.5711 4.41992 38.5096 4.42676 38.4412 4.4541L38.2156 4.49512C38.0926 4.49512 38.0174 4.49512 37.99 4.49512C37.9763 4.48145 37.9558 4.48145 37.9285 4.49512C37.7781 4.53613 37.6892 4.56348 37.6619 4.57715C37.6482 4.59082 37.6277 4.60449 37.6004 4.61816C37.491 4.60449 37.4295 4.60449 37.4158 4.61816C37.4021 4.61816 37.3885 4.61816 37.3748 4.61816C37.2654 4.57715 37.2107 4.5498 37.2107 4.53613C37.2107 4.50879 37.1971 4.50195 37.1697 4.51562C37.156 4.46094 37.1355 4.40625 37.1082 4.35156C37.0808 4.29688 37.0603 4.23535 37.0467 4.16699C37.033 4.09863 37.033 4.02344 37.0467 3.94141C37.074 3.85938 37.0945 3.77734 37.1082 3.69531C37.1219 3.59961 37.1287 3.52441 37.1287 3.46973C37.1424 3.34668 37.1629 3.25781 37.1902 3.20312C37.1765 3.06641 37.1697 2.97754 37.1697 2.93652C37.1697 2.88184 37.1765 2.83398 37.1902 2.79297C37.2176 2.64258 37.2517 2.55371 37.2928 2.52637C37.2928 2.34863 37.2996 2.23242 37.3133 2.17773C37.3543 2.06836 37.368 1.99316 37.3543 1.95215C37.3543 1.89746 37.3611 1.84277 37.3748 1.78809C37.3748 1.7334 37.3816 1.68555 37.3953 1.64453C37.409 1.60352 37.4158 1.54883 37.4158 1.48047C37.4295 1.38477 37.4363 1.28906 37.4363 1.19336C37.45 1.09766 37.4637 1.01562 37.4773 0.947266C37.5047 0.919922 37.532 0.892578 37.5594 0.865234C37.5867 0.837891 37.614 0.803711 37.6414 0.762695C37.7918 0.735352 37.867 0.72168 37.867 0.72168C38.031 0.72168 38.1746 0.728516 38.2976 0.742188C38.4344 0.742188 38.5779 0.749023 38.7283 0.762695C38.906 0.803711 39.0291 0.824219 39.0974 0.824219C39.1658 0.810547 39.2342 0.796875 39.3025 0.783203C39.3846 0.769531 39.4666 0.769531 39.5486 0.783203C39.6443 0.796875 39.7195 0.796875 39.7742 0.783203C39.8015 0.783203 39.8494 0.790039 39.9178 0.803711C39.9998 0.803711 40.0681 0.790039 40.1228 0.762695C40.1502 0.776367 40.1844 0.783203 40.2254 0.783203C40.2664 0.769531 40.3074 0.762695 40.3484 0.762695C40.4031 0.776367 40.492 0.783203 40.615 0.783203C40.7107 0.796875 40.7928 0.803711 40.8611 0.803711C40.9431 0.803711 41.0115 0.817383 41.0662 0.844727C41.1892 0.831055 41.2644 0.824219 41.2918 0.824219C41.3328 0.824219 41.367 0.831055 41.3943 0.844727C41.5721 0.844727 41.6814 0.844727 41.7224 0.844727C41.7635 0.831055 41.8045 0.824219 41.8455 0.824219C41.9002 0.824219 41.9822 0.837891 42.0916 0.865234C42.2967 0.837891 42.4265 0.831055 42.4812 0.844727C42.5496 0.844727 42.618 0.844727 42.6863 0.844727C42.7273 0.844727 42.7683 0.844727 42.8094 0.844727C42.8504 0.831055 42.9051 0.831055 42.9734 0.844727C43.0555 0.87207 43.1033 0.878906 43.117 0.865234C43.1443 0.851562 43.1717 0.851562 43.199 0.865234C43.281 0.865234 43.3767 0.87207 43.4861 0.885742C43.5955 0.885742 43.6912 0.878906 43.7732 0.865234C43.8963 0.865234 44.0056 0.858398 44.1013 0.844727C44.1971 0.831055 44.2928 0.831055 44.3885 0.844727C44.5935 0.831055 44.7371 0.837891 44.8191 0.865234C44.9012 0.878906 44.9969 0.878906 45.1062 0.865234L45.3318 0.824219C45.3592 0.810547 45.4002 0.803711 45.4549 0.803711C45.5232 0.790039 45.5916 0.776367 45.6599 0.762695C45.8377 0.776367 45.9471 0.776367 45.9881 0.762695C46.0291 0.735352 46.0906 0.728516 46.1726 0.742188C46.3777 0.728516 46.5281 0.735352 46.6238 0.762695C46.7195 0.790039 46.8221 0.790039 46.9314 0.762695Z" fill="white"/>
</svg>
