<svg width="1728" height="1306" viewBox="0 0 1728 1306" fill="none" xmlns="http://www.w3.org/2000/svg">
<g clip-path="url(#clip0_233_27239)">
<path d="M0 80C0 35.8172 35.8172 0 80 0H1648C1692.18 0 1728 35.8172 1728 80V1226C1728 1270.18 1692.18 1306 1648 1306H80C35.8172 1306 0 1270.18 0 1226V80Z" fill="white"/>
<circle cx="1582" cy="512.549" r="614.549" transform="rotate(-90 1582 512.549)" fill="url(#paint0_linear_233_27239)"/>
<circle cx="1582" cy="892.452" r="614.549" fill="url(#paint1_linear_233_27239)"/>
</g>
<defs>
<linearGradient id="paint0_linear_233_27239" x1="967.451" y1="-102" x2="2360.37" y2="125.926" gradientUnits="userSpaceOnUse">
<stop stop-color="#3142DC"/>
<stop offset="1" stop-color="#284AFC"/>
</linearGradient>
<linearGradient id="paint1_linear_233_27239" x1="967.451" y1="277.903" x2="2360.37" y2="505.829" gradientUnits="userSpaceOnUse">
<stop stop-color="#B56F40"/>
<stop offset="1" stop-color="#B64C41"/>
</linearGradient>
<clipPath id="clip0_233_27239">
<path d="M0 80C0 35.8172 35.8172 0 80 0H1648C1692.18 0 1728 35.8172 1728 80V1226C1728 1270.18 1692.18 1306 1648 1306H80C35.8172 1306 0 1270.18 0 1226V80Z" fill="white"/>
</clipPath>
</defs>
</svg>
