<svg width="50" height="50" viewBox="0 0 50 50" fill="none" xmlns="http://www.w3.org/2000/svg">
<path d="M11.2979 6.3291C8.62292 6.3291 6.64583 8.67077 6.73542 11.2083C6.81875 13.6479 6.70833 16.8062 5.9125 19.3833C5.11458 21.9666 3.76667 23.6041 1.5625 23.8145V26.1854C3.76667 26.3958 5.11458 28.0333 5.9125 30.6166C6.70833 33.1916 6.81875 36.352 6.73333 38.7895C6.64583 41.3291 8.62292 43.6708 11.3 43.6708H38.7042C41.3792 43.6708 43.3583 41.3291 43.2708 38.7895C43.1854 36.352 43.2958 33.1916 44.0896 30.6166C44.8896 28.0333 46.2354 26.3958 48.4375 26.1854V23.8145C46.2333 23.6041 44.8896 21.9666 44.0896 19.3833C43.2958 16.8083 43.1854 13.6479 43.2708 11.2083C43.3583 8.67077 41.3792 6.3291 38.7042 6.3291H11.2979ZM33.3417 29.3145C33.3417 32.8104 30.7354 34.9312 26.4083 34.9312H19.0417C18.9373 34.9315 18.8338 34.9111 18.7373 34.8714C18.6407 34.8316 18.553 34.7732 18.4791 34.6994C18.4051 34.6257 18.3465 34.5381 18.3065 34.4417C18.2664 34.3452 18.2458 34.2418 18.2458 34.1374V15.8624C18.2458 15.758 18.2664 15.6546 18.3065 15.5582C18.3465 15.4618 18.4051 15.3742 18.4791 15.3004C18.553 15.2267 18.6407 15.1683 18.7373 15.1285C18.8338 15.0887 18.9373 15.0684 19.0417 15.0687H26.3646C29.9729 15.0687 32.3417 17.0229 32.3417 20.0249C32.3417 22.1291 30.7479 24.0166 28.7187 24.3458V24.4562C31.4812 24.7583 33.3417 26.6729 33.3417 29.3145ZM25.6042 17.5854H21.4042V23.5187H24.9417C27.6771 23.5187 29.1833 22.4187 29.1833 20.4499C29.1833 18.6062 27.8875 17.5874 25.6042 17.5874V17.5854ZM21.4042 25.8729V32.4124H25.7583C28.6062 32.4124 30.1125 31.2687 30.1125 29.1208C30.1125 26.9749 28.5646 25.8729 25.575 25.8729H21.4042Z" fill="white"/>
</svg>
