<svg width="50" height="50" viewBox="0 0 50 50" fill="none" xmlns="http://www.w3.org/2000/svg">
<g clip-path="url(#clip0_147_3787)">
<path d="M15.6294 0H21.0002V2.24583H17.8752V4.49167H21.0002V6.7375H15.6294V0ZM22.0731 0H27.4461V1.95417H24.3211V2.34375H27.4461V6.83542H22.0731V4.78542H25.1981V4.39375H22.0731V0ZM28.5211 0H33.8898V1.95417H30.7648V2.34375H33.8898V6.83542H28.5211V4.78542H31.6461V4.39375H28.5211V0Z" fill="white"/>
<path fill-rule="evenodd" clip-rule="evenodd" d="M24.9812 50.0001L10.5146 45.9834L6.25 9.82715H43.75L39.4875 45.9792L24.9812 50.0001ZM14.6812 26.1938L15.0792 30.6272H30.4479L29.9333 36.3772L24.9875 37.7147H24.9833L20.0458 36.3813L19.7292 32.8459H15.2771L15.8979 39.8084L24.9812 42.3292L34.0792 39.8084L35.1875 27.3834L35.2958 26.1938L36.0958 17.2167H13.8833L14.2875 21.6521H31.2375L30.8333 26.1938H14.6812Z" fill="white"/>
</g>
<defs>
<clipPath id="clip0_147_3787">
<rect width="50" height="50" fill="white"/>
</clipPath>
</defs>
</svg>
