<svg width="50" height="50" viewBox="0 0 50 50" fill="none" xmlns="http://www.w3.org/2000/svg">
<g clip-path="url(#clip0_147_3790)">
<mask id="mask0_147_3790" style="mask-type:luminance" maskUnits="userSpaceOnUse" x="0" y="0" width="50" height="50">
<path d="M0 0H50V50H0V0Z" fill="white"/>
</mask>
<g mask="url(#mask0_147_3790)">
<path d="M10.5835 0H12.8377V2.22708H14.9002V0H17.1543V6.74167H14.9002V4.48542H12.8377V6.74167H10.5856L10.5835 0ZM20.1168 2.23542H18.1335V0H24.3564V2.23542H22.371V6.74167H20.1168V2.23542ZM25.3439 0H27.6939L29.1397 2.36875L30.5835 0H32.9335V6.74167H30.6897V3.4L29.1397 5.79792H29.1002L27.5481 3.40208V6.74167H25.3439V0ZM34.0543 0H36.3106V4.51458H39.4772V6.74375H34.0543V0Z" fill="white"/>
<path fill-rule="evenodd" clip-rule="evenodd" d="M10.5125 45.9834L6.25 9.82715H43.75L39.4854 45.9792L24.9792 50.0001L10.5125 45.9834ZM19.1312 26.1917L18.7271 21.6501H35.6958L36.0917 17.2167H13.8833L15.0792 30.6272H30.4479L29.9333 36.3772L24.9875 37.7147H24.9833L20.0458 36.3813L19.7292 32.8459H15.275L15.8958 39.8084L24.9792 42.3292L34.0771 39.8084L35.1854 27.3834L35.2937 26.1938H19.1312V26.1917Z" fill="white"/>
</g>
</g>
<defs>
<clipPath id="clip0_147_3790">
<rect width="50" height="50" fill="white"/>
</clipPath>
</defs>
</svg>
