<svg width="483" height="203" viewBox="0 0 483 203" fill="none" xmlns="http://www.w3.org/2000/svg">
<path d="M376.811 91.1945C376.811 91.1945 373.191 86.9702 376.588 84.2876C376.588 84.2876 379.068 82.7857 381.092 82.9085C381.092 82.9085 378.225 87.7156 379.152 88.1931C380.08 88.6718 381.96 82.6059 381.96 82.6059C381.96 82.6059 387.606 82.0589 389.422 82.9321C389.422 82.9321 384.596 86.8822 385.612 87.1178C386.629 87.3522 391.842 83.4753 391.842 83.4753C391.842 83.4753 397.097 84.3695 396.816 87.5755C396.536 90.7815 394.726 91.7712 393.929 91.6856C393.134 91.6013 388.479 89.824 388.377 90.4764C388.276 91.1275 391.078 93.2594 393.04 93.3587C393.04 93.3587 389.336 97.4452 386.873 96.2658C384.412 95.0863 384.202 93.2173 382.667 92.5153C381.131 91.8146 379.822 91.8171 380.456 92.5314C381.089 93.247 383.867 93.9416 384.744 95.4943C385.622 97.0471 386.409 98.0939 383.862 97.7106C381.315 97.3274 377.174 95.4633 376.992 93.3289C376.811 91.1945 376.811 91.1945 376.811 91.1945" fill="#233862"/>
<path d="M394.236 87.6624C394.236 87.6624 379.964 87.1117 376.813 91.1946C376.813 91.1946 376.116 93.2819 373.971 95.1832L373.636 96.0947C373.636 96.0947 376.11 93.4865 376.994 93.329C376.994 93.329 375.61 88.2714 394.236 87.6624" fill="#77A4E5"/>
<path d="M373.97 95.1833C373.97 95.1833 370.907 97.4492 370.693 101.497L371.25 101.547C371.25 101.547 372.229 97.3611 373.996 95.724C375.765 94.0869 373.97 95.1833 373.97 95.1833" fill="#77A4E5"/>
<path d="M364.157 85.8817C364.157 85.8817 369.916 82.6571 367.228 78.2803C367.228 78.2803 365.078 75.5928 362.775 74.902C362.775 74.902 364.004 81.428 362.775 81.5818C361.546 81.7356 361.931 74.2112 361.931 74.2112C361.931 74.2112 355.865 71.2929 353.485 71.5236C353.485 71.5236 357.248 77.8971 356.019 77.7433C354.791 77.5895 350.567 71.1403 350.567 71.1403C350.567 71.1403 344.349 69.9882 343.351 73.6741C342.353 77.3589 343.965 79.2018 344.886 79.4325C345.808 79.6632 351.719 79.5863 351.566 80.354C351.412 81.1217 347.42 82.3495 345.194 81.6587C345.194 81.6587 347.651 87.7247 350.875 87.4171C354.099 87.1108 355.097 85.114 357.094 84.9602C359.089 84.8064 360.549 85.3447 359.551 85.8817C358.552 86.42 355.174 86.0578 353.562 87.4283C351.95 88.8 350.644 89.6446 353.639 90.2585C356.633 90.8724 362.007 90.4892 363.083 88.1848C364.157 85.8817 364.157 85.8817 364.157 85.8817" fill="#374497"/>
<path d="M346.191 74.8262C346.191 74.8262 362.314 80.0476 364.156 85.8829C364.156 85.8829 364.08 88.4936 365.692 91.4887V92.6396C365.692 92.6396 364.003 88.7242 363.082 88.186C363.082 88.186 366.689 83.1184 346.191 74.8262Z" fill="#77A4E5"/>
<path d="M365.692 91.4878C365.692 91.4878 368.177 95.2631 366.761 99.8594L366.121 99.6882C366.121 99.6882 366.741 94.6256 365.44 92.0794C364.139 89.532 365.692 91.4878 365.692 91.4878Z" fill="#77A4E5"/>
<path d="M373.316 81.4349C373.316 81.4349 365.726 77.1847 369.268 71.4151C369.268 71.4151 372.102 67.873 375.137 66.9615C375.137 66.9615 373.519 75.5649 375.137 75.7671C376.757 75.9692 376.251 66.0511 376.251 66.0511C376.251 66.0511 384.246 62.2052 387.383 62.509C387.383 62.509 382.424 70.9091 384.044 70.707C385.662 70.5048 391.229 62.003 391.229 62.003C391.229 62.003 399.426 60.4837 400.742 65.343C402.058 70.2009 399.932 72.6293 398.718 72.9332C397.504 73.237 389.711 73.1353 389.913 74.1473C390.115 75.1606 395.378 76.7791 398.313 75.8688C398.313 75.8688 395.075 83.8646 390.825 83.459C386.574 83.0547 385.258 80.4229 382.626 80.2208C379.995 80.0186 378.073 80.7268 379.388 81.4349C380.704 82.1431 385.156 81.6669 387.282 83.4739C389.407 85.2809 391.127 86.3946 387.181 87.2045C383.234 88.0144 376.149 87.5083 374.733 84.471C373.316 81.4349 373.316 81.4349 373.316 81.4349" fill="#2C3677"/>
<path d="M396.997 66.8605C396.997 66.8605 375.744 73.7426 373.315 81.4345C373.315 81.4345 373.417 84.8761 371.291 88.8238V90.3418C371.291 90.3418 373.518 85.18 374.732 84.4706C374.732 84.4706 369.975 77.7907 396.997 66.8605" fill="#9FC1F4"/>
<path d="M371.292 88.8238C371.292 88.8238 368.015 93.8009 369.884 99.8594L370.727 99.6337C370.727 99.6337 369.908 92.96 371.623 89.6027C373.337 86.2466 371.292 88.8238 371.292 88.8238Z" fill="#9FC1F4"/>
<path d="M373.059 113C381.271 113 387.927 106.342 387.927 98.1296H358.191C358.191 106.342 364.848 113 373.059 113" fill="#233862"/>
<path d="M376.721 112.886C376.117 112.962 375.5 113 374.875 113C366.663 113 360.007 106.342 360.007 98.1296H363.701C363.701 105.717 369.382 111.976 376.721 112.886Z" fill="#AFCDFB"/>
<path d="M388.268 98.5859H357.705V98.1295H388.268V98.5859Z" fill="#9FC1F4"/>
<path d="M303.845 112.268L289.235 51.6236L290.256 49.2361L304.729 112.262C304.767 112.423 304.644 112.577 304.479 112.577H304.237C304.051 112.577 303.889 112.449 303.845 112.268Z" fill="#77A4E5"/>
<path d="M237.907 112.577C237.607 112.577 237.379 112.308 237.427 112.012L241.731 85.9271H243.575L238.443 112.137C238.392 112.392 238.169 112.577 237.907 112.577" fill="#77A4E5"/>
<path d="M279.188 112.577C278.887 112.577 278.659 112.308 278.708 112.012L283.011 85.9271H284.855L279.723 112.137C279.674 112.392 279.449 112.577 279.188 112.577" fill="#77A4E5"/>
<path d="M289.198 85.9814H237.808L248.454 19.2261H299.845L289.198 85.9814Z" fill="#F5FBFF"/>
<path d="M293.04 87.4365H234.018V85.4732H293.04V87.4365Z" fill="#77A4E5"/>
<path d="M268.803 33.1938C268.763 33.7234 268.685 34.2418 268.572 34.7478C267.501 39.519 263.254 43.1739 258.453 43.1826C253.143 43.1913 249.166 38.7339 249.571 33.2273C249.977 27.7194 254.611 23.2484 259.921 23.2385C261.035 23.2372 262.09 23.4319 263.058 23.7916C263.493 23.9528 263.912 24.1476 264.31 24.3733C265.17 24.8607 265.935 25.4895 266.58 26.2324C266.939 26.6466 267.262 27.0956 267.543 27.5756C267.707 27.8521 267.856 28.1399 267.99 28.4375C268.363 29.2635 268.621 30.1602 268.745 31.1065C268.808 31.5815 268.837 32.0689 268.83 32.5662C268.827 32.7734 268.818 32.983 268.803 33.1938" fill="#BDD1F9"/>
<path d="M267.993 28.4376L259.19 33.21C259.19 33.21 262.823 26.8141 264.313 24.3733C265.173 24.8607 265.938 25.4895 266.583 26.2324C266.942 26.6467 267.265 27.0956 267.546 27.5756C267.71 27.8522 267.859 28.1399 267.993 28.4376" fill="white"/>
<path d="M268.905 27.2304L260.865 31.5898C260.865 31.5898 264.183 25.7471 265.544 23.5172C266.329 23.9624 267.029 24.5367 267.618 25.2163C267.946 25.5933 268.24 26.0051 268.497 26.4416C268.647 26.6959 268.782 26.9588 268.905 27.2304" fill="#F99746"/>
<path d="M243.147 80.6589L284.848 80.6614L289.045 56.7448L247.344 56.7423L243.147 80.6589ZM285.104 80.9082L242.805 80.9045L247.087 56.4968L289.387 56.4992L285.104 80.9082" fill="#BDD1F9"/>
<path d="M282.582 77.5605L245.068 77.5581C245.068 77.5581 251.723 73.9887 253.548 74.176C255.374 74.3632 257.997 75.8081 259.684 75.8639C261.371 75.921 263.198 70.8546 265.076 71.094C266.954 71.3321 267.661 75.8131 268.633 75.3753C269.605 74.9375 272.526 74.7477 274.207 75.3753C275.889 76.0028 278.339 73.381 279.818 73.4641C281.296 73.5459 282.582 77.5605 282.582 77.5605Z" fill="#F99746"/>
<path d="M254.09 70.3867L246.925 70.3855L246.992 70.006H254.156L254.09 70.3867" fill="#F99746"/>
<path d="M253.947 71.1982H246.781L246.848 70.8175L254.014 70.8187L253.947 71.1982" fill="#F99746"/>
<path d="M247.214 65.3227L284.727 65.3252C284.727 65.3252 279.325 61.7558 277.434 61.9419C275.543 62.1291 272.413 63.574 270.707 63.6298C268.999 63.6856 268.951 58.6193 266.989 58.8586C265.027 59.0968 262.748 63.5777 261.929 63.1399C261.109 62.7021 258.257 62.5111 256.355 63.1387C254.454 63.7662 252.923 61.1444 251.415 61.2262C249.909 61.3081 247.214 65.3227 247.214 65.3227" fill="#BDD1F9"/>
<path d="M256.111 58.8496H248.945L249.012 58.4701H256.178L256.111 58.8496Z" fill="#BDD1F9"/>
<path d="M255.971 59.6611H248.806L248.873 59.2804H256.038L255.971 59.6611Z" fill="#BDD1F9"/>
<path d="M249.645 53.0918H247.999L249.429 45.3813H251.075L249.645 53.0918Z" fill="#BDD1F9"/>
<path d="M251.887 53.0918H250.241L251.349 47.1189H252.994L251.887 53.0918Z" fill="#BDD1F9"/>
<path d="M254.129 53.0918H252.483L253.638 46.8621H255.284L254.129 53.0918Z" fill="#BDD1F9"/>
<path d="M256.37 53.0918H254.725L255.604 48.3541H257.249L256.37 53.0918Z" fill="#BDD1F9"/>
<path d="M258.612 53.0918H256.967L257.909 48.0093H259.555L258.612 53.0918Z" fill="#BDD1F9"/>
<path d="M260.855 53.0918H259.209L259.941 49.1503H261.585L260.855 53.0918" fill="#BDD1F9"/>
<path d="M271.656 53.0918H270.011L271.441 45.3813H273.086L271.656 53.0918Z" fill="#F99746"/>
<path d="M273.897 53.0918H272.253L273.36 47.1189H275.005L273.897 53.0918Z" fill="#F99746"/>
<path d="M276.141 53.0918H274.495L275.65 46.8621H277.295L276.141 53.0918Z" fill="#F99746"/>
<path d="M278.38 53.0918H276.734L277.614 48.3541H279.259L278.38 53.0918Z" fill="#F99746"/>
<path d="M280.621 53.0918H278.976L279.918 48.0093H281.564L280.621 53.0918Z" fill="#F99746"/>
<path d="M282.863 53.0918H281.218L281.949 49.1503H283.595L282.863 53.0918Z" fill="#F99746"/>
<path d="M279.58 27.9199H274.224L274.361 27.187H279.717L279.58 27.9199Z" fill="#BDD1F9"/>
<path d="M286.149 27.9199H280.233L280.372 27.187H286.286L286.149 27.9199" fill="#BDD1F9"/>
<path d="M290.366 27.9199H286.595L286.732 27.187H290.504L290.366 27.9199Z" fill="#BDD1F9"/>
<path d="M293.886 27.9199H290.977L291.114 27.187H294.024L293.886 27.9199Z" fill="#BDD1F9"/>
<path d="M278.992 31.0518H273.636L273.773 30.3175H279.129L278.992 31.0518Z" fill="#BDD1F9"/>
<path d="M285.563 31.0518H279.648L279.786 30.3175H285.701L285.563 31.0518" fill="#BDD1F9"/>
<path d="M289.778 31.0518H286.007L286.145 30.3175H289.916L289.778 31.0518Z" fill="#BDD1F9"/>
<path d="M293.297 31.0518H290.388L290.525 30.3175H293.435L293.297 31.0518Z" fill="#BDD1F9"/>
<path d="M282.763 26.209H274.545L274.683 25.4748H282.901L282.763 26.209Z" fill="#BDD1F9"/>
<path d="M288.28 26.209H283.543L283.681 25.4748H288.418L288.28 26.209Z" fill="#BDD1F9"/>
<path d="M294.21 26.209H288.949L289.087 25.4748H294.347L294.21 26.209Z" fill="#BDD1F9"/>
<path d="M282.137 29.5381H273.919L274.057 28.8039H282.275L282.137 29.5381Z" fill="#BDD1F9"/>
<path d="M287.658 29.5381H282.921L283.059 28.8039H287.796L287.658 29.5381Z" fill="#BDD1F9"/>
<path d="M293.587 29.5381H288.326L288.464 28.8039H293.724L293.587 29.5381Z" fill="#BDD1F9"/>
<path d="M278.403 34.1826H273.047L273.185 33.4484H278.541L278.403 34.1826Z" fill="#BDD1F9"/>
<path d="M284.974 34.1826H279.06L279.197 33.4484H285.111L284.974 34.1826Z" fill="#BDD1F9"/>
<path d="M289.189 34.1826H285.418L285.556 33.4484H289.327L289.189 34.1826Z" fill="#BDD1F9"/>
<path d="M292.708 34.1826H289.799L289.936 33.4484H292.846L292.708 34.1826Z" fill="#BDD1F9"/>
<path d="M281.548 32.668H273.33L273.468 31.935H281.686L281.548 32.668Z" fill="#BDD1F9"/>
<path d="M287.069 32.668H282.332L282.47 31.935H287.207L287.069 32.668Z" fill="#BDD1F9"/>
<path d="M292.995 32.668H287.734L287.873 31.935H293.134L292.995 32.668Z" fill="#BDD1F9"/>
<path d="M277.852 37.1172H272.495L272.633 36.383H277.99L277.852 37.1172Z" fill="#BDD1F9"/>
<path d="M284.423 37.1172H278.509L278.646 36.383H284.561L284.423 37.1172Z" fill="#BDD1F9"/>
<path d="M288.637 37.1172H284.867L285.005 36.383H288.775L288.637 37.1172Z" fill="#BDD1F9"/>
<path d="M292.16 37.1172H289.251L289.389 36.383H292.298L292.16 37.1172Z" fill="#BDD1F9"/>
<path d="M280.999 35.6035H272.782L272.92 34.8693H281.137L280.999 35.6035Z" fill="#BDD1F9"/>
<path d="M286.518 35.6035H281.781L281.92 34.8693H286.656L286.518 35.6035" fill="#BDD1F9"/>
<path d="M292.447 35.6035H287.187L287.324 34.8693H292.585L292.447 35.6035Z" fill="#BDD1F9"/>
<path d="M265.664 46.5273H263.042L263.11 46.1689H265.732L265.664 46.5273Z" fill="#BDD1F9"/>
<path d="M268.879 46.5273H265.984L266.051 46.1689H268.946L268.879 46.5273Z" fill="#BDD1F9"/>
<path d="M265.374 48.0605H262.752L262.82 47.7009H265.442L265.374 48.0605Z" fill="#BDD1F9"/>
<path d="M268.59 48.0605H265.695L265.762 47.7009H268.657L268.59 48.0605Z" fill="#BDD1F9"/>
<path d="M267.22 45.6904H263.197L263.265 45.3308H267.287L267.22 45.6904" fill="#BDD1F9"/>
<path d="M269.921 45.6904H267.604L267.67 45.3308H269.989L269.921 45.6904Z" fill="#BDD1F9"/>
<path d="M266.914 47.3203H262.893L262.96 46.9606H266.981L266.914 47.3203Z" fill="#BDD1F9"/>
<path d="M269.618 47.3203H267.299L267.366 46.9606H269.685L269.618 47.3203Z" fill="#BDD1F9"/>
<path d="M286.664 46.5273H284.042L284.11 46.1689H286.732L286.664 46.5273Z" fill="#BDD1F9"/>
<path d="M289.88 46.5273H286.984L287.053 46.1689H289.947L289.88 46.5273Z" fill="#BDD1F9"/>
<path d="M286.376 48.0605H283.755L283.823 47.7009H286.445L286.376 48.0605Z" fill="#BDD1F9"/>
<path d="M289.593 48.0605H286.697L286.765 47.7009H289.66L289.593 48.0605Z" fill="#BDD1F9"/>
<path d="M288.223 45.6904H284.2L284.268 45.3308H288.29L288.223 45.6904" fill="#BDD1F9"/>
<path d="M290.924 45.6904H288.606L288.673 45.3308H290.992L290.924 45.6904Z" fill="#BDD1F9"/>
<path d="M287.915 47.3203H283.893L283.961 46.9606H287.982L287.915 47.3203" fill="#BDD1F9"/>
<path d="M290.621 47.3203H288.302L288.369 46.9606H290.688L290.621 47.3203Z" fill="#BDD1F9"/>
<path d="M300.613 111.587C300.52 112.842 298.751 112.856 296.742 112.622C294.733 112.389 295.267 112.898 292.455 112.936C289.642 112.976 288.672 112.046 288.536 111.644C288.414 111.288 289.77 110.988 291.218 110.634C291.401 110.591 291.584 110.545 291.766 110.498C293.401 110.083 294.484 108.86 295.881 107.792C297.206 106.78 298.913 103.119 298.913 103.119L302.755 102.945C302.755 102.945 301.138 106.228 300.53 107.642C300.172 108.475 300.324 109.497 300.479 110.282C300.563 110.709 300.646 111.145 300.613 111.587" fill="#FFB27D"/>
<path d="M296.742 112.622C294.733 112.389 295.267 112.898 292.455 112.936C289.642 112.976 288.672 112.046 288.536 111.644C288.414 111.288 289.77 110.988 291.218 110.634L291.236 110.662C291.236 110.662 293.047 111.633 295.363 111.401C297.251 111.211 299.177 110.424 300.479 110.282C300.563 110.709 300.646 111.145 300.613 111.587C300.52 112.842 298.751 112.856 296.742 112.622" fill="#233862"/>
<path d="M327.148 111.848C327.058 113.103 325.287 113.118 323.278 112.887C321.269 112.656 321.804 113.163 318.991 113.206C316.178 113.248 315.209 112.319 315.072 111.917C314.949 111.56 316.305 111.258 317.753 110.905C317.936 110.86 318.118 110.814 318.301 110.769C319.935 110.351 321.016 109.127 322.412 108.057C323.736 107.044 322.414 101.046 322.414 101.046L326.64 100.636C326.64 100.636 326.438 105.685 326.44 107.981C326.442 108.887 326.858 109.758 327.014 110.543C327.098 110.97 327.181 111.406 327.148 111.848Z" fill="#FFB27D"/>
<path d="M323.278 112.887C321.269 112.656 321.804 113.163 318.991 113.206C316.178 113.248 315.209 112.319 315.072 111.917C314.949 111.56 316.305 111.258 317.753 110.905L317.771 110.931C317.771 110.931 319.582 111.901 321.899 111.667C323.786 111.476 325.711 110.685 327.014 110.543C327.098 110.97 327.181 111.406 327.148 111.848C327.058 113.103 325.287 113.118 323.278 112.887" fill="#233862"/>
<path d="M314.817 8.19488C314.089 5.2022 315.143 3.80819 316.096 3.06653C316.547 1.96521 317.062 1.17145 317.589 0.872558C318.548 0.325617 319.699 0.266086 320.504 0.314455C320.297 0.0998954 319.889 0.0217658 319.889 0.0217658C320.389 -0.0514078 321.504 0.443444 321.504 0.443444C328.447 -2.23297 329.538 7.99272 329.393 10.369C329.248 12.744 329.267 15.542 332.88 17.4135C339.773 20.9854 330.589 34.4443 330.589 34.4443C330.765 32.5245 321.907 22.393 317.286 19.3582C316.161 17.7025 315.762 14.7768 315.732 14.5461C315.926 16.8666 316.322 18.1676 316.677 18.9005C314.571 16.9621 314.259 12.3062 314.817 8.19488" fill="#A9453D"/>
<path d="M317.559 19.5089C317.535 19.5201 319.79 20.6909 321.485 20.2258C323.08 19.7917 324.123 17.723 324.1 17.7181C323.425 17.5841 323.23 16.6564 323.245 12.6666L322.94 12.7274L317.804 13.7444C317.804 13.7444 317.922 15.3604 317.925 16.8821C317.928 18.1608 317.851 19.3725 317.559 19.5089" fill="#FFB27D"/>
<path d="M317.805 13.7441C317.805 13.7441 317.922 15.3601 317.925 16.8818C320.798 16.8012 322.317 14.1794 322.94 12.7271L317.805 13.7441" fill="#ED975D"/>
<path d="M296.916 105.155C296.664 105.944 297.231 106.757 298.058 106.796L300.063 106.89L302.186 106.954C302.717 106.97 303.224 106.738 303.559 106.327C305.253 104.249 310.468 97.3214 313.631 87.257C313.72 86.9742 313.814 86.6889 313.913 86.4C316.002 80.308 320.333 72.6619 322.615 65.7415C322.978 64.6389 323.304 63.6008 323.597 62.6198C323.69 62.3048 323.782 61.996 323.868 61.6921C325.55 55.8482 326.037 52.0109 326.486 47.9107L310.008 48.0434C310.008 48.0434 306.538 75.0097 296.916 105.155" fill="#2A4E96"/>
<path d="M312.313 38.5728C312.354 46.416 311.162 49.7795 311.162 49.7795C311.162 49.7795 318.219 53.365 326.604 50.7258C326.702 50.6948 332.603 49.0242 332.603 49.0242C332.463 48.7067 331.297 43.4593 331.16 43.1678C329.39 39.3653 328.907 37.7691 328.698 36.6008C328.308 34.418 328.299 32.1596 328.493 30.0301C329.005 24.392 330.527 19.7126 330.527 19.7126C328.242 19.1917 326.102 18.2789 323.725 17.3872C323.178 18.0681 321.505 18.7812 320.054 18.7477C318.384 18.7118 317.843 17.9961 317.928 17.216C316.149 18.2057 314.729 19.1421 314.729 19.1421C313.216 21.7702 310.148 24.3225 309.925 28.3533C309.87 29.3442 312.312 38.3533 312.313 38.5728" fill="white"/>
<path d="M326.484 39.4466C327.204 40.4661 328.584 46.6635 332.021 47.4424C330.25 43.0259 328.906 41.0887 328.696 39.7306C328.307 37.1968 328.298 34.5738 328.491 32.0995C327.342 30.0829 326.484 28.7013 326.484 28.7013C326.393 28.3751 324.656 23.0024 324.099 27.8046C323.543 32.608 325.679 38.3069 326.484 39.4466" fill="#5F9AA8"/>
<path d="M316.846 15.1853C316.846 15.1853 323.643 15.2969 323.648 11.0627C323.653 6.82736 324.534 3.99095 320.193 3.73918C315.854 3.48866 315.008 5.10344 314.664 6.5173C314.318 7.92992 315.078 15.0476 316.846 15.1853Z" fill="#FFB27D"/>
<path d="M317.099 3.63618C317.099 3.63618 318.959 8.60454 321.816 9.33876C324.672 10.073 325.911 9.30775 325.911 9.30775C325.911 9.30775 323.72 7.56771 323.266 4.52915C323.266 4.52915 318.502 1.27107 317.099 3.63618" fill="#A9453D"/>
<path d="M317.56 4.0394C317.56 4.0394 316.17 5.14817 315.832 6.22717C315.492 7.30493 315.339 9.52494 314.693 9.44929C314.693 9.44929 313.291 6.07338 314.867 4.16219C316.537 2.1369 317.56 4.0394 317.56 4.0394Z" fill="#A9453D"/>
<path d="M306.15 44.0164L302.939 53.8068L304.77 54.541L310.079 45.8917L306.15 44.0164" fill="#FFB27D"/>
<path d="M314.804 18.5653C314.804 18.5653 311.018 20.0672 309.923 22.41C308.827 24.7528 307.168 40.464 306.508 42.0776C305.847 43.6911 305.35 44.9685 305.35 44.9685C305.35 44.9685 307.258 46.5771 309.178 46.6949C311.098 46.814 314.804 18.5653 314.804 18.5653Z" fill="#F99746"/>
<path d="M317.93 17.216C317.93 17.216 313.998 26.9319 313.882 28.8989C313.767 30.8647 313.42 61.0568 313.42 61.0568C313.42 61.0568 313.65 62.4447 310.99 61.8655C308.33 61.2875 307.636 60.7096 307.636 60.7096C307.636 60.7096 310.18 42.0863 309.487 35.6073C308.793 29.1296 314.807 18.5653 314.807 18.5653L317.93 17.216" fill="#F99746"/>
<path d="M300.062 106.889L302.367 106.958C302.778 106.972 303.174 106.795 303.436 106.476C304.985 104.601 310.386 97.5784 313.631 87.256C313.72 86.9732 313.813 86.6879 313.912 86.399C316.002 80.307 320.332 72.6609 322.614 65.7405C322.977 64.6379 323.303 63.5998 323.596 62.6188C323.689 62.3038 323.781 61.995 323.868 61.6911L321.441 59.8494C321.441 59.8494 314.155 71.6477 311.899 82.7515C309.94 92.3967 302.094 104.002 300.062 106.889Z" fill="#1E3D70"/>
<path d="M321.187 83.7863C321.147 88.8948 321.389 100.28 322.012 105.846C322.069 106.355 322.499 106.739 323.011 106.739H324.731C325.455 106.739 325.997 106.734 326.358 106.729C326.67 106.724 326.936 106.501 326.996 106.195C328.706 97.4933 329.93 90.264 330.825 84.017C331.574 78.7894 332.241 74.306 332.754 70.4477C333.269 66.5645 333.628 63.3126 333.756 60.5655C333.775 60.1327 333.79 59.7122 333.799 59.303C333.806 58.8924 333.809 58.4943 333.806 58.1061L319.567 56.7183C319.747 66.1788 321.211 80.6473 321.187 83.7863Z" fill="#2A4E96"/>
<path d="M324.73 106.739C325.382 106.739 325.885 106.736 326.241 106.731C326.62 106.726 326.944 106.454 327.017 106.083C328.715 97.4313 329.933 90.2368 330.824 84.017C331.573 78.7894 332.241 74.306 332.753 70.4477C333.269 66.5645 333.627 63.3126 333.755 60.5655L328.53 63.6388C328.53 63.6388 331.865 64.8158 330.592 73.7219C329.32 82.6292 326.501 105.479 324.73 106.739" fill="#1E3D70"/>
<path d="M324.058 60.4775C324.058 60.4775 325.062 64.1015 328.532 63.6389C332.001 63.1763 336.936 61.0939 336.936 61.0939C336.936 61.0939 335.453 56.4084 333.61 50.2519C331.378 42.7993 328.613 33.1913 327.311 27.1315C326.945 25.4324 326.696 24.0148 326.603 22.999L323.725 17.413C323.725 17.413 319.433 27.0484 319.201 29.4768C318.97 31.9064 324.058 60.4775 324.058 60.4775" fill="#F99746"/>
<path d="M327.524 29.1147L323.726 17.4131C323.736 17.4181 328.524 18.8382 330.933 20.0548C330.933 20.0548 332.439 21.997 333.37 26.4755C333.37 26.4755 334.353 37.227 332.156 41.1598C332.156 41.1598 325.216 42.5489 314.112 38.7314V36.1865C314.112 36.1865 326.258 36.8227 328.744 37.1117L327.524 29.1147" fill="#FFB27D"/>
<path d="M324.21 34.5668C324.365 38.4995 325.291 46.1344 333.541 50.2209C333.563 50.2321 333.585 50.2433 333.608 50.252C331.375 42.7994 328.611 33.1914 327.309 27.1316C325.794 29.3963 324.126 32.4013 324.21 34.5668Z" fill="#ED7D2B"/>
<path d="M323.724 17.4127C323.724 17.4127 330.767 17.9088 332.463 21.6878C334.159 25.4668 334.699 38.0365 332.54 41.7386C332.54 41.7386 329.567 42.5844 324.31 41.6022C324.246 41.5898 324.182 41.5774 324.116 41.565C324.116 41.565 322.439 37.4586 323.942 36.6487C323.942 36.6487 328.376 36.8794 327.913 35.4147C327.45 33.95 323.724 17.4127 323.724 17.4127" fill="#F99746"/>
<path d="M306.065 37.7588L306.273 38.4248L317.829 34.8294C317.829 34.8294 317.984 34.6545 317.907 34.4213C317.824 34.1634 317.622 34.1634 317.622 34.1634L306.065 37.7588" fill="#A9453D"/>
<path d="M305.229 38.3888L306.064 37.7588L306.271 38.4248L305.229 38.3888Z" fill="#A9453D"/>
<path d="M303.395 53.5382C303.395 53.5382 300.462 55.1579 300.076 56.3932C299.69 57.6272 299.956 60.2119 300.421 60.1734C300.887 60.135 301.582 57.3953 301.967 57.2031C302.353 57.0096 302.892 56.4316 302.892 56.8558C302.892 57.2799 302.507 58.0514 302.7 58.168C302.892 58.2833 303.51 57.0877 303.934 56.8558C304.358 56.6239 304.537 54.7164 304.948 54.2042C305.361 53.692 303.395 53.5382 303.395 53.5382Z" fill="#FFB27D"/>
<path d="M314.112 36.1864C314.112 36.1864 311.49 34.5716 310.39 34.8197C309.29 35.0677 306.488 37.098 307.836 37.5383C309.184 37.9773 310.276 37.5172 310.795 37.8359C311.313 38.1559 311.696 38.7388 314.112 38.7314C316.529 38.7227 314.112 36.1864 314.112 36.1864Z" fill="#FFB27D"/>
<path d="M187.131 112.573H187.088C186.96 112.573 186.844 112.52 186.762 112.436H187.472C187.384 112.521 187.263 112.573 187.131 112.573Z" fill="#A6C4EF"/>
<path d="M186.763 112.436C186.681 112.351 186.631 112.236 186.635 112.108L187.291 83.6461H189.258L187.622 112.111C187.615 112.238 187.559 112.352 187.473 112.436H186.763" fill="#A1C0ED"/>
<path d="M175.314 112.573H175.27C175.142 112.573 175.027 112.521 174.945 112.437H175.653C175.565 112.521 175.445 112.573 175.314 112.573Z" fill="#A6C4EF"/>
<path d="M174.947 112.438C174.865 112.353 174.814 112.237 174.818 112.109L175.475 83.5947C175.62 83.6282 175.771 83.6468 175.927 83.6468H177.44L175.805 112.111C175.797 112.24 175.741 112.354 175.655 112.438H174.947Z" fill="#A1C0ED"/>
<path d="M207.965 112.573H207.922C207.789 112.573 207.667 112.52 207.578 112.433H208.294C208.211 112.52 208.094 112.573 207.965 112.573Z" fill="#A6C4EF"/>
<path d="M207.579 112.434C207.495 112.35 207.44 112.238 207.433 112.111L205.797 83.6466H207.764L208.42 112.109C208.423 112.235 208.375 112.349 208.294 112.434H207.579" fill="#A1C0ED"/>
<path d="M201.731 80.418H173.971V59.9703C173.971 56.3724 176.887 53.4554 180.485 53.4554H195.216C198.814 53.4554 201.731 56.3724 201.731 59.9703V80.418Z" fill="#A1C0ED"/>
<path d="M186.26 83.6465H175.928C175.771 83.6465 175.62 83.6279 175.475 83.5944C174.613 83.3898 173.971 82.6146 173.971 81.6906V80.4182H201.731H204.37H186.26C185.462 80.4182 184.814 81.0656 184.814 81.8643V82.2004C184.814 82.9991 185.462 83.6465 186.26 83.6465" fill="#A1C0ED"/>
<path d="M207.776 83.6465H186.258C185.46 83.6465 184.812 82.9991 184.812 82.2004V81.8643C184.812 81.0656 185.46 80.4182 186.258 80.4182H204.368H207.776C208.576 80.4182 209.223 81.0656 209.223 81.8643V82.2004C209.223 82.9991 208.576 83.6465 207.776 83.6465" fill="#A1C0ED"/>
<path d="M223.876 100.675C224.082 101.703 225.547 101.532 227.184 101.131C228.821 100.732 228.431 101.207 230.76 100.949C233.09 100.691 233.796 99.8229 233.867 99.4768C233.93 99.1693 232.779 99.0614 231.545 98.9187C231.389 98.9014 231.234 98.8815 231.078 98.8629C229.684 98.688 228.663 97.7889 227.397 97.0497C226.198 96.3502 224.408 93.4989 224.408 93.4989L221.214 93.7519C221.214 93.7519 222.89 96.2981 223.539 97.4056C223.92 98.0568 223.9 98.9175 223.853 99.5822C223.828 99.9444 223.804 100.313 223.876 100.675" fill="#FFB27D"/>
<path d="M227.182 101.131C228.819 100.732 228.429 101.207 230.758 100.949C233.088 100.691 233.794 99.8229 233.865 99.4768C233.928 99.1693 232.777 99.0614 231.543 98.9187L231.531 98.9423C231.531 98.9423 230.134 99.9332 228.196 99.9791C226.615 100.018 224.942 99.5649 223.851 99.5822C223.826 99.9444 223.802 100.313 223.874 100.675C224.08 101.703 225.545 101.532 227.182 101.131" fill="#233862"/>
<path d="M196.425 105.272C195.79 106.107 196.887 107.092 198.27 108.054C199.653 109.018 199.039 109.04 200.773 110.616C202.508 112.193 203.625 112.148 203.933 111.972C204.205 111.816 203.525 110.882 202.815 109.861C202.725 109.733 202.637 109.603 202.547 109.474C201.756 108.313 201.756 106.953 201.472 105.514C201.204 104.152 203.428 99.1456 203.428 99.1456L199.855 98.6954C199.855 98.6954 199.388 101.719 198.987 102.938C198.75 103.655 197.758 104.128 197.228 104.531C196.941 104.751 196.648 104.978 196.425 105.272" fill="#FFB27D"/>
<path d="M198.27 108.054C199.653 109.018 199.039 109.04 200.773 110.616C202.508 112.193 203.625 112.148 203.933 111.972C204.205 111.816 203.525 110.882 202.815 109.861L202.789 109.869C202.789 109.869 201.122 109.475 199.805 108.053C198.731 106.893 197.963 105.338 197.228 104.531C196.941 104.751 196.648 104.978 196.425 105.272C195.79 106.107 196.887 107.092 198.27 108.054" fill="#233862"/>
<path d="M211.017 79.6776L207.753 88.4609L203.492 99.9293C203.492 99.9293 202.336 100.041 201.229 99.7222C200.209 99.427 199.04 98.6568 199.04 98.6568C199.04 98.6568 200.223 86.3426 202.431 79.2745C202.996 77.4601 203.63 75.9929 204.329 75.1656C207.751 71.1225 211.017 79.6776 211.017 79.6776" fill="#163560"/>
<path d="M207.7 65.7284C205.562 65.0388 199.119 65.4506 192.994 66.6499L192.055 65.0078L178.823 63.9747C178.823 63.9747 174.457 73.6584 176.847 79.8286C177.198 80.7352 177.897 81.3168 179.087 81.3367H179.281C179.281 81.3367 187.155 81.3317 189.712 81.3317C196.294 81.3317 203.639 76.8074 204.59 76.6176C206.145 76.3063 206.768 79.4181 208.323 82.6848C209.878 85.9516 222.944 97.1521 222.944 97.1521C222.944 97.1521 224.953 97.1719 225.782 96.8606C226.674 96.5258 227 96.0917 227 96.0917C227 96.0917 212.523 67.2836 207.7 65.7284" fill="#2A4E96"/>
<path d="M187.419 24.9519C185.557 24.5079 183.028 25.0288 182.608 25.0772C177.584 25.6638 176.46 33.471 176.833 35.6538C177.523 39.6784 175.589 40.8119 173.283 44.0303C168.66 50.4833 171.853 55.7976 175.618 57.1148C177.876 57.9048 180.953 55.753 180.953 55.753C181.01 55.7741 188.943 48.2 192.868 44.5202C199.464 41.8017 192.166 26.0817 187.419 24.9519Z" fill="#233862"/>
<path d="M188.496 43.3572C188.519 43.3646 186.449 44.7165 184.763 44.4325C183.177 44.1658 181.498 42.0959 181.519 42.0884C182.16 41.8937 182.727 41.1446 182.326 37.2838L182.627 37.3123L187.698 37.7985C187.698 37.7985 187.742 39.3748 187.885 40.8494C188.006 42.0872 188.199 43.253 188.496 43.3572" fill="#FFB27D"/>
<path d="M187.698 37.7986C187.698 37.7986 187.741 39.3749 187.885 40.8496C185.096 41.0492 183.371 38.6593 182.627 37.3124L187.698 37.7986Z" fill="#ED975D"/>
<path d="M188.766 39.1022C188.766 39.1022 182.196 39.8699 181.781 35.7697C181.365 31.6707 180.238 29.008 184.416 28.3445C188.594 27.6809 189.568 29.163 190.04 30.4975C190.511 31.832 190.465 38.7959 188.766 39.1022" fill="#FFB27D"/>
<path d="M189.255 28.3921C189.255 28.3921 186.082 32.9351 183.388 33.9235C180.694 34.912 179.42 34.2906 179.42 34.2906C179.42 34.2906 180.705 32.5208 181.129 30.0863C181.254 29.3682 181.753 28.7704 182.44 28.5298C184.372 27.8551 188.097 26.822 189.255 28.3921Z" fill="#233862"/>
<path d="M186.635 28.7264C186.635 28.7264 188.331 29.695 189.008 30.5619C189.662 31.3979 190.361 33.6191 190.26 34.5977C190.26 34.5977 191.329 29.9344 189.617 28.2378C187.803 26.4382 186.635 28.7264 186.635 28.7264Z" fill="#233862"/>
<path d="M193.549 54.2338C193.351 67.508 193.495 64.7348 192.042 65.9937C191.693 66.2975 190.709 66.4774 189.415 66.5629C185.346 66.8333 178.192 66.1623 177.919 65.4108C176.98 62.8075 177.643 61.9989 176.86 58.0153C176.778 57.5911 176.677 57.1322 176.558 56.6324C175.906 53.8965 175.27 52.9651 177.586 48.5685C179.688 44.5861 181.957 41.4049 182.152 41.5215C187.696 44.8118 188.057 41.9952 188.057 41.9952C188.057 41.9952 193.646 47.7598 193.549 54.2338" fill="white"/>
<path d="M207.752 88.4606L203.395 100.407C203.395 100.407 201.83 100.916 200.689 100.751C199.528 100.581 198.891 99.9477 198.891 99.9477C198.891 99.9477 200.223 86.3423 202.43 79.2743L207.752 88.4606" fill="#2A4E96"/>
<path d="M188.058 41.9948C188.058 41.9948 193.761 42.9622 194.431 45.4179C195.101 47.8735 199.999 61.4069 199.999 61.4069C199.999 61.4069 196.143 62.8319 194.803 61.4925C193.463 60.1531 190.142 49.0642 190.142 49.0642L188.058 41.9948Z" fill="white"/>
<path d="M189.412 66.5629C185.344 66.8333 178.189 66.1623 177.916 65.4108C176.978 62.8075 177.641 61.9989 176.857 58.0153L178.767 53.6683C178.767 53.6683 178.496 58.6428 180.311 60.2613C182.124 61.8811 187.743 63.3867 188.626 64.7398C189.051 65.3897 189.332 66.0408 189.412 66.5629" fill="#DFEBFD"/>
<path d="M189.745 63.731C189.745 63.731 190.957 64.7766 191.301 64.8621C191.646 64.9452 191.843 64.8671 191.843 64.8671L190.959 63.8327L189.745 63.731" fill="#FFB27D"/>
<path d="M189.266 62.4996L192.335 63.2921C192.335 63.2921 192.256 63.5104 191.908 63.5637C191.561 63.6183 190.629 63.4757 190.629 63.4757L189.266 62.4996" fill="#FFB27D"/>
<path d="M184.062 64.1904C184.062 64.1904 188.444 62.2407 189.266 62.4987C190.089 62.7567 192.198 63.8729 192.529 64.3429C192.86 64.813 190.801 64.2846 190.159 64.245C189.742 64.2189 188.776 64.7894 188.296 65.066C186.277 66.2256 184.876 66.1227 184.876 66.1227L184.062 64.1904Z" fill="#FFB27D"/>
<path d="M182.152 41.522C182.152 41.522 175.954 42.6853 174.806 44.403C172.301 48.1522 166.967 63.6849 169.953 65.7672C173.318 68.1137 185.262 66.3811 185.262 66.3811C185.262 66.3811 185.659 64.5233 185.106 63.6241C184.554 62.7249 175.566 61.2738 175.152 60.8584C174.736 60.4441 179.249 54.4452 178.769 53.2967C177.229 49.6194 182.152 41.522 182.152 41.522Z" fill="white"/>
<path d="M206.656 63.5282C206.656 63.5282 210.994 64.7002 211.439 65.3737C211.886 66.0471 212.759 68.1059 212.721 68.6429C212.684 69.1799 211.5 67.58 211.057 67.1708C210.77 66.9054 209.729 66.7503 209.217 66.6672C207.928 66.4576 207.306 65.8673 206.823 65.5734C206.499 65.3762 206.105 65.4134 206.105 65.4134L206.656 63.5282" fill="#FFB27D"/>
<path d="M211.06 66.5539C211.06 66.5539 211.322 68.031 211.523 68.2952C211.726 68.5606 211.914 68.6201 211.914 68.6201L211.883 67.3452L211.06 66.5539" fill="#FFB27D"/>
<path d="M211.439 65.3742L213.204 67.7641C213.204 67.7641 213.017 67.8757 212.732 67.7095C212.448 67.5433 211.854 66.8897 211.854 66.8897L211.439 65.3742Z" fill="#FFB27D"/>
<path d="M206.821 65.5739C206.821 65.5739 207.223 66.55 208.025 66.8997C208.829 67.2507 209.418 67.7766 209.547 67.5868C209.676 67.3983 208.939 66.4024 208.939 66.4024L206.821 65.5739Z" fill="#FFB27D"/>
<path d="M198.847 58.2065L207.97 63.9748C207.97 63.9748 207.012 65.2559 206.692 65.3737C205.003 65.9926 197.406 65.3998 194.803 61.4918L198.847 58.2065" fill="white"/>
<path d="M195.229 64.4747C195.767 64.4747 201.122 64.1039 201.122 64.1039C201.122 64.1039 200.967 65.0527 201.298 65.5612L196.079 66.5596L195.008 66.2446L195.229 64.4747" fill="#F9DDBF"/>
<path d="M186.297 65.3356L195.229 64.4749C195.229 64.4749 194.915 66.1281 196.079 66.5597L186.234 67.2803C186.234 67.2803 185.44 66.1628 186.297 65.3356" fill="#F99746"/>
<path d="M201.108 64.2214L195.072 64.6865C195.072 64.6865 195.117 64.4782 195.23 64.4744C195.343 64.472 201.226 64.0453 201.226 64.0453L201.205 64.2103L201.108 64.2214" fill="#F99746"/>
<path d="M196.082 66.5596L201.398 65.5488L201.348 65.4111L195.684 66.4963L196.082 66.5596" fill="#F99746"/>
<path d="M134.223 112.526H134.175C133.892 112.526 133.665 112.292 133.671 112.008L134.435 78.6879L136.686 78.4238L134.767 112.01C134.75 112.299 134.512 112.526 134.223 112.526" fill="#77A4E5"/>
<path d="M121.105 112.526H121.057C120.774 112.526 120.546 112.292 120.553 112.008L121.317 78.6879L123.568 78.4238L121.649 112.01C121.632 112.299 121.393 112.526 121.105 112.526" fill="#77A4E5"/>
<path d="M157.302 112.526H157.35C157.633 112.526 157.861 112.292 157.854 112.008L157.09 78.6879L154.839 78.4238L156.758 112.01C156.775 112.299 157.014 112.526 157.302 112.526" fill="#77A4E5"/>
<path d="M119.612 76.6213V53.7887C119.612 49.7715 122.85 46.5147 126.844 46.5147H143.197C147.19 46.5147 150.428 49.7715 150.428 53.7887V77.4932L119.612 76.6213" fill="#77A4E5"/>
<path d="M153.358 80.2256H121.79C120.587 80.2256 119.612 79.2508 119.612 78.0477V76.6215H153.358V80.2256Z" fill="#77A4E5"/>
<path d="M157.138 80.2256H133.261C132.371 80.2256 131.65 79.505 131.65 78.6158V78.2313C131.65 77.3421 132.371 76.6215 133.261 76.6215H157.138C158.028 76.6215 158.749 77.3421 158.749 78.2313V78.6158C158.749 79.505 158.028 80.2256 157.138 80.2256Z" fill="#77A4E5"/>
<path d="M144.299 38.0815C144.299 38.0815 142.93 39.2461 142.633 42.266C142.407 44.5592 143.998 62.3615 145.195 63.7766C148.562 67.7565 152.783 66.0747 154.436 66.6787L155.996 65.2773C155.996 65.2773 150.512 61.2304 150.095 59.9095C148.488 54.8258 149.484 40.0014 144.299 38.0815" fill="#F9DDBF"/>
<path d="M143.314 23.5604C143.314 23.5604 143.406 20.2961 139.101 19.6549C134.795 19.0149 133.606 20.0208 132.874 21.1196C132.141 22.2172 130.769 26.7019 130.906 28.4866C131.043 30.2713 135.954 32.4776 135.874 33.5194C135.794 34.56 143.314 23.5604 143.314 23.5604Z" fill="#163560"/>
<path d="M163.282 109.71C163.143 110.812 164.647 111.137 166.397 111.291C168.148 111.445 167.605 111.791 169.992 112.321C172.379 112.854 173.367 112.219 173.551 111.895C173.718 111.607 172.616 111.107 171.444 110.545C171.297 110.476 171.148 110.403 171 110.331C169.682 109.682 168.974 108.431 167.97 107.259C167.017 106.148 166.2 102.674 166.2 102.674L162.96 101.844C162.96 101.844 163.767 104.973 164.038 106.306C164.198 107.09 163.891 107.95 163.622 108.602C163.477 108.957 163.331 109.32 163.282 109.71Z" fill="#FFB27D"/>
<path d="M166.398 111.291C168.149 111.445 167.606 111.791 169.994 112.321C172.381 112.854 173.368 112.219 173.553 111.895C173.719 111.607 172.618 111.107 171.446 110.545L171.426 110.565C171.426 110.565 169.716 111.087 167.785 110.476C166.21 109.979 164.708 108.954 163.624 108.602C163.479 108.957 163.332 109.32 163.283 109.71C163.144 110.812 164.649 111.137 166.398 111.291Z" fill="#233862"/>
<path d="M139.022 64.7267C139.022 64.7267 160.685 66.974 164.256 70.2916C167.826 73.608 167.19 104.505 167.19 104.505C166.635 105.081 166.224 105.068 165.346 104.999C164.503 104.932 162.785 104.208 162.785 104.208C162.785 104.208 158.145 89.0365 158.087 85.5241C158.029 82.0106 157.296 76.05 155.822 75.6978C154.349 75.3468 136.811 77.3138 134.888 71.7737C132.966 66.2336 136.158 61.6758 136.158 61.6758L139.022 64.7267" fill="#ED7D2B"/>
<path d="M128.903 70.2997C129.838 70.9248 131.509 71.8897 134.313 71.9902C139.331 72.1725 145.593 71.5747 146.826 70.4101C147.145 70.11 147.302 69.6114 147.346 68.9801C147.482 67.054 146.562 63.8853 145.945 61.2634C145.544 59.5606 145.271 58.0884 145.494 57.3368C146.175 55.0461 148.29 50.3804 148.473 48.8475C148.655 47.3145 146.826 39.098 144.296 38.081C141.765 37.0628 132.002 38.081 132.002 38.081C128.187 38.8549 128.027 46.9884 129.294 53.9113C129.326 54.0899 129.359 54.2673 129.394 54.4422C130.766 61.4718 126.295 68.5522 128.903 70.2997" fill="#F9DDBF"/>
<path d="M141.517 39.5771C141.449 40.0236 140.228 40.7466 137.618 40.0595C135.117 39.3997 134.817 38.5849 134.817 38.0479C134.818 37.4104 135.904 36.5534 135.89 32.6355L136.19 32.6951L141.232 33.6935C141.232 33.6935 141.117 35.2797 141.114 36.7754C141.111 38.0305 141.632 38.8354 141.517 39.5771" fill="#FFB27D"/>
<path d="M141.232 33.6934C141.232 33.6934 141.118 35.2797 141.114 36.7754C138.293 36.696 136.801 34.1213 136.19 32.695L141.232 33.6934" fill="#ED975D"/>
<path d="M142.176 35.1081C142.176 35.1081 135.5 35.2185 135.496 31.06C135.491 26.9015 134.627 24.1147 138.888 23.8692C143.15 23.6224 143.98 25.2086 144.319 26.5964C144.658 27.9842 143.912 34.9729 142.176 35.1081" fill="#FFB27D"/>
<path d="M141.927 23.7678C141.927 23.7678 140.099 28.6456 137.294 29.3674C134.489 30.0892 133.272 29.3376 133.272 29.3376C133.272 29.3376 135.424 27.6274 135.87 24.6434C135.87 24.6434 140.548 21.4448 141.927 23.7678Z" fill="#163560"/>
<path d="M141.475 24.1635C141.475 24.1635 142.84 25.2524 143.172 26.3116C143.505 27.3707 143.655 29.5511 144.29 29.4767C144.29 29.4767 145.667 26.1603 144.12 24.2851C142.479 22.2957 141.475 24.1635 141.475 24.1635" fill="#163560"/>
<path d="M147.015 110.616C146.999 111.728 148.53 111.877 150.286 111.828C152.042 111.779 151.541 112.185 153.972 112.438C156.403 112.691 157.313 111.947 157.461 111.603C157.594 111.299 156.444 110.93 155.217 110.507C155.063 110.453 154.908 110.399 154.753 110.344C153.371 109.851 152.528 108.69 151.399 107.641C150.33 106.647 152.69 101.839 152.69 101.839L149.597 100.308C149.597 100.308 149.01 103.74 148.255 106.744C148.06 107.519 147.424 108.798 147.23 109.476C147.125 109.846 147.02 110.224 147.015 110.616" fill="#FFB27D"/>
<path d="M129.037 69.4726C129.972 70.0989 131.51 71.8898 134.314 71.9902C138.942 70.9373 144.212 69.7119 147.347 68.9802C147.483 67.0541 146.563 63.8853 145.945 61.2635C142.29 62.3797 136.851 58.5772 135.022 57.074C133.101 55.4952 133.161 50.2354 133.161 50.2354L129.294 53.9114C129.327 54.09 129.36 54.2674 129.395 54.4422C130.767 61.4718 126.429 67.7251 129.037 69.4726" fill="#F2CCAA"/>
<path d="M150.286 111.828C152.042 111.779 151.541 112.185 153.972 112.438C156.403 112.691 157.313 111.947 157.461 111.603C157.594 111.299 156.444 110.93 155.217 110.507L155.2 110.528C155.2 110.528 153.559 111.243 151.572 110.859C149.953 110.545 148.346 109.702 147.23 109.476C147.125 109.846 147.02 110.224 147.015 110.616C146.999 111.728 148.53 111.877 150.286 111.828" fill="#233862"/>
<path d="M134.35 66.049C139.85 65.8915 156.277 67.2037 159.433 69.5824C163.317 72.5119 152.22 104.186 152.22 104.186C152.22 104.186 150.932 104.31 150.524 104.264C148.761 104.065 148.044 103.528 148.044 103.528C148.044 103.528 148.086 84.8856 149.383 81.3187C150.581 78.0247 151.315 76.8589 149.814 76.6617C148.313 76.4645 129.58 78.8544 128.017 73.199C126.796 68.7813 128.6 64.6922 128.6 64.6922C128.6 64.6922 129.276 66.1929 134.35 66.049" fill="#F99746"/>
<path d="M132.003 38.0811C132.003 38.0811 128.182 38.4048 127.885 41.4248C127.659 43.718 125.997 59.9836 127.194 61.3987C130.561 65.3786 141.79 66.2232 143.444 66.8271L143.898 64.9445C143.898 64.9445 131.911 58.9046 132.094 57.5316C132.277 56.1587 135.667 37.5379 132.003 38.0811Z" fill="#F9DDBF"/>
<path d="M134.953 21.2977C134.953 21.2977 135.227 19.5551 132.812 19.1062C130.396 18.656 130.351 23.788 130.092 25.0258C129.833 26.2623 130.478 27.004 131.399 27.0784C132.321 27.154 134.953 21.2977 134.953 21.2977" fill="#163560"/>
<path d="M144.03 64.8614C144.03 64.8614 147.444 63.8953 148.257 64.121C149.071 64.3467 151.857 66.1922 151.465 66.6932C151.073 67.1943 148.619 66.3931 147.489 66.5456C146.36 66.6969 145.486 67.2538 144.673 67.1335C143.86 67.0132 143.01 66.6932 143.01 66.6932L144.03 64.8614" fill="#FFB27D"/>
<path d="M144.028 64.8616C144.028 64.8616 145.699 64.0034 146.174 63.5147C146.234 63.454 146.335 63.4664 146.381 63.5395C146.509 63.7405 146.628 64.1274 146.042 64.5131C145.198 65.0687 144.028 64.8616 144.028 64.8616" fill="#FFB27D"/>
<path d="M155.994 65.2772C155.994 65.2772 159.537 65.4719 160.233 65.9494C160.929 66.4269 162.965 69.076 162.432 69.4233C161.899 69.7706 159.837 68.2153 158.72 67.9921C157.602 67.7701 156.595 68.0132 155.865 67.6349C155.135 67.2579 154.435 66.6787 154.435 66.6787L155.994 65.2772Z" fill="#FFB27D"/>
<path d="M131.656 112.817H117.242C116.549 111.97 116.804 108.849 116.909 107.829C116.931 107.623 116.945 107.504 116.945 107.504C116.945 107.504 121.868 103.567 122.544 106.582C122.564 106.677 122.589 106.769 122.617 106.859C123.469 109.68 127.289 110.962 129.496 111.318C130.93 111.551 131.46 112.296 131.656 112.817" fill="#1B3051"/>
<path d="M92.3263 65.9757C92.8466 65.9757 117.018 70.5137 121.016 75.4634C123.013 77.9364 123.31 106.491 123.31 106.491C123.31 106.491 120.839 109.556 115.502 107.776C115.502 107.776 111.589 88.239 111.878 82.3132C111.958 80.6749 95.3636 82.0763 92.3263 81.29C89.2889 80.5037 81.8678 73.8958 83.503 70.6774C85.1382 67.4577 92.3263 65.9757 92.3263 65.9757" fill="#233862"/>
<path d="M109.828 64.6331C109.828 64.6331 111.375 65.9676 112.961 66.3446C113.866 66.5604 114.742 66.8059 115.263 67.0453C116.699 67.7039 119.422 70.6445 119.168 70.9371C118.356 71.8748 115.086 69.4328 114.461 69.6051C113.835 69.7775 115.487 71.1964 114.832 71.5821C114.49 71.7842 113.845 70.5576 113.242 70.3852C112.425 70.1521 111.884 68.9193 111.64 68.835C111.164 68.6712 109.178 66.8903 109.178 66.8903L109.828 64.6331" fill="#FFB27D"/>
<path d="M138.028 112.817H123.613C122.92 111.97 123.175 108.849 123.28 107.829C123.302 107.623 123.317 107.504 123.317 107.504C123.317 107.504 128.239 103.567 128.915 106.582C128.935 106.677 128.961 106.769 128.988 106.859C129.84 109.68 133.66 110.962 135.867 111.318C137.301 111.551 137.831 112.296 138.028 112.817" fill="#1E3C68"/>
<path d="M99.4474 65.9757C99.9677 65.9757 124.139 70.5137 128.137 75.4634C130.134 77.9364 130.431 106.491 130.431 106.491C130.431 106.491 127.96 109.556 122.623 107.776C122.623 107.776 118.711 88.239 118.999 82.3132C119.079 80.6749 102.485 82.0763 99.4474 81.29C96.41 80.5037 88.9889 73.8958 90.6241 70.6774C92.2593 67.4577 99.4474 65.9757 99.4474 65.9757" fill="#2B478B"/>
<path d="M97.9352 36.5991C96.1963 36.4552 94.3732 35.9913 92.7975 35.4804C90.8279 34.8416 89.2403 33.9065 90.2634 32.1069C91.2062 30.4475 92.7323 26.7405 92.6291 23.6697L96.2943 26.6239L98.7839 28.6293C98.7839 28.6293 98.7738 29.8125 98.5017 31.8862C98.4518 32.2632 98.3937 32.6712 98.325 33.1078C98.2697 33.46 98.4315 33.811 98.7343 33.9995C98.7532 34.0107 98.7719 34.0219 98.7906 34.0343C100.028 34.8119 99.3915 36.7194 97.9352 36.5991" fill="#FFB27D"/>
<path d="M98.7853 28.1428C98.7853 28.1428 98.9127 28.5719 98.6939 30.1582C96.4744 29.7961 94.3994 28.025 94.3994 28.025C95.5294 27.715 95.9406 26.4933 96.7823 26.6074L98.7853 28.1428Z" fill="#ED975D"/>
<path d="M100.838 28.5036C100.838 28.5036 92.3006 29.9224 91.4991 24.5919C90.6976 19.2601 89.0558 15.8532 94.4732 14.7221C99.8905 13.591 101.258 15.465 101.958 17.1803C102.658 18.8943 103.039 27.9976 100.838 28.5036" fill="#FFB27D"/>
<path d="M103.212 14.8207C103.578 16.1044 102.597 17.6671 100.95 18.1817C98.5052 18.947 99.0454 21.9458 97.9451 21.9049C96.8449 21.864 96.4011 20.181 95.4184 21.5254C94.5801 22.6726 96.1161 24.0332 96.0104 24.6619C95.829 25.7422 94.1374 27.9523 92.613 27.8407C91.0887 27.7303 88.2363 20.4849 88.8067 18.2438C89.3772 16.0027 91.6593 13.6388 93.8189 13.3126C95.9787 12.9864 98.9779 13.9191 99.6706 13.9191C100.363 13.9191 103.014 14.1262 103.212 14.8207" fill="#2B478B"/>
<path d="M105.33 64.3769C105.187 65.6072 104.928 66.4443 104.521 66.7159C103.248 67.5692 101.561 68.6284 99.6773 69.6788C92.9988 73.4033 83.8553 76.9974 81.9958 70.7033C79.8109 63.3103 81.2464 49.4284 83.3888 40.8063C84.622 35.8392 88.0333 30.6265 90.3395 30.6315C94.2689 30.6389 99.9179 31.6757 102.199 37.3027C103.082 39.483 104.38 47.0372 105.042 53.9565C105.437 58.079 105.606 61.9758 105.33 64.3769" fill="white"/>
<path d="M89.9434 30.6795L90.8331 28.674C90.8331 28.674 98.7216 29.4777 100.06 34.0107C100.06 34.0107 93.9623 30.7762 89.9434 30.6795" fill="#DFEBFD"/>
<path d="M105.331 64.3767C105.188 65.607 104.929 66.4442 104.522 66.7158C103.249 67.5691 101.561 68.6282 99.6777 69.6787C97.7124 68.4831 93.6772 65.6318 92.7336 62.2721C91.5004 57.8779 92.3648 52.4718 92.3648 52.4718L105.331 64.3767Z" fill="#DFEBFD"/>
<path d="M91.5439 37.4404C91.5439 37.4404 92.2281 56.3229 93.3018 60.056C95.1327 66.4233 111.831 68.6904 111.831 68.6904C111.831 68.6904 112.817 67.5742 112.376 65.7226C112.376 65.7226 102.393 57.8533 102.101 56.3551C101.809 54.8569 104.276 44.7044 101.457 41.0135C98.637 37.3213 93.4383 34.1228 91.5439 37.4404Z" fill="white"/>
<path d="M70.607 112.638L70.552 112.636C70.1024 112.628 69.7551 112.261 69.7974 111.838L72.7973 81.8749L75.415 82.1081L71.1075 112.232C71.0738 112.468 70.8586 112.643 70.607 112.638" fill="#77A4E5"/>
<path d="M86.0485 112.638L85.9935 112.636C85.5438 112.628 85.1964 112.261 85.2389 111.838L88.2388 81.8749L90.8564 82.1081L86.5489 112.232C86.5152 112.468 86.3 112.643 86.0485 112.638" fill="#77A4E5"/>
<path d="M115.038 112.638L115.093 112.636C115.543 112.628 115.89 112.261 115.848 111.838L112.848 81.8749L110.23 82.1081L114.538 112.232C114.572 112.468 114.787 112.643 115.038 112.638" fill="#77A4E5"/>
<path d="M71.4558 77.6308L68.6085 52.6042C68.2352 48.9989 69.442 45.4667 74.6456 45.1938L83.8003 44.6357C89.2263 44.4125 91.676 48.9282 92.3629 52.4058L97.7975 79.9141L71.4558 77.6308" fill="#77A4E5"/>
<path d="M72.9842 82.3135H113.615C114.432 82.3135 115.1 81.6462 115.1 80.8289V79.0021C115.1 78.1848 114.432 77.5175 113.615 77.5175H71.5V80.8289C71.5 81.6462 72.1679 82.3135 72.9842 82.3135Z" fill="#77A4E5"/>
<path d="M72.6527 82.3135H96.6434C97.2775 82.3135 97.7961 81.7951 97.7961 81.1613V78.6697C97.7961 78.0359 97.2775 77.5175 96.6434 77.5175H71.5V81.1613C71.5 81.7951 72.0187 82.3135 72.6527 82.3135" fill="#77A4E5"/>
<path d="M420.888 113.924H59.2099C58.929 113.924 58.6992 113.694 58.6992 113.414V112.949C58.6992 112.667 58.929 112.438 59.2099 112.438H420.888C421.17 112.438 421.399 112.667 421.399 112.949V113.414C421.399 113.694 421.17 113.924 420.888 113.924Z" fill="#2E3552"/>
<g filter="url(#filter0_d_136_1062)">
<rect x="38" y="113.827" width="404.1" height="48.3515" rx="10.8048" fill="white"/>
<rect x="51.5098" y="125.712" width="114.261" height="24.667" rx="6.48289" fill="#FAFAFA"/>
<path d="M68.9592 140.545H68.4184L66.2434 137.247V140.545H65.7027V136.397H66.2434L68.4184 139.689V136.397H68.9592V140.545ZM69.679 138.905C69.679 138.572 69.7464 138.281 69.8811 138.031C70.0158 137.778 70.2 137.582 70.4337 137.443C70.6715 137.304 70.9349 137.235 71.2241 137.235C71.5094 137.235 71.757 137.296 71.9669 137.419C72.1769 137.542 72.3334 137.696 72.4364 137.883V137.288H72.9831V140.545H72.4364V139.939C72.3295 140.129 72.169 140.287 71.9551 140.414C71.7451 140.537 71.4995 140.598 71.2182 140.598C70.929 140.598 70.6675 140.527 70.4337 140.384C70.2 140.242 70.0158 140.042 69.8811 139.784C69.7464 139.527 69.679 139.234 69.679 138.905ZM72.4364 138.911C72.4364 138.665 72.3869 138.451 72.2879 138.269C72.1888 138.087 72.0541 137.948 71.8838 137.853C71.7174 137.754 71.5331 137.704 71.3311 137.704C71.129 137.704 70.9448 137.752 70.7784 137.847C70.612 137.942 70.4793 138.081 70.3803 138.263C70.2812 138.445 70.2317 138.659 70.2317 138.905C70.2317 139.154 70.2812 139.372 70.3803 139.558C70.4793 139.741 70.612 139.881 70.7784 139.98C70.9448 140.075 71.129 140.123 71.3311 140.123C71.5331 140.123 71.7174 140.075 71.8838 139.98C72.0541 139.881 72.1888 139.741 72.2879 139.558C72.3869 139.372 72.4364 139.156 72.4364 138.911ZM77.8132 137.229C78.0668 137.229 78.2926 137.282 78.4907 137.389C78.6888 137.492 78.8453 137.649 78.9601 137.859C79.075 138.069 79.1325 138.324 79.1325 138.625V140.545H78.5976V138.703C78.5976 138.378 78.5164 138.13 78.354 137.96C78.1955 137.786 77.9796 137.698 77.7062 137.698C77.425 137.698 77.2011 137.79 77.0347 137.972C76.8683 138.15 76.7851 138.41 76.7851 138.75V140.545H76.2503V138.703C76.2503 138.378 76.1691 138.13 76.0066 137.96C75.8482 137.786 75.6323 137.698 75.3589 137.698C75.0776 137.698 74.8538 137.79 74.6874 137.972C74.521 138.15 74.4378 138.41 74.4378 138.75V140.545H73.897V137.288H74.4378V137.758C74.5448 137.587 74.6874 137.457 74.8657 137.366C75.0479 137.274 75.248 137.229 75.4659 137.229C75.7392 137.229 75.9809 137.29 76.1909 137.413C76.4008 137.536 76.5573 137.716 76.6603 137.954C76.7515 137.724 76.902 137.546 77.112 137.419C77.322 137.292 77.5557 137.229 77.8132 137.229ZM82.9909 138.792C82.9909 138.895 82.9849 139.004 82.9731 139.119H80.3702C80.39 139.44 80.4989 139.691 80.697 139.873C80.8991 140.052 81.1427 140.141 81.428 140.141C81.6617 140.141 81.8558 140.087 82.0103 139.98C82.1688 139.869 82.2797 139.723 82.3431 139.541H82.9255C82.8384 139.854 82.664 140.109 82.4026 140.307C82.1411 140.501 81.8162 140.598 81.428 140.598C81.119 140.598 80.8416 140.529 80.596 140.39C80.3543 140.252 80.1642 140.056 80.0255 139.802C79.8868 139.545 79.8175 139.247 79.8175 138.911C79.8175 138.574 79.8849 138.279 80.0196 138.025C80.1543 137.772 80.3424 137.578 80.5841 137.443C80.8297 137.304 81.111 137.235 81.428 137.235C81.737 137.235 82.0103 137.302 82.2481 137.437C82.4858 137.572 82.668 137.758 82.7948 137.996C82.9255 138.229 82.9909 138.495 82.9909 138.792ZM82.4323 138.679C82.4323 138.473 82.3867 138.297 82.2956 138.15C82.2045 137.999 82.0797 137.887 81.9212 137.811C81.7667 137.732 81.5944 137.692 81.4042 137.692C81.1308 137.692 80.8971 137.78 80.703 137.954C80.5128 138.128 80.4039 138.37 80.3761 138.679H82.4323Z" fill="#676767"/>
<rect x="51.5098" y="125.712" width="114.261" height="24.667" rx="6.48289" stroke="#CBCBCB"/>
<rect x="202.504" y="125.712" width="114.261" height="24.667" rx="6.48289" fill="#FAFAFA"/>
<path d="M219.31 138.923H218.276V139.98H217.313V138.923H216.279V138.013H217.313V136.95H218.276V138.013H219.31V138.923ZM221.021 139.273C221.08 139.586 221.262 139.743 221.567 139.743C221.777 139.743 221.926 139.65 222.013 139.463C222.1 139.277 222.144 138.974 222.144 138.554C222.057 138.677 221.938 138.772 221.787 138.839C221.637 138.907 221.468 138.94 221.282 138.94C221.029 138.94 220.803 138.889 220.605 138.786C220.407 138.679 220.25 138.522 220.135 138.316C220.024 138.106 219.969 137.853 219.969 137.556C219.969 137.263 220.028 137.007 220.147 136.789C220.27 136.571 220.442 136.403 220.664 136.284C220.89 136.165 221.155 136.106 221.46 136.106C222.047 136.106 222.457 136.288 222.691 136.652C222.924 137.017 223.041 137.554 223.041 138.263C223.041 138.778 222.994 139.204 222.899 139.541C222.807 139.873 222.651 140.127 222.429 140.301C222.211 140.476 221.912 140.563 221.532 140.563C221.231 140.563 220.973 140.503 220.759 140.384C220.549 140.266 220.387 140.109 220.272 139.915C220.161 139.721 220.098 139.507 220.082 139.273H221.021ZM221.514 138.138C221.68 138.138 221.813 138.089 221.912 137.99C222.011 137.887 222.061 137.748 222.061 137.574C222.061 137.383 222.009 137.237 221.906 137.134C221.803 137.031 221.664 136.979 221.49 136.979C221.316 136.979 221.177 137.033 221.074 137.14C220.975 137.243 220.926 137.385 220.926 137.568C220.926 137.738 220.975 137.877 221.074 137.984C221.177 138.087 221.324 138.138 221.514 138.138ZM223.476 137.152V136.207H225.123V140.545H224.065V137.152H223.476Z" fill="black"/>
<path d="M234.532 137.615C234.532 137.96 234.413 138.247 234.175 138.477C233.941 138.703 233.583 138.816 233.099 138.816H232.303V140.545H231.762V136.403H233.099C233.567 136.403 233.922 136.516 234.163 136.742C234.409 136.967 234.532 137.259 234.532 137.615ZM233.099 138.37C233.401 138.37 233.622 138.305 233.765 138.174C233.908 138.043 233.979 137.857 233.979 137.615C233.979 137.104 233.686 136.849 233.099 136.849H232.303V138.37H233.099ZM236.82 137.229C237.066 137.229 237.288 137.282 237.486 137.389C237.684 137.492 237.838 137.649 237.949 137.859C238.064 138.069 238.122 138.324 238.122 138.625V140.545H237.587V138.703C237.587 138.378 237.506 138.13 237.343 137.96C237.181 137.786 236.959 137.698 236.678 137.698C236.392 137.698 236.164 137.788 235.994 137.966C235.828 138.144 235.745 138.404 235.745 138.744V140.545H235.204V136.147H235.745V137.752C235.851 137.585 235.998 137.457 236.184 137.366C236.374 137.274 236.586 137.229 236.82 137.229ZM240.425 140.598C240.12 140.598 239.843 140.529 239.593 140.39C239.348 140.252 239.154 140.056 239.011 139.802C238.872 139.545 238.803 139.247 238.803 138.911C238.803 138.578 238.874 138.285 239.017 138.031C239.163 137.774 239.362 137.578 239.611 137.443C239.861 137.304 240.14 137.235 240.449 137.235C240.758 137.235 241.037 137.304 241.287 137.443C241.537 137.578 241.733 137.772 241.875 138.025C242.022 138.279 242.095 138.574 242.095 138.911C242.095 139.247 242.02 139.545 241.869 139.802C241.723 140.056 241.523 140.252 241.269 140.39C241.016 140.529 240.734 140.598 240.425 140.598ZM240.425 140.123C240.619 140.123 240.802 140.077 240.972 139.986C241.142 139.895 241.279 139.759 241.382 139.576C241.489 139.394 241.542 139.172 241.542 138.911C241.542 138.649 241.491 138.427 241.388 138.245C241.285 138.063 241.15 137.928 240.984 137.841C240.817 137.75 240.637 137.704 240.443 137.704C240.245 137.704 240.063 137.75 239.896 137.841C239.734 137.928 239.603 138.063 239.504 138.245C239.405 138.427 239.356 138.649 239.356 138.911C239.356 139.176 239.403 139.4 239.498 139.582C239.597 139.764 239.728 139.901 239.89 139.992C240.053 140.079 240.231 140.123 240.425 140.123ZM244.393 137.229C244.789 137.229 245.11 137.35 245.356 137.591C245.601 137.829 245.724 138.174 245.724 138.625V140.545H245.189V138.703C245.189 138.378 245.108 138.13 244.946 137.96C244.783 137.786 244.561 137.698 244.28 137.698C243.995 137.698 243.767 137.788 243.597 137.966C243.43 138.144 243.347 138.404 243.347 138.744V140.545H242.806V137.288H243.347V137.752C243.454 137.585 243.599 137.457 243.781 137.366C243.967 137.274 244.171 137.229 244.393 137.229ZM249.579 138.792C249.579 138.895 249.573 139.004 249.561 139.119H246.958C246.978 139.44 247.087 139.691 247.285 139.873C247.487 140.052 247.731 140.141 248.016 140.141C248.25 140.141 248.444 140.087 248.598 139.98C248.757 139.869 248.868 139.723 248.931 139.541H249.513C249.426 139.854 249.252 140.109 248.99 140.307C248.729 140.501 248.404 140.598 248.016 140.598C247.707 140.598 247.429 140.529 247.184 140.39C246.942 140.252 246.752 140.056 246.613 139.802C246.475 139.545 246.405 139.247 246.405 138.911C246.405 138.574 246.473 138.279 246.607 138.025C246.742 137.772 246.93 137.578 247.172 137.443C247.418 137.304 247.699 137.235 248.016 137.235C248.325 137.235 248.598 137.302 248.836 137.437C249.074 137.572 249.256 137.758 249.383 137.996C249.513 138.229 249.579 138.495 249.579 138.792ZM249.02 138.679C249.02 138.473 248.975 138.297 248.883 138.15C248.792 137.999 248.667 137.887 248.509 137.811C248.355 137.732 248.182 137.692 247.992 137.692C247.719 137.692 247.485 137.78 247.291 137.954C247.101 138.128 246.992 138.37 246.964 138.679H249.02ZM255.133 140.545H254.593L252.418 137.247V140.545H251.877V136.397H252.418L254.593 139.689V136.397H255.133V140.545ZM258.943 137.288V140.545H258.403V140.064C258.3 140.23 258.155 140.361 257.969 140.456C257.787 140.547 257.584 140.592 257.363 140.592C257.109 140.592 256.881 140.541 256.679 140.438C256.477 140.331 256.317 140.173 256.198 139.963C256.083 139.753 256.026 139.497 256.026 139.196V137.288H256.56V139.125C256.56 139.446 256.642 139.693 256.804 139.867C256.966 140.038 257.188 140.123 257.47 140.123C257.759 140.123 257.987 140.034 258.153 139.856C258.319 139.677 258.403 139.418 258.403 139.077V137.288H258.943ZM263.773 137.229C264.026 137.229 264.252 137.282 264.45 137.389C264.648 137.492 264.805 137.649 264.92 137.859C265.034 138.069 265.092 138.324 265.092 138.625V140.545H264.557V138.703C264.557 138.378 264.476 138.13 264.313 137.96C264.155 137.786 263.939 137.698 263.666 137.698C263.384 137.698 263.161 137.79 262.994 137.972C262.828 138.15 262.745 138.41 262.745 138.75V140.545H262.21V138.703C262.21 138.378 262.129 138.13 261.966 137.96C261.808 137.786 261.592 137.698 261.318 137.698C261.037 137.698 260.813 137.79 260.647 137.972C260.48 138.15 260.397 138.41 260.397 138.75V140.545H259.856V137.288H260.397V137.758C260.504 137.587 260.647 137.457 260.825 137.366C261.007 137.274 261.207 137.229 261.425 137.229C261.699 137.229 261.94 137.29 262.15 137.413C262.36 137.536 262.517 137.716 262.62 137.954C262.711 137.724 262.861 137.546 263.071 137.419C263.281 137.292 263.515 137.229 263.773 137.229ZM266.52 137.895C266.631 137.7 266.793 137.542 267.007 137.419C267.221 137.296 267.465 137.235 267.738 137.235C268.031 137.235 268.295 137.304 268.528 137.443C268.762 137.582 268.946 137.778 269.081 138.031C269.216 138.281 269.283 138.572 269.283 138.905C269.283 139.234 269.216 139.527 269.081 139.784C268.946 140.042 268.76 140.242 268.522 140.384C268.289 140.527 268.027 140.598 267.738 140.598C267.457 140.598 267.209 140.537 266.995 140.414C266.785 140.291 266.627 140.135 266.52 139.945V140.545H265.979V136.147H266.52V137.895ZM268.73 138.905C268.73 138.659 268.681 138.445 268.582 138.263C268.483 138.081 268.348 137.942 268.178 137.847C268.011 137.752 267.827 137.704 267.625 137.704C267.427 137.704 267.243 137.754 267.072 137.853C266.906 137.948 266.771 138.089 266.668 138.275C266.569 138.457 266.52 138.669 266.52 138.911C266.52 139.156 266.569 139.372 266.668 139.558C266.771 139.741 266.906 139.881 267.072 139.98C267.243 140.075 267.427 140.123 267.625 140.123C267.827 140.123 268.011 140.075 268.178 139.98C268.348 139.881 268.483 139.741 268.582 139.558C268.681 139.372 268.73 139.154 268.73 138.905ZM272.966 138.792C272.966 138.895 272.96 139.004 272.948 139.119H270.346C270.365 139.44 270.474 139.691 270.672 139.873C270.874 140.052 271.118 140.141 271.403 140.141C271.637 140.141 271.831 140.087 271.986 139.98C272.144 139.869 272.255 139.723 272.319 139.541H272.901C272.814 139.854 272.639 140.109 272.378 140.307C272.116 140.501 271.792 140.598 271.403 140.598C271.094 140.598 270.817 140.529 270.571 140.39C270.33 140.252 270.14 140.056 270.001 139.802C269.862 139.545 269.793 139.247 269.793 138.911C269.793 138.574 269.86 138.279 269.995 138.025C270.13 137.772 270.318 137.578 270.559 137.443C270.805 137.304 271.086 137.235 271.403 137.235C271.712 137.235 271.986 137.302 272.223 137.437C272.461 137.572 272.643 137.758 272.77 137.996C272.901 138.229 272.966 138.495 272.966 138.792ZM272.408 138.679C272.408 138.473 272.362 138.297 272.271 138.15C272.18 137.999 272.055 137.887 271.897 137.811C271.742 137.732 271.57 137.692 271.38 137.692C271.106 137.692 270.872 137.78 270.678 137.954C270.488 138.128 270.379 138.37 270.351 138.679H272.408ZM274.221 137.817C274.316 137.631 274.451 137.486 274.625 137.383C274.803 137.28 275.019 137.229 275.273 137.229V137.788H275.13C274.524 137.788 274.221 138.116 274.221 138.774V140.545H273.68V137.288H274.221V137.817Z" fill="#676767"/>
<rect x="202.504" y="125.712" width="114.261" height="24.667" rx="6.48289" stroke="#D2D2D2"/>
<line x1="184.268" y1="127.604" x2="184.268" y2="148.673" stroke="#D0D0D0" stroke-width="0.27012"/>
<rect x="335.135" y="125.712" width="81.3062" height="24.5809" rx="10.8048" fill="#2C3779"/>
<path d="M345.706 138.455C345.876 138.486 346.016 138.571 346.125 138.71C346.235 138.848 346.289 139.006 346.289 139.185C346.289 139.346 346.249 139.489 346.168 139.613C346.091 139.734 345.977 139.829 345.827 139.898C345.677 139.967 345.5 140.002 345.295 140.002H343.995V136.985H345.239C345.444 136.985 345.62 137.018 345.766 137.085C345.916 137.151 346.029 137.243 346.104 137.361C346.181 137.479 346.22 137.613 346.22 137.763C346.22 137.939 346.173 138.086 346.078 138.204C345.985 138.322 345.862 138.406 345.706 138.455ZM344.6 138.23H345.153C345.297 138.23 345.408 138.198 345.486 138.135C345.563 138.069 345.602 137.975 345.602 137.854C345.602 137.733 345.563 137.639 345.486 137.573C345.408 137.507 345.297 137.474 345.153 137.474H344.6V138.23ZM345.209 139.509C345.356 139.509 345.47 139.475 345.55 139.406C345.634 139.336 345.676 139.238 345.676 139.112C345.676 138.982 345.633 138.881 345.546 138.809C345.46 138.734 345.343 138.697 345.196 138.697H344.6V139.509H345.209ZM347.835 140.041C347.604 140.041 347.397 139.99 347.213 139.89C347.028 139.786 346.883 139.64 346.776 139.453C346.672 139.266 346.62 139.05 346.62 138.805C346.62 138.56 346.674 138.344 346.78 138.156C346.89 137.969 347.038 137.825 347.225 137.724C347.413 137.621 347.622 137.569 347.852 137.569C348.083 137.569 348.292 137.621 348.479 137.724C348.666 137.825 348.813 137.969 348.92 138.156C349.029 138.344 349.084 138.56 349.084 138.805C349.084 139.05 349.028 139.266 348.915 139.453C348.806 139.64 348.656 139.786 348.466 139.89C348.279 139.99 348.068 140.041 347.835 140.041ZM347.835 139.514C347.944 139.514 348.047 139.488 348.142 139.436C348.24 139.381 348.317 139.3 348.375 139.194C348.433 139.087 348.462 138.957 348.462 138.805C348.462 138.577 348.401 138.403 348.28 138.282C348.162 138.158 348.016 138.096 347.844 138.096C347.671 138.096 347.525 138.158 347.407 138.282C347.292 138.403 347.234 138.577 347.234 138.805C347.234 139.032 347.29 139.208 347.403 139.332C347.518 139.453 347.662 139.514 347.835 139.514ZM350.591 140.041C350.36 140.041 350.153 139.99 349.969 139.89C349.784 139.786 349.639 139.64 349.532 139.453C349.428 139.266 349.376 139.05 349.376 138.805C349.376 138.56 349.43 138.344 349.536 138.156C349.646 137.969 349.794 137.825 349.982 137.724C350.169 137.621 350.378 137.569 350.608 137.569C350.839 137.569 351.048 137.621 351.235 137.724C351.422 137.825 351.569 137.969 351.676 138.156C351.785 138.344 351.84 138.56 351.84 138.805C351.84 139.05 351.784 139.266 351.671 139.453C351.562 139.64 351.412 139.786 351.222 139.89C351.035 139.99 350.824 140.041 350.591 140.041ZM350.591 139.514C350.7 139.514 350.803 139.488 350.898 139.436C350.996 139.381 351.074 139.3 351.131 139.194C351.189 139.087 351.218 138.957 351.218 138.805C351.218 138.577 351.157 138.403 351.036 138.282C350.918 138.158 350.772 138.096 350.6 138.096C350.427 138.096 350.281 138.158 350.163 138.282C350.048 138.403 349.99 138.577 349.99 138.805C349.99 139.032 350.046 139.208 350.159 139.332C350.274 139.453 350.418 139.514 350.591 139.514ZM353.701 140.002L352.889 138.982V140.002H352.284V136.804H352.889V138.623L353.693 137.608H354.479L353.425 138.809L354.488 140.002H353.701ZM355.691 138.489C355.691 138.193 355.757 137.927 355.889 137.694C356.025 137.458 356.208 137.275 356.438 137.145C356.672 137.013 356.932 136.946 357.221 136.946C357.558 136.946 357.853 137.033 358.107 137.206C358.36 137.379 358.537 137.618 358.638 137.923H357.942C357.873 137.779 357.775 137.671 357.648 137.599C357.525 137.527 357.381 137.491 357.216 137.491C357.041 137.491 356.883 137.533 356.745 137.616C356.61 137.697 356.503 137.812 356.425 137.962C356.35 138.112 356.313 138.288 356.313 138.489C356.313 138.688 356.35 138.864 356.425 139.017C356.503 139.166 356.61 139.283 356.745 139.367C356.883 139.447 357.041 139.488 357.216 139.488C357.381 139.488 357.525 139.452 357.648 139.38C357.775 139.305 357.873 139.195 357.942 139.051H358.638C358.537 139.359 358.36 139.6 358.107 139.773C357.856 139.943 357.561 140.028 357.221 140.028C356.932 140.028 356.672 139.963 356.438 139.833C356.208 139.701 356.025 139.518 355.889 139.285C355.757 139.051 355.691 138.786 355.691 138.489ZM358.999 138.796C358.999 138.554 359.047 138.339 359.142 138.152C359.24 137.965 359.371 137.821 359.535 137.72C359.702 137.619 359.888 137.569 360.093 137.569C360.272 137.569 360.427 137.605 360.56 137.677C360.695 137.749 360.803 137.84 360.884 137.949V137.608H361.493V140.002H360.884V139.652C360.806 139.764 360.698 139.858 360.56 139.933C360.424 140.005 360.267 140.041 360.089 140.041C359.887 140.041 359.702 139.989 359.535 139.885C359.371 139.782 359.24 139.636 359.142 139.449C359.047 139.259 358.999 139.041 358.999 138.796ZM360.884 138.805C360.884 138.658 360.855 138.532 360.797 138.429C360.74 138.322 360.662 138.241 360.564 138.187C360.466 138.129 360.361 138.1 360.248 138.1C360.136 138.1 360.032 138.128 359.937 138.182C359.842 138.237 359.764 138.318 359.704 138.424C359.646 138.528 359.617 138.652 359.617 138.796C359.617 138.94 359.646 139.067 359.704 139.176C359.764 139.283 359.842 139.365 359.937 139.423C360.035 139.48 360.139 139.509 360.248 139.509C360.361 139.509 360.466 139.482 360.564 139.427C360.662 139.37 360.74 139.289 360.797 139.185C360.855 139.079 360.884 138.952 360.884 138.805ZM362.689 137.979C362.767 137.853 362.868 137.753 362.992 137.681C363.119 137.609 363.263 137.573 363.424 137.573V138.208H363.264C363.074 138.208 362.93 138.253 362.832 138.342C362.737 138.432 362.689 138.587 362.689 138.809V140.002H362.084V137.608H362.689V137.979ZM366.057 138.753C366.057 138.839 366.051 138.917 366.04 138.986H364.29C364.304 139.159 364.364 139.295 364.471 139.393C364.578 139.491 364.709 139.54 364.864 139.54C365.089 139.54 365.249 139.443 365.344 139.25H365.997C365.928 139.48 365.795 139.671 365.599 139.82C365.403 139.967 365.163 140.041 364.877 140.041C364.647 140.041 364.439 139.99 364.255 139.89C364.073 139.786 363.931 139.64 363.827 139.453C363.726 139.266 363.676 139.05 363.676 138.805C363.676 138.557 363.726 138.339 363.827 138.152C363.928 137.965 364.069 137.821 364.251 137.72C364.432 137.619 364.641 137.569 364.877 137.569C365.105 137.569 365.308 137.618 365.487 137.716C365.668 137.814 365.808 137.953 365.906 138.135C366.007 138.314 366.057 138.52 366.057 138.753ZM365.431 138.58C365.428 138.424 365.372 138.301 365.262 138.208C365.153 138.113 365.019 138.066 364.86 138.066C364.71 138.066 364.583 138.112 364.48 138.204C364.379 138.293 364.317 138.419 364.294 138.58H365.431ZM368.725 138.753C368.725 138.839 368.719 138.917 368.707 138.986H366.957C366.971 139.159 367.032 139.295 367.139 139.393C367.245 139.491 367.376 139.54 367.532 139.54C367.757 139.54 367.916 139.443 368.012 139.25H368.664C368.595 139.48 368.462 139.671 368.267 139.82C368.071 139.967 367.83 140.041 367.545 140.041C367.314 140.041 367.107 139.99 366.922 139.89C366.741 139.786 366.598 139.64 366.495 139.453C366.394 139.266 366.343 139.05 366.343 138.805C366.343 138.557 366.394 138.339 366.495 138.152C366.595 137.965 366.737 137.821 366.918 137.72C367.1 137.619 367.309 137.569 367.545 137.569C367.772 137.569 367.976 137.618 368.154 137.716C368.336 137.814 368.475 137.953 368.573 138.135C368.674 138.314 368.725 138.52 368.725 138.753ZM368.098 138.58C368.095 138.424 368.039 138.301 367.929 138.208C367.82 138.113 367.686 138.066 367.528 138.066C367.378 138.066 367.251 138.112 367.147 138.204C367.046 138.293 366.984 138.419 366.961 138.58H368.098ZM369.771 137.979C369.849 137.853 369.95 137.753 370.074 137.681C370.201 137.609 370.345 137.573 370.506 137.573V138.208H370.346C370.156 138.208 370.012 138.253 369.914 138.342C369.819 138.432 369.771 138.587 369.771 138.809V140.002H369.166V137.608H369.771V137.979ZM371.797 138.489C371.797 138.193 371.863 137.927 371.995 137.694C372.131 137.458 372.314 137.275 372.544 137.145C372.778 137.013 373.038 136.946 373.327 136.946C373.664 136.946 373.959 137.033 374.213 137.206C374.466 137.379 374.643 137.618 374.744 137.923H374.048C373.979 137.779 373.881 137.671 373.754 137.599C373.631 137.527 373.486 137.491 373.322 137.491C373.146 137.491 372.989 137.533 372.851 137.616C372.716 137.697 372.609 137.812 372.531 137.962C372.456 138.112 372.419 138.288 372.419 138.489C372.419 138.688 372.456 138.864 372.531 139.017C372.609 139.166 372.716 139.283 372.851 139.367C372.989 139.447 373.146 139.488 373.322 139.488C373.486 139.488 373.631 139.452 373.754 139.38C373.881 139.305 373.979 139.195 374.048 139.051H374.744C374.643 139.359 374.466 139.6 374.213 139.773C373.962 139.943 373.667 140.028 373.327 140.028C373.038 140.028 372.778 139.963 372.544 139.833C372.314 139.701 372.131 139.518 371.995 139.285C371.863 139.051 371.797 138.786 371.797 138.489ZM376.324 140.041C376.094 140.041 375.886 139.99 375.702 139.89C375.517 139.786 375.372 139.64 375.265 139.453C375.162 139.266 375.11 139.05 375.11 138.805C375.11 138.56 375.163 138.344 375.27 138.156C375.379 137.969 375.527 137.825 375.715 137.724C375.902 137.621 376.111 137.569 376.341 137.569C376.572 137.569 376.781 137.621 376.968 137.724C377.155 137.825 377.302 137.969 377.409 138.156C377.518 138.344 377.573 138.56 377.573 138.805C377.573 139.05 377.517 139.266 377.405 139.453C377.295 139.64 377.145 139.786 376.955 139.89C376.768 139.99 376.558 140.041 376.324 140.041ZM376.324 139.514C376.434 139.514 376.536 139.488 376.631 139.436C376.729 139.381 376.807 139.3 376.864 139.194C376.922 139.087 376.951 138.957 376.951 138.805C376.951 138.577 376.89 138.403 376.769 138.282C376.651 138.158 376.506 138.096 376.333 138.096C376.16 138.096 376.014 138.158 375.896 138.282C375.781 138.403 375.723 138.577 375.723 138.805C375.723 139.032 375.78 139.208 375.892 139.332C376.007 139.453 376.151 139.514 376.324 139.514ZM380.277 137.608V140.002H379.668V139.699C379.59 139.803 379.488 139.885 379.361 139.946C379.237 140.003 379.102 140.032 378.955 140.032C378.768 140.032 378.602 139.993 378.458 139.916C378.314 139.835 378.2 139.718 378.116 139.565C378.036 139.41 377.995 139.225 377.995 139.012V137.608H378.6V138.926C378.6 139.116 378.648 139.263 378.743 139.367C378.838 139.467 378.968 139.518 379.132 139.518C379.299 139.518 379.43 139.467 379.525 139.367C379.62 139.263 379.668 139.116 379.668 138.926V137.608H380.277ZM382.201 137.573C382.486 137.573 382.717 137.664 382.893 137.845C383.068 138.024 383.156 138.275 383.156 138.597V140.002H382.551V138.679C382.551 138.489 382.504 138.344 382.409 138.243C382.314 138.139 382.184 138.087 382.02 138.087C381.853 138.087 381.72 138.139 381.622 138.243C381.527 138.344 381.479 138.489 381.479 138.679V140.002H380.874V137.608H381.479V137.906C381.56 137.802 381.662 137.721 381.786 137.664C381.913 137.603 382.051 137.573 382.201 137.573ZM384.648 140.041C384.452 140.041 384.276 140.006 384.121 139.937C383.965 139.865 383.841 139.769 383.749 139.648C383.66 139.527 383.611 139.393 383.602 139.246H384.211C384.223 139.338 384.268 139.414 384.345 139.475C384.426 139.535 384.526 139.565 384.644 139.565C384.759 139.565 384.848 139.542 384.912 139.496C384.978 139.45 385.011 139.391 385.011 139.319C385.011 139.241 384.971 139.184 384.89 139.146C384.812 139.106 384.687 139.063 384.514 139.017C384.335 138.973 384.188 138.929 384.073 138.883C383.961 138.836 383.863 138.766 383.779 138.671C383.699 138.576 383.658 138.448 383.658 138.286C383.658 138.154 383.696 138.033 383.771 137.923C383.848 137.814 383.958 137.727 384.099 137.664C384.243 137.6 384.412 137.569 384.605 137.569C384.89 137.569 385.118 137.641 385.288 137.785C385.458 137.926 385.551 138.118 385.569 138.36H384.989C384.981 138.265 384.94 138.19 384.868 138.135C384.799 138.077 384.706 138.048 384.587 138.048C384.478 138.048 384.393 138.069 384.332 138.109C384.275 138.149 384.246 138.205 384.246 138.278C384.246 138.358 384.286 138.42 384.367 138.463C384.448 138.504 384.573 138.545 384.743 138.589C384.916 138.632 385.059 138.677 385.171 138.723C385.283 138.769 385.38 138.841 385.461 138.939C385.544 139.034 385.587 139.161 385.59 139.319C385.59 139.457 385.551 139.581 385.473 139.691C385.399 139.8 385.289 139.887 385.145 139.95C385.004 140.011 384.838 140.041 384.648 140.041ZM388.313 138.753C388.313 138.839 388.307 138.917 388.295 138.986H386.545C386.559 139.159 386.62 139.295 386.726 139.393C386.833 139.491 386.964 139.54 387.12 139.54C387.345 139.54 387.504 139.443 387.6 139.25H388.252C388.183 139.48 388.05 139.671 387.855 139.82C387.659 139.967 387.418 140.041 387.133 140.041C386.902 140.041 386.695 139.99 386.51 139.89C386.329 139.786 386.186 139.64 386.083 139.453C385.982 139.266 385.931 139.05 385.931 138.805C385.931 138.557 385.982 138.339 386.083 138.152C386.183 137.965 386.325 137.821 386.506 137.72C386.688 137.619 386.896 137.569 387.133 137.569C387.36 137.569 387.563 137.618 387.742 137.716C387.924 137.814 388.063 137.953 388.161 138.135C388.262 138.314 388.313 138.52 388.313 138.753ZM387.686 138.58C387.683 138.424 387.627 138.301 387.517 138.208C387.408 138.113 387.274 138.066 387.115 138.066C386.966 138.066 386.839 138.112 386.735 138.204C386.634 138.293 386.572 138.419 386.549 138.58H387.686ZM389.359 136.804V140.002H388.754V136.804H389.359ZM390.562 136.804V140.002H389.957V136.804H390.562ZM391.467 137.322C391.36 137.322 391.271 137.289 391.199 137.223C391.13 137.154 391.095 137.069 391.095 136.968C391.095 136.867 391.13 136.784 391.199 136.717C391.271 136.648 391.36 136.614 391.467 136.614C391.574 136.614 391.661 136.648 391.731 136.717C391.803 136.784 391.839 136.867 391.839 136.968C391.839 137.069 391.803 137.154 391.731 137.223C391.661 137.289 391.574 137.322 391.467 137.322ZM391.765 137.608V140.002H391.16V137.608H391.765ZM393.69 137.573C393.975 137.573 394.205 137.664 394.381 137.845C394.557 138.024 394.645 138.275 394.645 138.597V140.002H394.04V138.679C394.04 138.489 393.992 138.344 393.897 138.243C393.802 138.139 393.672 138.087 393.508 138.087C393.341 138.087 393.209 138.139 393.111 138.243C393.016 138.344 392.968 138.489 392.968 138.679V140.002H392.363V137.608H392.968V137.906C393.049 137.802 393.151 137.721 393.275 137.664C393.402 137.603 393.54 137.573 393.69 137.573ZM396.158 137.569C396.337 137.569 396.494 137.605 396.629 137.677C396.765 137.746 396.871 137.837 396.949 137.949V137.608H397.558V140.019C397.558 140.241 397.514 140.438 397.424 140.611C397.335 140.787 397.201 140.925 397.023 141.026C396.844 141.13 396.628 141.182 396.374 141.182C396.034 141.182 395.755 141.103 395.536 140.944C395.32 140.786 395.197 140.57 395.168 140.296H395.769C395.801 140.405 395.869 140.492 395.972 140.555C396.079 140.621 396.207 140.655 396.357 140.655C396.533 140.655 396.675 140.601 396.785 140.495C396.894 140.391 396.949 140.232 396.949 140.019V139.648C396.871 139.76 396.763 139.854 396.625 139.928C396.489 140.003 396.334 140.041 396.158 140.041C395.956 140.041 395.772 139.989 395.605 139.885C395.438 139.782 395.305 139.636 395.207 139.449C395.112 139.259 395.065 139.041 395.065 138.796C395.065 138.554 395.112 138.339 395.207 138.152C395.305 137.965 395.436 137.821 395.601 137.72C395.768 137.619 395.954 137.569 396.158 137.569ZM396.949 138.805C396.949 138.658 396.92 138.532 396.863 138.429C396.805 138.322 396.727 138.241 396.629 138.187C396.531 138.129 396.426 138.1 396.314 138.1C396.201 138.1 396.098 138.128 396.003 138.182C395.907 138.237 395.83 138.318 395.769 138.424C395.712 138.528 395.683 138.652 395.683 138.796C395.683 138.94 395.712 139.067 395.769 139.176C395.83 139.283 395.907 139.365 396.003 139.423C396.101 139.48 396.204 139.509 396.314 139.509C396.426 139.509 396.531 139.482 396.629 139.427C396.727 139.37 396.805 139.289 396.863 139.185C396.92 139.079 396.949 138.952 396.949 138.805Z" fill="white"/>
<path d="M404.103 136.382L403.722 136.763L404.959 138.003L403.722 139.242L404.103 139.623L405.723 138.003L404.103 136.382Z" fill="white"/>
</g>
<defs>
<filter id="filter0_d_136_1062" x="0.183158" y="76.0103" width="481.894" height="126.146" filterUnits="userSpaceOnUse" color-interpolation-filters="sRGB">
<feFlood flood-opacity="0" result="BackgroundImageFix"/>
<feColorMatrix in="SourceAlpha" type="matrix" values="0 0 0 0 0 0 0 0 0 0 0 0 0 0 0 0 0 0 127 0" result="hardAlpha"/>
<feOffset dx="1.08048" dy="1.08048"/>
<feGaussianBlur stdDeviation="19.4487"/>
<feComposite in2="hardAlpha" operator="out"/>
<feColorMatrix type="matrix" values="0 0 0 0 0 0 0 0 0 0 0 0 0 0 0 0 0 0 0.12 0"/>
<feBlend mode="normal" in2="BackgroundImageFix" result="effect1_dropShadow_136_1062"/>
<feBlend mode="normal" in="SourceGraphic" in2="effect1_dropShadow_136_1062" result="shape"/>
</filter>
</defs>
</svg>
