<svg width="50" height="50" viewBox="0 0 50 50" fill="none" xmlns="http://www.w3.org/2000/svg">
<g clip-path="url(#clip0_147_3802)">
<path d="M0 0V50H50V0H0ZM21.2439 35.8913L16.6211 26.3643L12.1608 35.8686H7.81377L14.211 23.6813L8.02578 11.3574H12.5377L16.9168 20.7253L21.2592 11.3347H25.4945L19.3042 23.2946L25.8601 35.8913H21.2439ZM41.0642 34.8908C39.1542 35.8004 37.1532 36.2097 35.2433 36.2097C30.3093 36.2324 26.785 33.1855 26.785 27.0009C26.9455 20.6653 31.167 17.1301 37.0851 17.6103V11.3574H41.1323V32.4125C41.1407 34.9235 41.4179 34.682 41.0642 34.8908ZM37.085 21.1801V32.4352C33.0901 33.4718 30.8813 31.0406 30.9004 26.8189C30.9154 22.4895 33.76 20.2425 37.085 21.1801Z" fill="white"/>
</g>
<defs>
<clipPath id="clip0_147_3802">
<rect width="50" height="50" fill="white"/>
</clipPath>
</defs>
</svg>
